<svg width="15" height="16" viewBox="0 0 15 16" fill="none" xmlns="http://www.w3.org/2000/svg">
<mask id="mask0_2111_2443" style="mask-type:alpha" maskUnits="userSpaceOnUse" x="0" y="0" width="15" height="16">
<rect y="0.5" width="15" height="15" fill="#D9D9D9"/>
</mask>
<g mask="url(#mask0_2111_2443)">
<path d="M7.5 14.25C6.63542 14.25 5.82292 14.0859 5.0625 13.7578C4.30208 13.4297 3.64062 12.9844 3.07812 12.4219C2.51562 11.8594 2.07031 11.1979 1.74219 10.4375C1.41406 9.67708 1.25 8.86458 1.25 8C1.25 7.13542 1.41406 6.32292 1.74219 5.5625C2.07031 4.80208 2.51562 4.14062 3.07812 3.57812C3.64062 3.01562 4.30208 2.57031 5.0625 2.24219C5.82292 1.91406 6.63542 1.75 7.5 1.75C7.84375 1.75 8.18229 1.77604 8.51562 1.82812C8.84896 1.88021 9.17188 1.95833 9.48438 2.0625C9.72396 2.14583 9.875 2.26823 9.9375 2.42969C10 2.59115 10.0052 2.75 9.95312 2.90625C9.90104 3.0625 9.80469 3.1849 9.66406 3.27344C9.52344 3.36198 9.36458 3.36979 9.1875 3.29688C8.91667 3.20312 8.64323 3.13021 8.36719 3.07812C8.09115 3.02604 7.80208 3 7.5 3C6.11458 3 4.9349 3.48698 3.96094 4.46094C2.98698 5.4349 2.5 6.61458 2.5 8C2.5 9.38542 2.98698 10.5651 3.96094 11.5391C4.9349 12.513 6.11458 13 7.5 13C8.88542 13 10.0651 12.513 11.0391 11.5391C12.013 10.5651 12.5 9.38542 12.5 8C12.5 7.8125 12.4896 7.625 12.4688 7.4375C12.4479 7.25 12.4167 7.06771 12.375 6.89062C12.3229 6.69271 12.349 6.53125 12.4531 6.40625C12.5573 6.28125 12.6875 6.20312 12.8438 6.17188C13 6.14062 13.1536 6.16406 13.3047 6.24219C13.4557 6.32031 13.5573 6.46875 13.6094 6.6875C13.6615 6.89583 13.6979 7.10938 13.7188 7.32812C13.7396 7.54688 13.75 7.77083 13.75 8C13.75 8.86458 13.5859 9.67708 13.2578 10.4375C12.9297 11.1979 12.4844 11.8594 11.9219 12.4219C11.3594 12.9844 10.6979 13.4297 9.9375 13.7578C9.17708 14.0859 8.36458 14.25 7.5 14.25ZM12.5 3.625H11.875C11.6979 3.625 11.5495 3.5651 11.4297 3.44531C11.3099 3.32552 11.25 3.17708 11.25 3C11.25 2.82292 11.3099 2.67448 11.4297 2.55469C11.5495 2.4349 11.6979 2.375 11.875 2.375H12.5V1.75C12.5 1.57292 12.5599 1.42448 12.6797 1.30469C12.7995 1.1849 12.9479 1.125 13.125 1.125C13.3021 1.125 13.4505 1.1849 13.5703 1.30469C13.6901 1.42448 13.75 1.57292 13.75 1.75V2.375H14.375C14.5521 2.375 14.7005 2.4349 14.8203 2.55469C14.9401 2.67448 15 2.82292 15 3C15 3.17708 14.9401 3.32552 14.8203 3.44531C14.7005 3.5651 14.5521 3.625 14.375 3.625H13.75V4.25C13.75 4.42708 13.6901 4.57552 13.5703 4.69531C13.4505 4.8151 13.3021 4.875 13.125 4.875C12.9479 4.875 12.7995 4.8151 12.6797 4.69531C12.5599 4.57552 12.5 4.42708 12.5 4.25V3.625ZM9.6875 7.375C9.94792 7.375 10.1693 7.28385 10.3516 7.10156C10.5339 6.91927 10.625 6.69792 10.625 6.4375C10.625 6.17708 10.5339 5.95573 10.3516 5.77344C10.1693 5.59115 9.94792 5.5 9.6875 5.5C9.42708 5.5 9.20573 5.59115 9.02344 5.77344C8.84115 5.95573 8.75 6.17708 8.75 6.4375C8.75 6.69792 8.84115 6.91927 9.02344 7.10156C9.20573 7.28385 9.42708 7.375 9.6875 7.375ZM5.3125 7.375C5.57292 7.375 5.79427 7.28385 5.97656 7.10156C6.15885 6.91927 6.25 6.69792 6.25 6.4375C6.25 6.17708 6.15885 5.95573 5.97656 5.77344C5.79427 5.59115 5.57292 5.5 5.3125 5.5C5.05208 5.5 4.83073 5.59115 4.64844 5.77344C4.46615 5.95573 4.375 6.17708 4.375 6.4375C4.375 6.69792 4.46615 6.91927 4.64844 7.10156C4.83073 7.28385 5.05208 7.375 5.3125 7.375ZM7.5 11.4375C8.10417 11.4375 8.66146 11.2917 9.17188 11C9.68229 10.7083 10.0938 10.3125 10.4062 9.8125C10.4688 9.6875 10.4635 9.5625 10.3906 9.4375C10.3177 9.3125 10.2083 9.25 10.0625 9.25H4.9375C4.79167 9.25 4.68229 9.3125 4.60938 9.4375C4.53646 9.5625 4.53125 9.6875 4.59375 9.8125C4.90625 10.3125 5.32031 10.7083 5.83594 11C6.35156 11.2917 6.90625 11.4375 7.5 11.4375Z" fill="white"/>
</g>
</svg>
