<svg width="19" height="20" viewBox="0 0 19 20" fill="none" xmlns="http://www.w3.org/2000/svg">
<mask id="mask0_2111_2439" style="mask-type:alpha" maskUnits="userSpaceOnUse" x="0" y="0" width="19" height="20">
<rect y="0.5" width="19" height="19" fill="#D9D9D9"/>
</mask>
<g mask="url(#mask0_2111_2439)">
<path d="M2.59277 14.5125L5.8584 5.8042H7.42194L10.6876 14.5125H9.1834L8.41152 12.2959H4.88861L4.09694 14.5125H2.59277ZM5.34382 11.0292H7.93652L6.66986 7.42712H6.59069L5.34382 11.0292ZM13.1615 14.7104C12.4886 14.7104 11.9542 14.529 11.5584 14.1662C11.1626 13.8033 10.9646 13.325 10.9646 12.7313C10.9646 12.1507 11.1923 11.6724 11.6475 11.2964C12.1027 10.9203 12.6865 10.7323 13.399 10.7323C13.7025 10.7323 13.9994 10.7587 14.2896 10.8115C14.5799 10.8643 14.8306 10.9368 15.0417 11.0292V10.7917C15.0417 10.4091 14.9065 10.099 14.636 9.86149C14.3655 9.62399 14.006 9.50524 13.5574 9.50524C13.2539 9.50524 12.9768 9.56791 12.7261 9.69326C12.4754 9.81861 12.2577 10 12.073 10.2375L11.1428 9.54482C11.4594 9.16219 11.819 8.8785 12.2214 8.69378C12.6239 8.50906 13.0758 8.4167 13.5771 8.4167C14.4876 8.4167 15.1671 8.63111 15.6157 9.05993C16.0643 9.48875 16.2886 10.132 16.2886 10.9896V14.5125H15.0417V13.7802H14.9626C14.7778 14.0837 14.5271 14.3146 14.2105 14.4729C13.8938 14.6313 13.5442 14.7104 13.1615 14.7104ZM13.399 13.6417C13.8608 13.6417 14.2534 13.4834 14.5766 13.1667C14.8999 12.85 15.0615 12.4806 15.0615 12.0584C14.8768 11.9528 14.6558 11.8703 14.3985 11.811C14.1412 11.7516 13.8872 11.7219 13.6365 11.7219C13.2143 11.7219 12.8844 11.8143 12.6469 11.999C12.4094 12.1837 12.2907 12.4278 12.2907 12.7313C12.2907 12.9952 12.3962 13.2129 12.6074 13.3844C12.8185 13.5559 13.0824 13.6417 13.399 13.6417Z" fill="white"/>
</g>
</svg>
