<svg width="15" height="16" viewBox="0 0 15 16" fill="none" xmlns="http://www.w3.org/2000/svg">
<mask id="mask0_2111_2435" style="mask-type:alpha" maskUnits="userSpaceOnUse" x="0" y="0" width="15" height="16">
<rect y="0.5" width="15" height="15" fill="#D9D9D9"/>
</mask>
<g mask="url(#mask0_2111_2435)">
<path d="M8.75072 13C8.06322 13 7.47468 12.7552 6.9851 12.2656C6.49551 11.776 6.25072 11.1875 6.25072 10.5C6.25072 9.8125 6.49551 9.22396 6.9851 8.73438C7.47468 8.24479 8.06322 8 8.75072 8C8.99031 8 9.21166 8.02865 9.41479 8.08594C9.61791 8.14323 9.81322 8.22917 10.0007 8.34375V3.625C10.0007 3.44792 10.0606 3.29948 10.1804 3.17969C10.3002 3.0599 10.4486 3 10.6257 3H13.1257C13.3028 3 13.4512 3.0599 13.571 3.17969C13.6908 3.29948 13.7507 3.44792 13.7507 3.625V4.25C13.7507 4.42708 13.6908 4.57552 13.571 4.69531C13.4512 4.8151 13.3028 4.875 13.1257 4.875H11.2507V10.5C11.2507 11.1875 11.0059 11.776 10.5163 12.2656C10.0268 12.7552 9.43822 13 8.75072 13ZM4.34447 6.07812C3.84447 6.57813 3.43822 7.14844 3.12572 7.78906C2.81322 8.42969 2.61531 9.11458 2.53197 9.84375C2.51114 10.0208 2.44083 10.1745 2.32104 10.3047C2.20124 10.4349 2.05281 10.5 1.87572 10.5C1.69864 10.5 1.5502 10.4323 1.43041 10.2969C1.31062 10.1615 1.26114 10.0052 1.28197 9.82812C1.36531 8.92188 1.59708 8.07552 1.97729 7.28906C2.35749 6.5026 2.84968 5.80729 3.45385 5.20312C4.05802 4.59896 4.75333 4.10677 5.53979 3.72656C6.32624 3.34635 7.1726 3.11458 8.07885 3.03125C8.25593 3.01042 8.41218 3.0599 8.5476 3.17969C8.68301 3.29948 8.75072 3.44792 8.75072 3.625C8.75072 3.80208 8.68562 3.95052 8.55541 4.07031C8.4252 4.1901 8.27156 4.26042 8.09447 4.28125C7.36531 4.36458 6.68302 4.5599 6.0476 4.86719C5.41218 5.17448 4.84447 5.57812 4.34447 6.07812ZM6.1101 7.84375C5.83927 8.11458 5.6101 8.42448 5.4226 8.77344C5.2351 9.1224 5.1101 9.49479 5.0476 9.89063C5.01635 10.0677 4.94083 10.2135 4.82104 10.3281C4.70124 10.4427 4.55281 10.5 4.37572 10.5C4.19864 10.5 4.05281 10.4349 3.93822 10.3047C3.82364 10.1745 3.77676 10.0208 3.7976 9.84375C3.87051 9.28125 4.02937 8.75781 4.27416 8.27344C4.51895 7.78906 4.83406 7.35417 5.21947 6.96875C5.60489 6.58333 6.03979 6.26823 6.52416 6.02344C7.00854 5.77865 7.53197 5.61979 8.09447 5.54688C8.27156 5.52604 8.4252 5.57292 8.55541 5.6875C8.68562 5.80208 8.75072 5.94792 8.75072 6.125C8.75072 6.30208 8.69343 6.45052 8.57885 6.57031C8.46426 6.6901 8.31843 6.76563 8.14135 6.79688C7.74552 6.85938 7.37572 6.98177 7.03197 7.16406C6.68822 7.34635 6.38093 7.57292 6.1101 7.84375Z" fill="white"/>
</g>
</svg>
