<svg width="30" height="35" viewBox="0 0 30 35" fill="none" xmlns="http://www.w3.org/2000/svg">
<path d="M0.932617 32.7259V2.77159C0.932617 2.0877 1.16058 1.53671 1.6165 1.11863C2.07243 0.701004 2.60427 0.492188 3.21201 0.492188C3.40989 0.492188 3.61141 0.518633 3.81657 0.571521C4.02174 0.624864 4.22303 0.704651 4.42044 0.810881L27.992 15.8338C28.3412 16.0768 28.6034 16.3579 28.7785 16.6771C28.9531 16.9962 29.0404 17.3534 29.0404 17.7487C29.0404 18.144 28.9531 18.5012 28.7785 18.8204C28.6034 19.1395 28.3412 19.4206 27.992 19.6636L4.42044 34.6866C4.22303 34.7928 4.02174 34.8726 3.81657 34.9259C3.61141 34.9788 3.40989 35.0053 3.21201 35.0053C2.60427 35.0053 2.07243 34.7964 1.6165 34.3788C1.16058 33.9607 0.932617 33.4098 0.932617 32.7259Z" fill="white"/>
</svg>
