<svg width="55" height="23" viewBox="0 0 55 23" fill="none" xmlns="http://www.w3.org/2000/svg">
<path d="M54.6414 4.09707C54.6414 4.07715 54.6214 4.07715 54.6214 4.05722C54.4621 3.71851 54.2429 3.41965 53.964 3.18057C53.944 3.16064 53.9241 3.14072 53.9042 3.1208C53.8843 3.10087 53.8643 3.08095 53.8444 3.06102C53.8245 3.0411 53.7846 3.00125 53.7647 2.98133C53.7448 2.9614 53.7249 2.94148 53.7049 2.92156C53.685 2.90163 53.6651 2.88171 53.6452 2.86178C53.6252 2.84186 53.5854 2.80201 53.5655 2.78209C53.5455 2.76216 53.5256 2.74224 53.5057 2.72232C53.4858 2.70239 53.4659 2.68247 53.4459 2.66254C53.426 2.64262 53.3862 2.60277 53.3662 2.58285C53.3463 2.56292 53.3264 2.543 53.3065 2.52308C53.2865 2.50315 53.2666 2.48323 53.2467 2.4633C53.2268 2.44338 53.1869 2.40353 53.167 2.38361C53.1471 2.36368 53.1271 2.34376 53.1072 2.32384C53.0873 2.30391 53.0674 2.28399 53.0475 2.26406C53.0275 2.24414 52.9877 2.20429 52.9678 2.18437C52.9478 2.16444 52.9279 2.14452 52.908 2.1246C52.8881 2.10467 52.8681 2.08475 52.8482 2.06482C52.8283 2.0449 52.7884 2.00505 52.7685 1.98513C52.7486 1.9652 52.7287 1.94528 52.7087 1.92536C52.6888 1.90543 52.6689 1.88551 52.649 1.86558C52.629 1.84566 52.5892 1.80581 52.5693 1.78589C52.5493 1.76596 52.5294 1.74604 52.5095 1.72612C52.4896 1.70619 52.4697 1.68627 52.4497 1.66634C52.4298 1.64642 52.39 1.60657 52.37 1.58665C52.3501 1.56672 52.3302 1.5468 52.3103 1.52688C52.2106 1.42726 52.111 1.32764 51.9915 1.24794C51.3738 0.769765 50.6167 0.530677 49.8596 0.550601H45.7354C45.4564 0.550601 45.1775 0.570525 44.8985 0.630297C44.5997 0.550601 44.2809 0.510753 43.9422 0.510753C43.3644 0.510753 42.7866 0.630297 42.2487 0.889309C41.8103 0.670145 41.3122 0.550601 40.7942 0.550601H38.4631C38.2639 0.550601 38.0646 0.570525 37.8853 0.590449C37.706 0.550601 37.5067 0.550601 37.3274 0.550601H35.1358C34.8569 0.550601 34.5779 0.570525 34.299 0.630297C34.0798 0.590449 33.8407 0.550601 33.5817 0.550601H28.1624C27.8635 0.550601 27.5647 0.570525 27.2857 0.630297C27.0267 0.570525 26.7677 0.530677 26.5087 0.550601H24.3171C23.9584 0.550601 23.6197 0.590449 23.281 0.690069C22.9822 0.590449 22.6434 0.550601 22.3247 0.550601C21.9461 0.550601 21.5676 0.610373 21.2089 0.729917C20.671 0.570525 20.1131 0.510753 19.5552 0.510753C18.6587 0.490829 17.7621 0.729917 16.9651 1.20809C16.1283 0.690069 15.1321 0.411133 13.9964 0.411133C13.0202 0.411133 12.0439 0.610373 11.1473 1.00885C10.968 1.08855 10.7887 1.18817 10.6094 1.28779C9.85225 0.809613 8.91582 0.550601 7.83993 0.550601H4.77164C4.31338 0.550601 3.83521 0.630297 3.39688 0.789689C2.59992 1.10847 1.98228 1.78589 1.74319 2.60277L1.72327 2.66254L1.70334 2.72232C1.64357 2.9614 1.60372 3.22041 1.60372 3.4595C1.60372 3.69859 1.62365 3.91775 1.68342 4.15684L0.886459 6.98605C0.866535 7.00597 0.846611 7.0259 0.826687 7.04582C0.727067 7.14544 0.647371 7.24506 0.567675 7.34468C-0.149589 8.30103 -0.169513 9.53632 0.408283 10.5126C0.547751 10.7716 0.746991 10.9908 0.966155 11.19C1.02593 11.2498 1.0857 11.3295 1.16539 11.3892C1.22517 11.449 1.28494 11.5287 1.36463 11.5885C1.42441 11.6483 1.48418 11.728 1.56387 11.7877C1.62365 11.8475 1.68342 11.9272 1.76311 11.987C1.82289 12.0667 1.90258 12.1264 1.98228 12.1862C2.04205 12.246 2.10182 12.3257 2.18152 12.3854C2.24129 12.4452 2.30106 12.5249 2.38076 12.5847C2.46045 12.6644 2.54015 12.7441 2.61985 12.8238L2.63977 12.8437L2.65969 12.8636C2.73939 12.9433 2.83901 13.023 2.93863 13.1027C3.45665 13.4613 4.05437 13.6606 4.67202 13.6805L4.05437 15.8323C3.47658 16.3902 3.15779 17.1473 3.13787 17.9442C3.13787 18.6615 3.39688 19.319 3.87506 19.837C3.95475 19.9366 4.05437 20.0363 4.15399 20.116C4.21376 20.1757 4.27354 20.2554 4.35323 20.3152C4.413 20.375 4.47278 20.4547 4.55247 20.5144C4.61224 20.5742 4.67202 20.6539 4.75171 20.7137C4.81148 20.7734 4.87126 20.8531 4.95095 20.9129C5.01072 20.9727 5.0705 21.0524 5.15019 21.1122C5.20996 21.1719 5.26974 21.2516 5.34943 21.3114C5.4092 21.3712 5.46898 21.4509 5.54867 21.5106C5.60844 21.5903 5.68814 21.6501 5.76784 21.7298C5.82761 21.7696 5.86746 21.8294 5.92723 21.8693C5.94715 21.8693 5.94715 21.8892 5.96707 21.8892C6.06669 21.9689 6.16631 22.0486 6.28586 22.1084C6.78396 22.4072 7.36175 22.5666 7.93955 22.5666H8.71658C9.17484 22.5666 9.63309 22.5068 10.0515 22.3275C10.43 22.4869 10.8285 22.5666 11.2469 22.5666C11.6454 22.5666 12.0439 22.5068 12.4224 22.3674C12.801 22.5068 13.1995 22.5666 13.598 22.5666H15.7896C16.1084 22.5666 16.4272 22.5268 16.746 22.4471C17.0448 22.5268 17.3437 22.5666 17.6425 22.5666H19.8342C20.1729 22.5666 20.4917 22.5268 20.8104 22.4471C21.0894 22.5268 21.3683 22.5666 21.6871 22.5666H22.7032C23.1615 22.5666 23.6197 22.4869 24.0381 22.3275C24.1975 22.2677 24.337 22.1881 24.4765 22.1084C25.0343 22.4271 25.652 22.6065 26.2895 22.5865C26.7478 22.6065 27.206 22.5068 27.6244 22.3474C27.9831 22.467 28.3417 22.5467 28.7203 22.5268H31.3502C32.3066 22.5467 33.2629 22.4271 34.1794 22.1482C34.6576 22.4072 35.1756 22.5467 35.7335 22.5268H40.1766C40.4953 22.5268 40.8141 22.4869 41.113 22.4271C41.372 22.4869 41.631 22.5268 41.89 22.5068H44.52C45.5162 22.5268 46.5124 22.3873 47.4488 22.0884C48.445 21.7696 49.3217 21.1719 49.9991 20.355C50.6167 19.5581 51.075 18.6615 51.3141 17.6852C51.4934 17.0676 51.593 16.4499 51.593 15.8124C51.6129 15.0154 51.4137 14.2185 51.0351 13.541C51.4934 13.4414 51.9317 13.2621 52.3103 12.9832C52.9478 12.5249 53.3862 11.8475 53.5854 11.0904L53.8643 10.1141C53.944 9.83518 53.9839 9.53632 53.9839 9.25738C53.9839 9.0183 53.964 8.77921 53.9042 8.56004C54.2628 8.16156 54.5218 7.68339 54.6414 7.16536L54.8605 6.32856C54.9601 6.00977 55 5.69099 55 5.35228C54.9602 4.99365 54.8605 4.51547 54.6414 4.09707Z" fill="#485BEA"/>
<path d="M9.37396 3.57935C9.73259 3.85828 9.93183 4.27668 9.91191 4.71501C9.91191 4.91425 9.89198 5.11349 9.83221 5.29281C9.69274 5.8706 9.31419 6.3687 8.79616 6.66756C8.19844 6.98635 7.52103 7.14574 6.86354 7.10589H5.90719L5.5884 8.24156C5.56848 8.28141 5.56848 8.34118 5.56848 8.40095C5.56848 8.48065 5.5884 8.56034 5.62825 8.62011C5.68802 8.69981 5.74779 8.75958 5.80757 8.81935C5.84741 8.8592 5.90719 8.91897 5.94703 8.95882C5.96696 8.99867 5.98688 9.03852 5.98688 9.07837C5.98688 9.17799 5.92711 9.2776 5.82749 9.29753C5.68802 9.3573 5.54855 9.37723 5.38916 9.3573H3.05806C2.93851 9.3573 2.79904 9.33738 2.69942 9.27761C2.61973 9.21783 2.57988 9.11821 2.5998 9.01859C2.5998 8.95882 2.63965 8.91897 2.6795 8.87913C2.71935 8.83928 2.77912 8.79943 2.83889 8.75958C2.93851 8.69981 3.01821 8.64004 3.0979 8.56034C3.1776 8.46072 3.21745 8.3611 3.23737 8.24156L4.37304 4.23684C4.39296 4.15714 4.39296 4.07744 4.39296 3.99775C4.39296 3.93798 4.37304 3.87821 4.35311 3.81843C4.33319 3.77859 4.29334 3.71881 4.27342 3.65904C4.23357 3.59927 4.19372 3.5395 4.19372 3.4598C4.19372 3.41995 4.19372 3.40003 4.21365 3.36018C4.23357 3.28049 4.29334 3.22071 4.37304 3.18087C4.49258 3.14102 4.63205 3.12109 4.75159 3.12109H7.83981C8.4973 3.14102 9.01533 3.28049 9.37396 3.57935ZM7.72027 4.51577C7.72027 4.15714 7.56088 3.97782 7.22217 3.97782H6.78384L6.12635 6.26908H6.54475C6.78384 6.26908 7.003 6.18939 7.18232 6.03C7.40148 5.77098 7.54095 5.4522 7.62065 5.11349C7.6605 4.93418 7.70034 4.71501 7.72027 4.51577Z" fill="#4070D9"/>
<path d="M15.8292 3.55924C16.2675 3.9378 16.4866 4.45582 16.4866 5.15316C16.4866 5.51179 16.4269 5.87042 16.3273 6.20913C16.1679 6.8467 15.869 7.46434 15.4705 7.98237C15.092 8.46054 14.6138 8.81917 14.0758 9.07818C13.518 9.3372 12.9202 9.45674 12.3225 9.45674C11.5455 9.45674 10.9478 9.27742 10.4895 8.89887C10.0313 8.52031 9.83203 8.00229 9.83203 7.30495C9.83203 6.94632 9.8918 6.56776 9.99142 6.20913C10.1508 5.57156 10.4298 4.97384 10.8482 4.45582C11.2267 3.97764 11.7049 3.61901 12.2428 3.36C12.8007 3.10099 13.3984 2.98145 13.9961 2.98145C14.7732 3.00137 15.3908 3.18069 15.8292 3.55924ZM13.3187 4.13704C13.1195 4.3562 12.98 4.59529 12.8804 4.87422C12.7011 5.33248 12.5417 5.81065 12.4022 6.28883C12.1631 7.16548 12.0237 7.7632 12.0237 8.08199C12.0037 8.22145 12.0436 8.38085 12.1233 8.50039C12.203 8.60001 12.3225 8.63986 12.4421 8.63986C12.6214 8.63986 12.8007 8.56016 12.9402 8.42069C13.1195 8.20153 13.2789 7.96244 13.3785 7.68351C13.5578 7.22525 13.7172 6.767 13.8567 6.28883C14.0559 5.71103 14.1755 5.11331 14.2153 4.49567C14.2352 4.33628 14.1954 4.19681 14.1157 4.07726C14.036 3.97764 13.9164 3.9378 13.7969 3.9378C13.6176 3.91787 13.4582 3.99757 13.3187 4.13704Z" fill="#4070D9"/>
<path d="M20.5313 3.22052C20.8501 3.32014 21.1489 3.43969 21.4279 3.619L21.647 3.43969C21.7666 3.34007 21.8861 3.26037 22.0057 3.2006C22.1053 3.16075 22.2248 3.14083 22.3444 3.14083C22.4639 3.14083 22.5835 3.16075 22.703 3.24045C22.7827 3.30022 22.8425 3.41976 22.8425 3.51938C22.8425 3.57915 22.8425 3.619 22.8225 3.67877L22.4241 4.95391C22.4041 5.07345 22.3444 5.17307 22.2647 5.27269C22.185 5.33246 22.0854 5.37231 21.9658 5.37231C21.8263 5.37231 21.7068 5.33246 21.6072 5.25277C21.4279 5.09338 21.2685 4.91406 21.129 4.73475C20.9696 4.53551 20.7704 4.35619 20.5512 4.21672C20.3918 4.1171 20.1926 4.05733 20.0133 4.05733C19.8937 4.05733 19.7543 4.09718 19.6746 4.1968C19.5749 4.27649 19.5351 4.39604 19.5351 4.53551C19.5351 4.6949 19.6347 4.85429 19.7543 4.95391C19.9734 5.13322 20.2125 5.29262 20.4516 5.43209C20.7704 5.63133 21.0493 5.79072 21.2486 5.95011C21.4677 6.1095 21.647 6.30874 21.7865 6.5279C21.9459 6.76699 22.0256 7.04593 22.0057 7.32486C22.0057 7.5241 21.9658 7.72334 21.906 7.90266C21.7666 8.36091 21.4478 8.75939 21.0493 8.99848C20.5911 9.25749 20.093 9.39696 19.555 9.39696C19.1964 9.39696 18.8178 9.35711 18.4791 9.23757C18.1603 9.11802 17.8615 8.95863 17.5825 8.73947L17.2438 9.0184C17.1243 9.11802 17.0047 9.21764 16.8653 9.27741C16.7657 9.31726 16.6461 9.35711 16.5266 9.33719C16.407 9.33719 16.2875 9.31726 16.1879 9.23757C16.1082 9.17779 16.0484 9.05825 16.0683 8.95863C16.0683 8.89886 16.0882 8.81916 16.1082 8.75939L16.5664 7.36471C16.6063 7.22524 16.666 7.1057 16.7657 7.026C16.8653 6.94631 16.9848 6.92638 17.1044 6.92638C17.2438 6.92638 17.3833 6.98616 17.4829 7.08578C17.6622 7.24517 17.8017 7.42448 17.9412 7.62372C18.0806 7.86281 18.2799 8.06205 18.499 8.22144C18.6784 8.34099 18.8776 8.40076 19.0968 8.38083C19.2362 8.38083 19.3558 8.36091 19.4753 8.30114C19.5749 8.24137 19.6347 8.16167 19.6746 8.04213C19.6945 8.00228 19.6945 7.94251 19.6945 7.90266C19.6945 7.74327 19.6148 7.58388 19.4753 7.50418C19.2761 7.34479 19.0569 7.1854 18.8178 7.06585C18.499 6.86661 18.24 6.70722 18.0408 6.54783C17.8415 6.38844 17.6622 6.1892 17.5228 5.97003C17.3634 5.73094 17.3036 5.45201 17.3036 5.15315C17.3036 4.93399 17.3435 4.71482 17.4032 4.51558C17.5427 4.07725 17.8216 3.71862 18.2002 3.47953C18.6186 3.22052 19.0968 3.08105 19.5949 3.08105C19.8937 3.08105 20.2125 3.1209 20.5313 3.22052Z" fill="#4070D9"/>
<path d="M26.8472 3.20081C26.9069 3.24066 26.9468 3.30043 26.9468 3.38013C26.9468 3.41998 26.9269 3.45983 26.9269 3.49967C26.9069 3.53952 26.887 3.57937 26.8472 3.61922C26.8273 3.63914 26.7874 3.67899 26.7476 3.69891C26.7276 3.71884 26.7077 3.71884 26.6878 3.73876C26.5882 3.77861 26.5085 3.85831 26.4487 3.91808C26.369 4.0177 26.3292 4.11732 26.2893 4.23686L25.1536 8.24158C25.1337 8.32128 25.1138 8.40097 25.1138 8.48067C25.1138 8.54044 25.1138 8.60021 25.1536 8.65999C25.1736 8.71976 25.2134 8.77953 25.2533 8.81938C25.2931 8.87915 25.333 8.93892 25.333 9.01862C25.333 9.05847 25.313 9.07839 25.313 9.11824C25.2931 9.19793 25.2333 9.27763 25.1536 9.29755C25.0341 9.3374 24.8946 9.35733 24.7552 9.35733H22.5635C22.4639 9.35733 22.3643 9.3374 22.2647 9.29755C22.2049 9.2577 22.165 9.19793 22.165 9.11824C22.165 9.07839 22.185 9.03854 22.185 8.99869C22.2049 8.93892 22.2447 8.87915 22.3045 8.8393L22.4041 8.77953C22.4838 8.71976 22.5834 8.65999 22.6432 8.58029C22.7229 8.48067 22.7827 8.38105 22.8026 8.26151L23.9383 4.25678C23.9582 4.17709 23.9781 4.09739 23.9781 4.0177C23.9781 3.95793 23.9781 3.89815 23.9383 3.83838C23.9184 3.79853 23.8785 3.73876 23.8586 3.67899C23.8187 3.61922 23.7789 3.55945 23.7789 3.47975C23.7789 3.4399 23.7789 3.41998 23.7988 3.38013C23.8187 3.30043 23.8785 3.24066 23.9582 3.20081C24.0777 3.16097 24.2172 3.14104 24.3368 3.14104H26.5284C26.6479 3.12112 26.7476 3.16097 26.8472 3.20081Z" fill="#4070D9"/>
<path d="M34.1197 3.55908C34.1197 3.67862 34.0998 3.77824 34.0599 3.87786L33.8408 4.63498C33.8009 4.81429 33.7212 4.97368 33.5818 5.11315C33.4622 5.21277 33.3028 5.27254 33.1633 5.25262C33.0239 5.25262 32.9043 5.21277 32.8047 5.13308C32.7051 5.01353 32.6254 4.89399 32.5656 4.75452L32.4062 4.37596C32.3664 4.27634 32.3265 4.19665 32.2468 4.13688C32.1671 4.09703 32.0875 4.05718 31.9878 4.0771H31.7687L30.5932 8.24122C30.5732 8.32091 30.5732 8.38069 30.5732 8.46038C30.5732 8.52015 30.5732 8.57993 30.6131 8.6397C30.633 8.69947 30.6729 8.75924 30.7127 8.79909C30.7525 8.85886 30.7924 8.93856 30.7924 9.01825C30.7924 9.0581 30.7924 9.07802 30.7725 9.11787C30.7326 9.19757 30.6728 9.25734 30.5932 9.29719C30.4736 9.33704 30.3341 9.35696 30.2146 9.35696H28.023C27.9233 9.35696 27.8038 9.33704 27.7241 9.29719C27.6643 9.25734 27.6046 9.17764 27.6245 9.11787C27.6245 9.07802 27.6245 9.03818 27.6444 8.99833C27.6643 8.95848 27.6843 8.89871 27.7241 8.87879C27.7639 8.83894 27.8237 8.79909 27.8835 8.77917C27.9632 8.71939 28.0429 8.65962 28.1226 8.59985C28.2023 8.50023 28.2421 8.40061 28.282 8.28107L29.4575 4.11695H29.2383C29.1188 4.11695 28.9992 4.13688 28.8996 4.17672C28.8 4.2365 28.7004 4.31619 28.6207 4.41581L28.3218 4.79437C28.2023 4.93384 28.0628 5.0733 27.9034 5.17292C27.7839 5.25262 27.6245 5.29247 27.4651 5.29247C27.3455 5.29247 27.226 5.25262 27.1264 5.17292C27.0467 5.09323 27.0068 4.97368 27.0068 4.87406C27.0068 4.81429 27.0268 4.7346 27.0268 4.67482L27.2658 3.83802C27.3057 3.69855 27.3655 3.55908 27.4252 3.43954C27.485 3.33992 27.5846 3.28015 27.6843 3.2403C27.8436 3.20045 28.003 3.18053 28.1624 3.18053H33.5818C33.9603 3.14068 34.1197 3.28015 34.1197 3.55908Z" fill="#4070D9"/>
<path d="M37.6661 3.20081C37.7259 3.24066 37.7657 3.30043 37.7657 3.38013C37.7657 3.41998 37.7458 3.45983 37.7458 3.49967C37.7259 3.53952 37.706 3.57937 37.6661 3.61922C37.6462 3.63914 37.6063 3.67899 37.5665 3.69891C37.5466 3.71884 37.5266 3.71884 37.5067 3.73876C37.4071 3.77861 37.3274 3.85831 37.2676 3.91808C37.1879 4.0177 37.1481 4.11732 37.1082 4.23686L35.9925 8.24158C35.9726 8.32128 35.9527 8.40097 35.9527 8.48067C35.9527 8.54044 35.9527 8.60021 35.9925 8.65999C36.0124 8.71976 36.0523 8.77953 36.0921 8.81938C36.132 8.87915 36.1718 8.93892 36.1718 9.01862C36.1718 9.05847 36.1519 9.07839 36.1519 9.11824C36.132 9.19793 36.0722 9.27763 35.9925 9.29755C35.873 9.3374 35.7335 9.35733 35.594 9.35733H33.4024C33.3028 9.35733 33.2031 9.3374 33.1035 9.29755C33.0438 9.2577 33.0039 9.19793 33.0039 9.11824C33.0039 9.07839 33.0238 9.03854 33.0238 8.99869C33.0438 8.93892 33.0836 8.87915 33.1434 8.8393L33.243 8.77953C33.3227 8.71976 33.4223 8.65999 33.4821 8.58029C33.5618 8.48067 33.6215 8.38105 33.6415 8.26151L34.7771 4.25678C34.7971 4.17709 34.817 4.09739 34.817 4.0177C34.817 3.95793 34.817 3.89815 34.7771 3.83838C34.7572 3.79853 34.7174 3.73876 34.6974 3.67899C34.6576 3.61922 34.6177 3.55945 34.6177 3.47975C34.6177 3.4399 34.6177 3.41998 34.6377 3.38013C34.6576 3.30043 34.7174 3.24066 34.7971 3.20081C34.9166 3.16097 35.0561 3.14104 35.1756 3.14104H37.3673C37.4669 3.12112 37.5665 3.16097 37.6661 3.20081Z" fill="#4070D9"/>
<path d="M44.7589 4.61499C44.6792 4.77438 44.5397 4.89392 44.4003 4.97362C44.2608 5.05332 44.1014 5.09316 43.962 5.09316C43.683 5.09316 43.424 4.97362 43.2447 4.75446L40.9933 8.54001C40.8737 8.75918 40.7143 8.97834 40.535 9.15766C40.3956 9.2772 40.2362 9.33697 40.0568 9.33697C39.8775 9.33697 39.7181 9.2772 39.5986 9.13773C39.4591 8.95842 39.3794 8.75918 39.3595 8.54001L38.5825 4.23643C38.5626 4.13681 38.5426 4.03719 38.4829 3.9575C38.4231 3.8778 38.3633 3.79811 38.2836 3.73833C38.2438 3.69849 38.184 3.65864 38.1441 3.59887C38.1242 3.55902 38.1043 3.51917 38.1043 3.47932C38.0644 3.26016 38.2039 3.14061 38.5227 3.14061H40.8538C40.9734 3.14061 41.0929 3.16054 41.1726 3.22031C41.2523 3.28008 41.2921 3.35978 41.2722 3.4594C41.2722 3.49925 41.2523 3.55902 41.2324 3.59887C41.2124 3.65864 41.1726 3.69849 41.1327 3.73833C41.0929 3.79811 41.0331 3.85788 40.9933 3.91765C40.9534 3.97742 40.9534 4.05712 40.9534 4.11689C40.9534 4.15674 40.9534 4.17666 40.9734 4.21651L41.332 6.38822L42.5673 4.19659C42.7267 3.8778 42.9458 3.59887 43.2048 3.35978C43.424 3.20039 43.7029 3.10077 43.9819 3.12069C44.2409 3.10077 44.48 3.20039 44.6593 3.35978C44.8386 3.53909 44.9382 3.79811 44.9183 4.03719C44.8984 4.23643 44.8585 4.43567 44.7589 4.61499Z" fill="#4070D9"/>
<path d="M50.4173 3.29997C50.5369 3.39959 50.6166 3.55898 50.5966 3.71837C50.5966 3.79807 50.5767 3.89769 50.5568 3.97739L50.3177 4.83412C50.2978 4.97359 50.2181 5.09313 50.1384 5.19275C50.0388 5.27244 49.8993 5.29237 49.7798 5.29237C49.6602 5.29237 49.5407 5.27244 49.4211 5.19275C49.3215 5.11305 49.2617 4.99351 49.2219 4.87397L49.0625 4.33602C49.0426 4.25632 49.0027 4.17663 48.943 4.11685C48.8633 4.07701 48.7836 4.05708 48.6839 4.05708H47.7077L47.2494 5.71077H47.6678C47.7276 5.69085 47.8073 5.67092 47.8471 5.61115L48.1659 5.33222C48.2456 5.27244 48.3253 5.21267 48.405 5.1529C48.4847 5.11305 48.5644 5.09313 48.664 5.09313C48.7636 5.09313 48.8633 5.11305 48.943 5.17282C49.0027 5.2326 49.0426 5.31229 49.0426 5.39199C49.0426 5.43184 49.0426 5.47168 49.0226 5.51153L48.6441 6.80659C48.6242 6.92614 48.5445 7.02576 48.4449 7.10545C48.3652 7.16522 48.2655 7.20507 48.146 7.20507C47.9667 7.20507 47.8073 7.10545 47.7475 6.94606L47.608 6.62728C47.5682 6.54758 47.4885 6.48781 47.4088 6.48781H47.0502L46.4923 8.46028H47.3092C47.4088 8.46028 47.5084 8.44036 47.608 8.40051C47.7276 8.34074 47.8272 8.26104 47.9069 8.16142L48.4648 7.54378C48.5445 7.44416 48.6441 7.38439 48.7437 7.32462C48.8433 7.26484 48.9629 7.24492 49.0824 7.26484C49.202 7.26484 49.3215 7.28477 49.4211 7.36446C49.5008 7.42424 49.5606 7.54378 49.5407 7.6434C49.5407 7.70317 49.5207 7.76294 49.5207 7.82272L49.2418 8.75914C49.202 8.95838 49.1023 9.11777 48.943 9.25724C48.7636 9.35686 48.5843 9.41663 48.3851 9.39671H43.962C43.8623 9.39671 43.7428 9.37679 43.6631 9.33694C43.6033 9.29709 43.5635 9.23732 43.5635 9.15762C43.5635 9.11777 43.5635 9.07793 43.5834 9.03808C43.6033 8.97831 43.6432 8.91853 43.7029 8.87869C43.7428 8.85876 43.7627 8.83884 43.8026 8.81891C43.8823 8.75914 43.9819 8.69937 44.0417 8.61967C44.1213 8.52005 44.1811 8.42043 44.201 8.30089L45.3367 4.29617C45.3566 4.21647 45.3766 4.1567 45.3766 4.07701C45.3766 4.01723 45.3766 3.95746 45.3367 3.89769C45.3168 3.83792 45.2769 3.77815 45.2371 3.7383C45.1972 3.67853 45.1574 3.61875 45.1574 3.53906C45.1574 3.49921 45.1574 3.47929 45.1773 3.43944C45.1972 3.35974 45.257 3.29997 45.3367 3.26012C45.4563 3.22027 45.5957 3.20035 45.7153 3.20035H49.8395C50.0587 3.12065 50.2579 3.18043 50.4173 3.29997Z" fill="#4070D9"/>
<path d="M16.0683 12.0871C16.128 12.1269 16.1679 12.1867 16.1679 12.2664C16.1679 12.3062 16.148 12.3461 16.148 12.3859C16.128 12.4258 16.1081 12.4856 16.0683 12.5055C16.0284 12.5453 15.9687 12.5852 15.9089 12.6051C15.8292 12.6449 15.7296 12.7246 15.6698 12.7844C15.5901 12.884 15.5503 12.9837 15.5104 13.1032L14.3747 17.1079C14.3747 17.1876 14.3548 17.2673 14.3548 17.347C14.3548 17.4068 14.3548 17.4665 14.3947 17.5263C14.4146 17.5861 14.4544 17.6259 14.4744 17.6857C14.4943 17.7256 14.5142 17.7455 14.5341 17.7853C14.5541 17.8252 14.5541 17.865 14.5541 17.885C14.5541 17.9248 14.5541 17.9447 14.5341 17.9846C14.5142 18.0643 14.4345 18.124 14.3548 18.1639C14.2353 18.2037 14.0958 18.2237 13.9763 18.2237H11.7846C11.685 18.2237 11.5854 18.2037 11.4858 18.1639C11.426 18.124 11.3861 18.0643 11.3861 17.9846C11.3861 17.9447 11.4061 17.9049 11.4061 17.865C11.426 17.8252 11.4459 17.7853 11.4858 17.7455C11.5057 17.7256 11.5455 17.6857 11.5854 17.6658C11.6053 17.6459 11.6252 17.6459 11.6452 17.6259C11.7448 17.5861 11.8245 17.5064 11.8842 17.4466C11.9639 17.347 12.0038 17.2474 12.0436 17.1278L12.7609 14.5975L10.37 17.5861C10.2306 17.7654 10.0712 17.9447 9.89184 18.0842C9.7723 18.1639 9.63283 18.2237 9.47344 18.2237C9.33397 18.2237 9.21443 18.1838 9.11481 18.0842C9.01519 17.9447 8.93549 17.7654 8.89564 17.606L8.01899 14.737L7.32165 17.1478C7.30173 17.2275 7.2818 17.2872 7.2818 17.3669C7.2818 17.4267 7.2818 17.4865 7.32165 17.5462C7.34157 17.606 7.38142 17.6658 7.42127 17.7056C7.46112 17.7654 7.50096 17.8252 7.50096 17.9049C7.50096 17.9447 7.50096 17.9646 7.48104 18.0045C7.46112 18.0842 7.40135 18.1639 7.32165 18.1838C7.20211 18.2237 7.06264 18.2436 6.92317 18.2436H6.16606C6.06644 18.2436 5.94689 18.2237 5.8672 18.1838C5.80743 18.144 5.76758 18.0842 5.76758 18.0045C5.76758 17.9646 5.7875 17.9248 5.7875 17.885C5.80743 17.8252 5.84727 17.7654 5.90705 17.7256L6.00667 17.6658C6.08636 17.606 6.18598 17.5462 6.24575 17.4665C6.32545 17.3669 6.38522 17.2673 6.40515 17.1478L7.54081 13.1231L7.38142 12.6051C7.34157 12.5254 7.34157 12.4258 7.34157 12.3461C7.34157 12.2465 7.38142 12.1668 7.44119 12.107C7.54081 12.0472 7.66036 12.0273 7.7799 12.0273H9.21443C9.3539 12.0074 9.51329 12.0671 9.63283 12.1468C9.75237 12.2664 9.81215 12.4059 9.85199 12.5652L10.7685 15.6535L13.2988 12.5254C13.4184 12.366 13.5778 12.2265 13.777 12.1269C13.9763 12.0472 14.1755 12.0273 14.3947 12.0273H15.7893C15.889 12.0273 15.9886 12.0472 16.0683 12.0871Z" fill="#4070D9"/>
<path d="M20.1128 12.0865C20.1726 12.1264 20.2124 12.1862 20.2124 12.2658C20.2124 12.3057 20.1925 12.3455 20.1726 12.3854C20.1526 12.4252 20.1327 12.4651 20.0929 12.5049C20.073 12.5249 20.0331 12.5647 19.9933 12.5846C19.9733 12.6046 19.9534 12.6046 19.9335 12.6245C19.8339 12.6643 19.7542 12.744 19.6944 12.8038C19.6147 12.9034 19.5749 13.003 19.535 13.1226L18.4193 17.1273C18.3993 17.207 18.3794 17.2668 18.3794 17.3465C18.3794 17.4062 18.3794 17.466 18.4193 17.5258C18.4392 17.5856 18.479 17.6453 18.5189 17.6852C18.5587 17.7449 18.5986 17.8047 18.5986 17.8844C18.5986 17.9243 18.5986 17.9442 18.5787 17.984C18.5587 18.0637 18.499 18.1434 18.4193 18.1633C18.2997 18.2032 18.1602 18.2231 18.0208 18.2231H15.8291C15.7295 18.2231 15.6299 18.2032 15.5303 18.1633C15.4705 18.1235 15.4307 18.0637 15.4307 17.984C15.4307 17.9442 15.4506 17.9043 15.4506 17.8645C15.4705 17.8047 15.5104 17.7449 15.5701 17.7051L15.6698 17.6453C15.7494 17.5856 15.8491 17.5258 15.9088 17.4461C15.9885 17.3465 16.0483 17.2468 16.0682 17.1273L17.2039 13.1226C17.2238 13.0429 17.2437 12.9632 17.2437 12.8835C17.2437 12.8237 17.2437 12.7639 17.2039 12.7042C17.184 12.6444 17.1441 12.6046 17.1242 12.5448C17.0844 12.485 17.0445 12.4252 17.0445 12.3455C17.0445 12.3057 17.0445 12.2658 17.0644 12.2459C17.0844 12.1662 17.1441 12.1065 17.2238 12.0666C17.3434 12.0268 17.4828 12.0068 17.6024 12.0068H19.794C19.9335 12.0068 20.0331 12.0268 20.1128 12.0865Z" fill="#4070D9"/>
<path d="M27.3458 12.2658C27.3458 12.3455 27.3258 12.4451 27.2461 12.5048C27.1864 12.5447 27.1465 12.5845 27.0867 12.6244C27.007 12.6842 26.9273 12.7439 26.8477 12.8037C26.768 12.9033 26.7082 13.0029 26.6883 13.1225L25.5327 17.2468C25.4729 17.5456 25.3334 17.8046 25.1342 18.0238C24.9549 18.1832 24.7357 18.2629 24.4966 18.243C24.2775 18.243 24.0583 18.1633 23.879 18.0238C23.6797 17.8246 23.5203 17.6054 23.4207 17.3464L22.026 14.3976L21.249 17.1073C21.2291 17.187 21.2291 17.2468 21.2291 17.3265C21.2291 17.3862 21.249 17.4659 21.2689 17.5257C21.3088 17.5855 21.3486 17.6452 21.3885 17.6851C21.4483 17.7449 21.4881 17.8046 21.4881 17.8843C21.4881 17.9042 21.4881 17.9441 21.4881 17.964C21.4682 18.0437 21.4084 18.1234 21.3287 18.1433C21.2092 18.1832 21.0697 18.2031 20.9302 18.2031H19.8942C19.6352 18.2031 19.5156 18.1234 19.5156 17.964C19.5156 17.9242 19.5156 17.9042 19.5355 17.8644C19.5555 17.8046 19.5754 17.7648 19.6152 17.7249C19.6551 17.6851 19.7149 17.6452 19.7746 17.6054C19.8543 17.5456 19.934 17.4858 20.0137 17.4261C20.0934 17.3265 20.1333 17.2268 20.1731 17.1073L21.3486 12.9233L21.1892 12.6244C21.1295 12.5248 21.1095 12.4052 21.0896 12.3056C21.0896 12.1064 21.2092 12.0067 21.4682 12.0067H22.8429C23.0023 11.9868 23.1617 12.0466 23.3012 12.1462C23.4406 12.2857 23.5403 12.4451 23.6399 12.6244L24.9947 15.354L25.6323 13.1026C25.6522 13.0229 25.6522 12.9631 25.6522 12.8834C25.6522 12.8236 25.6323 12.7439 25.6124 12.6842C25.5725 12.6244 25.5327 12.5646 25.4928 12.5248C25.433 12.465 25.3932 12.4052 25.3932 12.3255C25.3932 12.3056 25.3932 12.2658 25.4131 12.2458C25.433 12.1661 25.4928 12.0864 25.5725 12.0665C25.6921 12.0267 25.8315 12.0067 25.971 12.0067H26.9871C27.2262 12.0267 27.3458 12.1064 27.3458 12.2658Z" fill="#4070D9"/>
<path d="M33.323 12.5647C33.8012 12.9233 34.0402 13.4414 34.0402 14.1387C34.0402 14.5372 33.9605 14.9357 33.8609 15.3142C33.7015 15.9319 33.4226 16.5097 33.0241 17.0277C32.6655 17.466 32.1873 17.7848 31.6494 17.9442C30.952 18.1633 30.2148 18.243 29.4777 18.2231H26.9473C26.8477 18.2231 26.7281 18.2032 26.6484 18.1633C26.5887 18.1235 26.5488 18.0637 26.5488 17.984C26.5488 17.9442 26.5488 17.9043 26.5688 17.8645C26.5887 17.8246 26.6086 17.7848 26.6484 17.7449L26.8078 17.6453C26.8875 17.6055 26.9872 17.5258 27.0469 17.466C27.1266 17.3664 27.1665 17.2668 27.2063 17.1472L28.342 13.1226C28.3619 13.0429 28.3818 12.9632 28.3818 12.8835C28.3818 12.8237 28.3818 12.7639 28.342 12.7042C28.3221 12.6444 28.2822 12.6046 28.2623 12.5448C28.2224 12.485 28.1826 12.4252 28.1826 12.3455C28.1826 12.3057 28.1826 12.2658 28.2025 12.2459C28.2224 12.1662 28.2822 12.1065 28.3619 12.0666C28.4815 12.0268 28.6209 12.0068 28.7405 12.0068H31.2509C32.1475 12.0268 32.8448 12.2061 33.323 12.5647ZM31.7091 13.7402C31.7091 13.4214 31.6494 13.1824 31.5099 13.0628C31.3505 12.9233 31.1313 12.8636 30.9321 12.8835H30.7329L29.4777 17.4062H29.6968C29.9558 17.4062 30.1949 17.3465 30.4141 17.2269C30.6532 17.0476 30.8325 16.8284 30.952 16.5495C31.1712 16.0913 31.3505 15.6131 31.4701 15.115C31.6095 14.6567 31.6892 14.1985 31.7091 13.7402Z" fill="#4070D9"/>
<path d="M40.3757 12.1661C40.4953 12.2658 40.575 12.4052 40.575 12.5646C40.575 12.6443 40.555 12.7439 40.5351 12.8236L40.296 13.6804C40.2761 13.8198 40.1964 13.9394 40.0968 14.039C39.9972 14.1187 39.8577 14.1386 39.7382 14.1386C39.6186 14.1386 39.4991 14.1187 39.3795 14.039C39.2799 13.9593 39.2201 13.8398 39.1803 13.7202L39.0209 13.1823C39.001 13.1026 38.9611 13.0229 38.9014 12.9631C38.8217 12.9233 38.742 12.9033 38.6423 12.9033H37.6661L37.2078 14.557H37.6063C37.6661 14.5371 37.7258 14.5172 37.7856 14.4574L38.1044 14.1785C38.1841 14.1187 38.2638 14.0589 38.3435 13.9991C38.4232 13.9593 38.5029 13.9394 38.6025 13.9394C38.7021 13.9394 38.8017 13.9593 38.8814 14.0191C38.9412 14.0788 38.981 14.1585 38.981 14.2582C38.981 14.298 38.981 14.3379 38.9611 14.3777L38.5826 15.6728C38.5626 15.7923 38.4829 15.8919 38.4033 15.9716C38.3236 16.0314 38.2239 16.0712 38.1044 16.0712C37.9251 16.0712 37.7657 15.9716 37.7059 15.8122L37.5465 15.4934C37.5067 15.4138 37.427 15.354 37.3473 15.354H36.9887L36.4706 17.3265H37.2875C37.3871 17.3265 37.5067 17.3065 37.6063 17.2667C37.7258 17.2069 37.8255 17.1272 37.9052 17.0276L38.463 16.41C38.5427 16.3103 38.6423 16.2506 38.742 16.1908C38.8416 16.1509 38.9611 16.1111 39.0607 16.131C39.1803 16.131 39.2998 16.1509 39.3995 16.2306C39.4791 16.2904 39.5389 16.41 39.519 16.5096C39.519 16.5693 39.4991 16.6291 39.4991 16.6889L39.2201 17.6253C39.1803 17.8246 39.0807 17.9839 38.9213 18.1234C38.742 18.223 38.5427 18.2828 38.3435 18.2629H33.9004C33.8008 18.2629 33.6813 18.243 33.6016 18.2031C33.5418 18.1633 33.502 18.1035 33.502 18.0238C33.502 17.9839 33.5219 17.9441 33.5219 17.9043C33.5418 17.8445 33.5816 17.7847 33.6414 17.7449L33.741 17.6851C33.8207 17.6253 33.9204 17.5655 33.9801 17.4858C34.0598 17.3862 34.1196 17.2866 34.1395 17.1671L35.2752 13.1623C35.2951 13.0826 35.315 13.0229 35.315 12.9432C35.315 12.8834 35.315 12.8236 35.2752 12.7639C35.2553 12.7041 35.2154 12.6642 35.1756 12.6045C35.1357 12.5447 35.0959 12.4849 35.0959 12.4052C35.0959 12.3654 35.0959 12.3255 35.1158 12.3056C35.1357 12.2259 35.1955 12.1661 35.2752 12.1263C35.3947 12.0864 35.5342 12.0665 35.6537 12.0665H39.778C40.0171 12.0068 40.2163 12.0466 40.3757 12.1661Z" fill="#4070D9"/>
<path d="M46.4722 12.5647C46.9504 12.9233 47.1895 13.4414 47.1895 14.1387C47.1895 14.5372 47.1098 14.9357 47.0102 15.3142C46.8508 15.9319 46.5718 16.5097 46.1733 17.0277C45.8147 17.466 45.3365 17.7848 44.7986 17.9442C44.0813 18.1633 43.3441 18.243 42.607 18.2231H40.0567C39.9571 18.2231 39.8574 18.2032 39.7578 18.1633C39.6981 18.1235 39.6582 18.0637 39.6582 17.984C39.6582 17.9442 39.6781 17.9043 39.6781 17.8645C39.6981 17.8246 39.718 17.7848 39.7578 17.7449C39.7977 17.725 39.8375 17.6852 39.9172 17.6453C39.9969 17.6055 40.0766 17.5258 40.1563 17.466C40.236 17.3664 40.2758 17.2668 40.3157 17.1472L41.4514 13.1226C41.4713 13.0429 41.4912 12.9632 41.4912 12.8835C41.4912 12.8237 41.4912 12.7639 41.4514 12.7042C41.4314 12.6444 41.3916 12.6046 41.3717 12.5448C41.3318 12.485 41.292 12.4252 41.292 12.3455C41.292 12.3057 41.292 12.2658 41.3119 12.2459C41.3318 12.1662 41.3916 12.1065 41.4713 12.0666C41.5908 12.0268 41.7303 12.0068 41.8498 12.0068H44.3603C45.2967 12.0268 45.994 12.2061 46.4722 12.5647ZM44.8384 13.7203C44.8384 13.4015 44.7787 13.1624 44.6392 13.0429C44.4798 12.9034 44.2606 12.8436 44.0614 12.8636H43.8622L42.607 17.3863H42.8261C43.0851 17.3863 43.3242 17.3265 43.5434 17.207C43.7825 17.0277 43.9618 16.8085 44.0813 16.5296C44.3005 16.0713 44.4798 15.5932 44.5994 15.0951C44.7388 14.6567 44.8185 14.1985 44.8384 13.7203Z" fill="#4070D9"/>
<path d="M3.0585 11.9274C2.38108 11.9474 1.72359 11.7282 1.16572 11.3496C-0.0894928 10.4132 -0.368429 8.62005 0.587923 7.34492C0.667619 7.2453 0.747315 7.12575 0.846934 7.04606C0.866858 7.02613 0.886783 7.00621 0.906707 6.98629L1.70367 4.15708C1.62397 3.93792 1.60405 3.69883 1.60405 3.45974C1.60405 3.20073 1.64389 2.96164 1.70367 2.72255L1.72359 2.66278L1.74351 2.60301C1.9826 1.78613 2.60025 1.10871 3.3972 0.789928C3.83553 0.610612 4.29378 0.530916 4.77196 0.55084H7.84025C9.09546 0.55084 10.1514 0.889548 10.9882 1.54704C11.9446 2.30415 12.5025 3.47967 12.5025 4.69503C12.5025 5.11343 12.4427 5.55176 12.3231 5.97016V5.99009C12.0044 7.22538 11.2074 8.26142 10.0917 8.89899C9.59356 9.17793 9.07554 9.37717 8.53759 9.51663C8.3782 10.473 7.76056 11.2699 6.86398 11.6485C6.40573 11.8477 5.90763 11.9474 5.3896 11.9274H3.0585Z" fill="#F4ECE9"/>
<path d="M12.3228 12.0463C10.9281 12.0463 9.75261 11.6479 8.83611 10.8908C8.11884 10.293 7.24219 9.17729 7.24219 7.30444C7.24219 6.72664 7.32188 6.12892 7.48128 5.57105C7.74029 4.57485 8.17862 3.63843 8.81618 2.84147C9.43383 2.06443 10.2507 1.44679 11.1473 1.02838C12.0439 0.629904 13.0002 0.430664 13.9964 0.430664C15.3911 0.430664 16.5666 0.829144 17.4831 1.58626C18.2004 2.2039 19.077 3.29972 19.077 5.17257C19.077 5.75037 18.9973 6.32816 18.8379 6.88604C18.5789 7.88223 18.1207 8.81866 17.4831 9.61562C16.8655 10.3927 16.0486 11.0103 15.152 11.4287C14.2554 11.8272 13.2991 12.0463 12.3228 12.0463Z" fill="#F4ECE9"/>
<path d="M19.5354 11.9671C18.9178 11.9671 18.3001 11.8874 17.7223 11.708C17.3438 11.8475 16.9254 11.9272 16.5269 11.9272C15.8096 11.9272 15.1123 11.6881 14.5544 11.2498C13.877 10.6919 13.4785 9.85511 13.4785 8.95853C13.4785 8.5999 13.5383 8.26119 13.6578 7.92249L14.0762 6.58758C14.2157 6.14925 14.4149 5.75077 14.7138 5.41206C14.7138 5.33237 14.7138 5.23275 14.7138 5.15305C14.7138 4.67488 14.7935 4.1967 14.933 3.73845C15.2518 2.72233 15.9092 1.86559 16.8058 1.30772C17.6426 0.769775 18.599 0.490839 19.5952 0.510763C20.1531 0.510763 20.7109 0.590459 21.2489 0.729927C21.6075 0.610383 21.9861 0.550611 22.3646 0.550611C23.042 0.550611 23.7194 0.749851 24.2773 1.16825C25.0145 1.72613 25.4528 2.60278 25.4329 3.51929C25.4329 3.83807 25.3931 4.15685 25.2934 4.45571L24.9149 5.71092C24.8352 6.00978 24.6957 6.28872 24.5363 6.56765C24.5762 6.80674 24.5961 7.04583 24.5961 7.28492C24.5961 7.74317 24.5164 8.20142 24.3769 8.63975C24.0582 9.71564 23.3409 10.6521 22.3646 11.2299C21.5079 11.728 20.5316 11.987 19.5354 11.9671Z" fill="#F4ECE9"/>
<path d="M22.5837 11.927C22.0059 11.927 21.4281 11.7875 20.93 11.4886C20.0932 10.9905 19.5752 10.074 19.5752 9.09777C19.5752 8.71921 19.6549 8.36058 19.7944 8.02187C19.9538 7.62339 20.1928 7.26476 20.4917 6.98583L21.2887 4.15662C21.2289 3.93746 21.209 3.69837 21.209 3.45928C21.209 3.22019 21.2488 2.96118 21.3086 2.72209L21.3285 2.66232V2.60255C21.5875 1.78566 22.1852 1.10825 22.9822 0.789466C23.4205 0.630074 23.8788 0.530454 24.337 0.550378H26.5287C27.0865 0.550378 27.6245 0.689846 28.1027 0.948857C28.9793 1.44696 29.5372 2.36346 29.5372 3.37958C29.5372 3.73822 29.4575 4.07692 29.3379 4.41563L29.318 4.4754L29.2981 4.53517C29.1586 4.87388 28.9395 5.19267 28.6605 5.4716L28.6207 5.51145L27.8237 8.32073C27.8835 8.55982 27.9233 8.79891 27.9233 9.038C27.9233 9.27708 27.8835 9.51617 27.8237 9.75526V9.77518L27.8038 9.81503C27.5647 10.6718 26.9271 11.3691 26.0903 11.6879C25.6719 11.8473 25.2137 11.927 24.7554 11.927H22.5837Z" fill="#F4ECE9"/>
<path d="M28.0227 11.9076C27.4449 11.9076 26.8671 11.7681 26.369 11.4692C25.5322 10.9711 25.0141 10.0546 25.0141 9.07835C25.0141 8.65994 25.1137 8.26146 25.2731 7.88291C25.3728 7.66374 25.4923 7.4645 25.6318 7.28519C25.5322 7.20549 25.4325 7.14572 25.3528 7.0461C24.7352 6.4683 24.3965 5.67135 24.3965 4.83454C24.3965 4.5556 24.4363 4.27667 24.4961 3.99773L24.516 3.95788L24.775 3.08123C24.8946 2.66282 25.0739 2.28427 25.313 1.92564C25.6915 1.38769 26.2295 0.969285 26.8471 0.750121C27.2855 0.610653 27.7437 0.530957 28.202 0.550881H33.6213C35.3945 0.550881 36.7294 1.84594 36.7294 3.5594C36.7294 3.91803 36.6697 4.25674 36.57 4.59545L36.3509 5.37249C36.1915 5.99013 35.8528 6.56792 35.3945 7.00625C34.8566 7.50435 34.1592 7.80321 33.422 7.84306L33.3025 8.26146C33.3623 8.50055 33.4021 8.73964 33.4021 8.99865C33.4021 9.23774 33.3623 9.47683 33.3025 9.71591L33.2627 9.87531L33.2029 10.0148C32.924 10.752 32.3262 11.3497 31.589 11.6485C31.1507 11.8279 30.6925 11.9076 30.2143 11.9076H28.0227Z" fill="#F4ECE9"/>
<path d="M33.4021 11.927C32.8243 11.927 32.2465 11.7875 31.7484 11.4886C30.9116 10.9905 30.3936 10.074 30.3936 9.09777C30.3936 8.71921 30.4733 8.36058 30.6127 8.02187C30.7721 7.62339 31.0112 7.26476 31.3101 6.98583L32.107 4.15662C32.0472 3.93746 32.0273 3.69837 32.0273 3.45928C32.0273 3.22019 32.0672 2.96118 32.1269 2.72209L32.1469 2.66232L32.1668 2.60255C32.4258 1.78566 33.0235 1.10825 33.8205 0.789466C34.2588 0.630074 34.7171 0.530454 35.1753 0.550378H37.3669C37.9248 0.550378 38.4628 0.689846 38.9409 0.948857C39.8176 1.44696 40.3755 2.36346 40.3755 3.37958C40.3755 3.73822 40.2958 4.07692 40.1762 4.41563L40.1563 4.4754L40.1364 4.53517C39.9969 4.87388 39.7778 5.19267 39.4988 5.4716L39.459 5.51145L38.662 8.32073C38.7218 8.55982 38.7616 8.79891 38.7616 9.038C38.7616 9.27708 38.7218 9.51617 38.662 9.75526L38.6421 9.79511L38.6222 9.83495C38.3831 10.6917 37.7455 11.389 36.9087 11.7078C36.4903 11.8672 36.032 11.9469 35.5738 11.9469L33.4021 11.927Z" fill="#F4ECE9"/>
<path d="M40.037 11.9276C39.1205 11.9475 38.2638 11.549 37.6461 10.8716C37.1879 10.3337 36.889 9.67617 36.7695 8.97883L36.0921 5.2132L36.0124 5.11358C35.6936 4.69517 35.5143 4.17715 35.4943 3.65912C35.4346 2.88209 35.6737 2.12498 36.1917 1.52726C36.7695 0.869767 37.6262 0.511135 38.5029 0.531059H40.834C41.3321 0.531059 41.8302 0.650603 42.2884 0.869767C42.8264 0.630679 43.3842 0.491211 43.982 0.491211C44.8985 0.491211 45.795 0.829919 46.4525 1.46749C47.1299 2.1449 47.5085 3.06141 47.5085 4.01776C47.5085 4.69517 47.3491 5.35266 46.9905 5.93046C46.4525 6.82704 45.5759 7.44468 44.5398 7.624L43.2248 9.83556C42.9658 10.2938 42.6271 10.7321 42.2286 11.0908C41.611 11.6287 40.834 11.9276 40.037 11.9276Z" fill="#F4ECE9"/>
<path d="M43.9616 11.9271C43.3839 11.9271 42.8061 11.7876 42.308 11.4887C41.4711 10.9906 40.9531 10.0741 40.9531 9.09786C40.9531 8.3009 41.2918 7.54379 41.8696 6.98592L42.6666 4.17663C42.6068 3.93755 42.567 3.71838 42.5869 3.47929C42.5869 3.24021 42.6267 2.98119 42.6865 2.74211L42.7064 2.68233L42.7264 2.62256C42.9854 1.78575 43.603 1.10834 44.4199 0.789555C44.8383 0.630164 45.2966 0.550468 45.7548 0.570392H49.8791C50.6561 0.550468 51.4132 0.789555 52.0109 1.26773C52.768 1.84553 53.2064 2.76203 53.2064 3.71838C53.2064 4.03717 53.1665 4.37587 53.0669 4.69466L52.8278 5.51154C52.6884 6.02956 52.4493 6.50774 52.0906 6.90622C52.1504 7.14531 52.1703 7.36447 52.1703 7.60356C52.1703 7.90242 52.1305 8.18135 52.0508 8.46029L51.7718 9.43657C51.5726 10.1937 51.1144 10.8512 50.4967 11.3293C49.899 11.7477 49.1618 11.9669 48.4246 11.947L43.9616 11.9271Z" fill="#F4ECE9"/>
<path d="M9.47411 20.8131C9.0557 20.8131 8.65722 20.7334 8.27867 20.574C7.86026 20.7334 7.40201 20.8131 6.94376 20.8131H6.16672C5.58893 20.8131 5.01113 20.6736 4.51303 20.3748C3.67623 19.8767 3.1582 18.9602 3.1582 17.9839C3.1582 17.1869 3.49691 16.4298 4.05478 15.872L4.83182 13.1225C4.77205 12.8634 4.7322 12.6044 4.7322 12.3454C4.7322 11.409 5.17053 10.5323 5.94756 9.99439C6.48551 9.63576 7.12308 9.43652 7.76064 9.45644H9.19517C10.1316 9.43652 11.0083 9.81507 11.6259 10.5323C11.9447 10.2136 12.3432 9.95454 12.7616 9.7553C13.2796 9.55606 13.8175 9.45644 14.3754 9.45644H15.7701C16.328 9.45644 16.8659 9.59591 17.3441 9.85492C18.2207 10.353 18.7786 11.2695 18.7786 12.2856C18.7786 12.6244 18.7188 12.9631 18.5993 13.2818C18.4399 13.7202 18.2008 14.0987 17.8621 14.4175L17.0651 17.2069C17.1249 17.446 17.1648 17.685 17.1648 17.9241C17.1648 18.1632 17.1249 18.4023 17.0651 18.6414L17.0452 18.7211L17.0253 18.741C16.7663 19.5579 16.1686 20.2154 15.3716 20.5541C14.9333 20.7334 14.475 20.8131 13.9969 20.8131H11.8052C11.4067 20.8131 11.0083 20.7533 10.6297 20.6139C10.2711 20.7533 9.87259 20.8131 9.47411 20.8131Z" fill="#F4ECE9"/>
<path d="M15.8493 20.8132C15.2715 20.8132 14.6938 20.6737 14.1957 20.3748C13.3588 19.8767 12.8408 18.9602 12.8408 17.984C12.8408 17.6054 12.9205 17.2468 13.06 16.9081C13.2194 16.5096 13.4385 16.1709 13.7573 15.872L14.5543 13.0428C14.4945 12.8237 14.4746 12.5846 14.4746 12.3455C14.4746 12.1064 14.5144 11.8474 14.5742 11.6083L14.5941 11.5485L14.6141 11.4888C14.8731 10.6719 15.4708 9.99445 16.2677 9.67567C16.7061 9.49635 17.1643 9.41666 17.6226 9.43658H19.8142C20.3721 9.43658 20.91 9.57605 21.3882 9.83506C22.2649 10.3132 22.8227 11.2497 22.8227 12.2658C22.8227 12.6244 22.743 12.9631 22.6235 13.3018L22.6036 13.3616L22.5836 13.4214C22.4442 13.7601 22.225 14.0789 21.9461 14.3578L21.9062 14.3977L21.1093 17.2069C21.169 17.446 21.2089 17.6851 21.2089 17.9242C21.2089 18.1633 21.169 18.4024 21.1093 18.6415V18.6813L21.0894 18.7212C20.8503 19.5779 20.2127 20.2752 19.3759 20.594C18.9575 20.7534 18.4992 20.8331 18.041 20.8331L15.8493 20.8132Z" fill="#F4ECE9"/>
<path d="M24.5164 20.853C23.8789 20.853 23.2413 20.6936 22.7033 20.3748C22.5639 20.4545 22.4045 20.5342 22.265 20.594C21.8466 20.7533 21.3884 20.833 20.9301 20.833H19.914C17.9814 20.833 16.9453 19.3786 16.9453 18.0038C16.9453 17.705 16.9852 17.426 17.0649 17.1471C17.2043 16.6689 17.4833 16.2306 17.8419 15.8919L18.6189 13.1225C18.5592 12.8634 18.5193 12.6044 18.5193 12.3454C18.5193 10.7117 19.7944 9.45645 21.488 9.45645H22.8627C23.3808 9.45645 23.9187 9.55607 24.377 9.79516C24.4567 9.75531 24.5563 9.71546 24.636 9.67561C25.0544 9.51622 25.5126 9.43652 25.9709 9.43652H26.987C28.9196 9.43652 29.9557 10.891 29.9557 12.2657C29.9557 12.5646 29.9158 12.8435 29.8361 13.1225C29.6967 13.6006 29.4177 14.019 29.0591 14.3777L28.0629 17.9441C27.8836 18.7012 27.505 19.3786 26.9472 19.9165C26.2897 20.5342 25.413 20.853 24.5164 20.853Z" fill="#F4ECE9"/>
<path d="M26.9271 20.7929C26.3493 20.7929 25.7914 20.6534 25.2933 20.3545C24.4565 19.8564 23.9385 18.9399 23.9385 17.9637C23.9385 17.605 23.9982 17.2464 24.1377 16.9276C24.2971 16.5291 24.5362 16.1506 24.855 15.8517L25.6519 13.0424C25.5922 12.8233 25.5722 12.5842 25.5722 12.365C25.5722 12.1259 25.6121 11.8669 25.6719 11.6278L25.6918 11.5681L25.7117 11.5083C25.9707 10.6914 26.5684 10.014 27.3853 9.6952C27.8237 9.51588 28.2819 9.43619 28.7402 9.45611H31.2506C32.7449 9.45611 33.9802 9.81475 34.9166 10.5121C36.0523 11.3688 36.6898 12.7236 36.65 14.1382C36.65 14.7758 36.5504 15.4134 36.371 16.0111C36.112 16.9874 35.6737 17.884 35.0561 18.6809C34.3986 19.4779 33.502 20.0756 32.5058 20.4143C31.5494 20.7132 30.5732 20.8526 29.577 20.8327L26.9271 20.7929Z" fill="#F4ECE9"/>
<path d="M33.9206 20.8132C33.3428 20.8132 32.765 20.6737 32.2669 20.3749C31.4301 19.8768 30.9121 18.9603 30.9121 17.984C30.9121 17.187 31.2508 16.4299 31.8286 15.8721L32.6256 13.0628C32.5658 12.8436 32.526 12.6045 32.5459 12.3654C32.5459 12.1264 32.5857 11.8673 32.6455 11.6283L32.6654 11.5685L32.6853 11.5087C32.9444 10.6719 33.562 9.99449 34.3789 9.67571C34.7973 9.51631 35.2555 9.43662 35.6939 9.43662H39.8181C40.5952 9.41669 41.3324 9.67571 41.95 10.134C42.7071 10.7118 43.1454 11.6283 43.1454 12.5846C43.1454 12.9034 43.1056 13.2421 43.006 13.5609L42.7669 14.3977C42.6274 14.9157 42.3883 15.3939 42.0297 15.7924C42.0895 16.0315 42.1094 16.2705 42.1094 16.5096C42.1094 16.8085 42.0695 17.0874 41.9898 17.3664L41.7109 18.3426C41.5117 19.0998 41.0534 19.7572 40.4358 20.2354C39.8181 20.6538 39.1009 20.873 38.3637 20.8531L33.9206 20.8132Z" fill="#F4ECE9"/>
<path d="M40.057 20.7929C39.4792 20.7929 38.9213 20.6534 38.4232 20.3545C37.5864 19.8564 37.0684 18.9399 37.0684 17.9637C37.0684 17.605 37.1281 17.2464 37.2676 16.9276C37.427 16.5291 37.6661 16.1506 37.9849 15.8517L38.7818 13.0424C38.7221 12.8233 38.7021 12.5842 38.7021 12.365C38.7021 12.1259 38.742 11.8669 38.8017 11.6278L38.8217 11.5681L38.8416 11.5083C39.1006 10.6914 39.6983 10.014 40.4953 9.6952C40.9336 9.51588 41.3919 9.43619 41.87 9.45611H44.3805C45.8748 9.45611 47.11 9.81475 48.0465 10.5121C49.1821 11.3688 49.8197 12.7236 49.7799 14.1382C49.7799 14.7758 49.6802 15.4134 49.5009 16.0111C49.2419 16.9874 48.8036 17.884 48.1859 18.6809C47.5285 19.4779 46.6319 20.0756 45.6357 20.4143C44.6793 20.7132 43.703 20.8526 42.7068 20.8327L40.057 20.7929Z" fill="#F4ECE9"/>
<path d="M9.37396 3.57935C9.73259 3.85828 9.93183 4.27668 9.91191 4.71501C9.91191 4.91425 9.89198 5.11349 9.83221 5.29281C9.69274 5.8706 9.31419 6.3687 8.79616 6.66756C8.19844 6.98635 7.52103 7.14574 6.86354 7.10589H5.90719L5.5884 8.24156C5.56848 8.28141 5.56848 8.34118 5.56848 8.40095C5.56848 8.48065 5.5884 8.56034 5.62825 8.62011C5.68802 8.69981 5.74779 8.75958 5.80757 8.81935C5.84741 8.8592 5.90719 8.91897 5.94703 8.95882C5.96696 8.99867 5.98688 9.03852 5.98688 9.07837C5.98688 9.17799 5.92711 9.2776 5.82749 9.29753C5.68802 9.3573 5.54855 9.37723 5.38916 9.3573H3.05806C2.93851 9.3573 2.79904 9.33738 2.69942 9.27761C2.61973 9.21783 2.57988 9.11821 2.5998 9.01859C2.5998 8.95882 2.63965 8.91897 2.6795 8.87913C2.71935 8.83928 2.77912 8.79943 2.83889 8.75958C2.93851 8.69981 3.01821 8.64004 3.0979 8.56034C3.1776 8.46072 3.21745 8.3611 3.23737 8.24156L4.37304 4.23684C4.39296 4.15714 4.39296 4.07744 4.39296 3.99775C4.39296 3.93798 4.37304 3.87821 4.35311 3.81843C4.33319 3.77859 4.29334 3.71881 4.27342 3.65904C4.23357 3.59927 4.19372 3.5395 4.19372 3.4598C4.19372 3.41995 4.19372 3.40003 4.21365 3.36018C4.23357 3.28049 4.29334 3.22071 4.37304 3.18087C4.49258 3.14102 4.63205 3.12109 4.75159 3.12109H7.83981C8.4973 3.14102 9.01533 3.28049 9.37396 3.57935ZM7.72027 4.51577C7.72027 4.15714 7.56088 3.97782 7.22217 3.97782H6.78384L6.12635 6.26908H6.54475C6.78384 6.26908 7.003 6.18939 7.18232 6.03C7.40148 5.77098 7.54095 5.4522 7.62065 5.11349C7.6605 4.93418 7.70034 4.71501 7.72027 4.51577Z" fill="#485BEA"/>
<path d="M20.5313 3.22052C20.8501 3.32014 21.1489 3.43969 21.4279 3.619L21.647 3.43969C21.7666 3.34007 21.8861 3.26037 22.0057 3.2006C22.1053 3.16075 22.2248 3.14083 22.3444 3.14083C22.4639 3.14083 22.5835 3.16075 22.703 3.24045C22.7827 3.30022 22.8425 3.41976 22.8425 3.51938C22.8425 3.57915 22.8425 3.619 22.8225 3.67877L22.4241 4.95391C22.4041 5.07345 22.3444 5.17307 22.2647 5.27269C22.185 5.33246 22.0854 5.37231 21.9658 5.37231C21.8263 5.37231 21.7068 5.33246 21.6072 5.25277C21.4279 5.09338 21.2685 4.91406 21.129 4.73475C20.9696 4.53551 20.7704 4.35619 20.5512 4.21672C20.3918 4.1171 20.1926 4.05733 20.0133 4.05733C19.8937 4.05733 19.7543 4.09718 19.6746 4.1968C19.5749 4.27649 19.5351 4.39604 19.5351 4.53551C19.5351 4.6949 19.6347 4.85429 19.7543 4.95391C19.9734 5.13322 20.2125 5.29262 20.4516 5.43209C20.7704 5.63133 21.0493 5.79072 21.2486 5.95011C21.4677 6.1095 21.647 6.30874 21.7865 6.5279C21.9459 6.76699 22.0256 7.04593 22.0057 7.32486C22.0057 7.5241 21.9658 7.72334 21.906 7.90266C21.7666 8.36091 21.4478 8.75939 21.0493 8.99848C20.5911 9.25749 20.093 9.39696 19.555 9.39696C19.1964 9.39696 18.8178 9.35711 18.4791 9.23757C18.1603 9.11802 17.8615 8.95863 17.5825 8.73947L17.2438 9.0184C17.1243 9.11802 17.0047 9.21764 16.8653 9.27741C16.7657 9.31726 16.6461 9.35711 16.5266 9.33719C16.407 9.33719 16.2875 9.31726 16.1879 9.23757C16.1082 9.17779 16.0484 9.05825 16.0683 8.95863C16.0683 8.89886 16.0882 8.81916 16.1082 8.75939L16.5664 7.36471C16.6063 7.22524 16.666 7.1057 16.7657 7.026C16.8653 6.94631 16.9848 6.92638 17.1044 6.92638C17.2438 6.92638 17.3833 6.98616 17.4829 7.08578C17.6622 7.24517 17.8017 7.42448 17.9412 7.62372C18.0806 7.86281 18.2799 8.06205 18.499 8.22144C18.6784 8.34099 18.8776 8.40076 19.0968 8.38083C19.2362 8.38083 19.3558 8.36091 19.4753 8.30114C19.5749 8.24137 19.6347 8.16167 19.6746 8.04213C19.6945 8.00228 19.6945 7.94251 19.6945 7.90266C19.6945 7.74327 19.6148 7.58388 19.4753 7.50418C19.2761 7.34479 19.0569 7.1854 18.8178 7.06585C18.499 6.86661 18.24 6.70722 18.0408 6.54783C17.8415 6.38844 17.6622 6.1892 17.5228 5.97003C17.3634 5.73094 17.3036 5.45201 17.3036 5.15315C17.3036 4.93399 17.3435 4.71482 17.4032 4.51558C17.5427 4.07725 17.8216 3.71862 18.2002 3.47953C18.6186 3.22052 19.0968 3.08105 19.5949 3.08105C19.8937 3.08105 20.2125 3.1209 20.5313 3.22052Z" fill="#485BEA"/>
<path d="M26.8472 3.20081C26.9069 3.24066 26.9468 3.30043 26.9468 3.38013C26.9468 3.41998 26.9269 3.45983 26.9269 3.49967C26.9069 3.53952 26.887 3.57937 26.8472 3.61922C26.8273 3.63914 26.7874 3.67899 26.7476 3.69891C26.7276 3.71884 26.7077 3.71884 26.6878 3.73876C26.5882 3.77861 26.5085 3.85831 26.4487 3.91808C26.369 4.0177 26.3292 4.11732 26.2893 4.23686L25.1536 8.24158C25.1337 8.32128 25.1138 8.40097 25.1138 8.48067C25.1138 8.54044 25.1138 8.60021 25.1536 8.65999C25.1736 8.71976 25.2134 8.77953 25.2533 8.81938C25.2931 8.87915 25.333 8.93892 25.333 9.01862C25.333 9.05847 25.313 9.07839 25.313 9.11824C25.2931 9.19793 25.2333 9.27763 25.1536 9.29755C25.0341 9.3374 24.8946 9.35733 24.7552 9.35733H22.5635C22.4639 9.35733 22.3643 9.3374 22.2647 9.29755C22.2049 9.2577 22.165 9.19793 22.165 9.11824C22.165 9.07839 22.185 9.03854 22.185 8.99869C22.2049 8.93892 22.2447 8.87915 22.3045 8.8393L22.4041 8.77953C22.4838 8.71976 22.5834 8.65999 22.6432 8.58029C22.7229 8.48067 22.7827 8.38105 22.8026 8.26151L23.9383 4.25678C23.9582 4.17709 23.9781 4.09739 23.9781 4.0177C23.9781 3.95793 23.9781 3.89815 23.9383 3.83838C23.9184 3.79853 23.8785 3.73876 23.8586 3.67899C23.8187 3.61922 23.7789 3.55945 23.7789 3.47975C23.7789 3.4399 23.7789 3.41998 23.7988 3.38013C23.8187 3.30043 23.8785 3.24066 23.9582 3.20081C24.0777 3.16097 24.2172 3.14104 24.3368 3.14104H26.5284C26.6479 3.12112 26.7476 3.16097 26.8472 3.20081Z" fill="#485BEA"/>
<path d="M34.1197 3.55908C34.1197 3.67862 34.0998 3.77824 34.0599 3.87786L33.8408 4.63498C33.8009 4.81429 33.7212 4.97368 33.5818 5.11315C33.4622 5.21277 33.3028 5.27254 33.1633 5.25262C33.0239 5.25262 32.9043 5.21277 32.8047 5.13308C32.7051 5.01353 32.6254 4.89399 32.5656 4.75452L32.4062 4.37596C32.3664 4.27634 32.3265 4.19665 32.2468 4.13688C32.1671 4.09703 32.0875 4.05718 31.9878 4.0771H31.7687L30.5932 8.24122C30.5732 8.32091 30.5732 8.38069 30.5732 8.46038C30.5732 8.52015 30.5732 8.57993 30.6131 8.6397C30.633 8.69947 30.6729 8.75924 30.7127 8.79909C30.7525 8.85886 30.7924 8.93856 30.7924 9.01825C30.7924 9.0581 30.7924 9.07802 30.7725 9.11787C30.7326 9.19757 30.6728 9.25734 30.5932 9.29719C30.4736 9.33704 30.3341 9.35696 30.2146 9.35696H28.023C27.9233 9.35696 27.8038 9.33704 27.7241 9.29719C27.6643 9.25734 27.6046 9.17764 27.6245 9.11787C27.6245 9.07802 27.6245 9.03818 27.6444 8.99833C27.6643 8.95848 27.6843 8.89871 27.7241 8.87879C27.7639 8.83894 27.8237 8.79909 27.8835 8.77917C27.9632 8.71939 28.0429 8.65962 28.1226 8.59985C28.2023 8.50023 28.2421 8.40061 28.282 8.28107L29.4575 4.11695H29.2383C29.1188 4.11695 28.9992 4.13688 28.8996 4.17672C28.8 4.2365 28.7004 4.31619 28.6207 4.41581L28.3218 4.79437C28.2023 4.93384 28.0628 5.0733 27.9034 5.17292C27.7839 5.25262 27.6245 5.29247 27.4651 5.29247C27.3455 5.29247 27.226 5.25262 27.1264 5.17292C27.0467 5.09323 27.0068 4.97368 27.0068 4.87406C27.0068 4.81429 27.0268 4.7346 27.0268 4.67482L27.2658 3.83802C27.3057 3.69855 27.3655 3.55908 27.4252 3.43954C27.485 3.33992 27.5846 3.28015 27.6843 3.2403C27.8436 3.20045 28.003 3.18053 28.1624 3.18053H33.5818C33.9603 3.14068 34.1197 3.28015 34.1197 3.55908Z" fill="#485BEA"/>
<path d="M37.6661 3.20081C37.7259 3.24066 37.7657 3.30043 37.7657 3.38013C37.7657 3.41998 37.7458 3.45983 37.7458 3.49967C37.7259 3.53952 37.706 3.57937 37.6661 3.61922C37.6462 3.63914 37.6063 3.67899 37.5665 3.69891C37.5466 3.71884 37.5266 3.71884 37.5067 3.73876C37.4071 3.77861 37.3274 3.85831 37.2676 3.91808C37.1879 4.0177 37.1481 4.11732 37.1082 4.23686L35.9925 8.24158C35.9726 8.32128 35.9527 8.40097 35.9527 8.48067C35.9527 8.54044 35.9527 8.60021 35.9925 8.65999C36.0124 8.71976 36.0523 8.77953 36.0921 8.81938C36.132 8.87915 36.1718 8.93892 36.1718 9.01862C36.1718 9.05847 36.1519 9.07839 36.1519 9.11824C36.132 9.19793 36.0722 9.27763 35.9925 9.29755C35.873 9.3374 35.7335 9.35733 35.594 9.35733H33.4024C33.3028 9.35733 33.2031 9.3374 33.1035 9.29755C33.0438 9.2577 33.0039 9.19793 33.0039 9.11824C33.0039 9.07839 33.0238 9.03854 33.0238 8.99869C33.0438 8.93892 33.0836 8.87915 33.1434 8.8393L33.243 8.77953C33.3227 8.71976 33.4223 8.65999 33.4821 8.58029C33.5618 8.48067 33.6215 8.38105 33.6415 8.26151L34.7771 4.25678C34.7971 4.17709 34.817 4.09739 34.817 4.0177C34.817 3.95793 34.817 3.89815 34.7771 3.83838C34.7572 3.79853 34.7174 3.73876 34.6974 3.67899C34.6576 3.61922 34.6177 3.55945 34.6177 3.47975C34.6177 3.4399 34.6177 3.41998 34.6377 3.38013C34.6576 3.30043 34.7174 3.24066 34.7971 3.20081C34.9166 3.16097 35.0561 3.14104 35.1756 3.14104H37.3673C37.4669 3.12112 37.5665 3.16097 37.6661 3.20081Z" fill="#485BEA"/>
<path d="M44.7589 4.61499C44.6792 4.77438 44.5397 4.89392 44.4003 4.97362C44.2608 5.05332 44.1014 5.09316 43.962 5.09316C43.683 5.09316 43.424 4.97362 43.2447 4.75446L40.9933 8.54001C40.8737 8.75918 40.7143 8.97834 40.535 9.15766C40.3956 9.2772 40.2362 9.33697 40.0568 9.33697C39.8775 9.33697 39.7181 9.2772 39.5986 9.13773C39.4591 8.95842 39.3794 8.75918 39.3595 8.54001L38.5825 4.23643C38.5626 4.13681 38.5426 4.03719 38.4829 3.9575C38.4231 3.8778 38.3633 3.79811 38.2836 3.73833C38.2438 3.69849 38.184 3.65864 38.1441 3.59887C38.1242 3.55902 38.1043 3.51917 38.1043 3.47932C38.0644 3.26016 38.2039 3.14061 38.5227 3.14061H40.8538C40.9734 3.14061 41.0929 3.16054 41.1726 3.22031C41.2523 3.28008 41.2921 3.35978 41.2722 3.4594C41.2722 3.49925 41.2523 3.55902 41.2324 3.59887C41.2124 3.65864 41.1726 3.69849 41.1327 3.73833C41.0929 3.79811 41.0331 3.85788 40.9933 3.91765C40.9534 3.97742 40.9534 4.05712 40.9534 4.11689C40.9534 4.15674 40.9534 4.17666 40.9734 4.21651L41.332 6.38822L42.5673 4.19659C42.7267 3.8778 42.9458 3.59887 43.2048 3.35978C43.424 3.20039 43.7029 3.10077 43.9819 3.12069C44.2409 3.10077 44.48 3.20039 44.6593 3.35978C44.8386 3.53909 44.9382 3.79811 44.9183 4.03719C44.8984 4.23643 44.8585 4.43567 44.7589 4.61499Z" fill="#485BEA"/>
<path d="M50.4173 3.29997C50.5369 3.39959 50.6166 3.55898 50.5966 3.71837C50.5966 3.79807 50.5767 3.89769 50.5568 3.97739L50.3177 4.83412C50.2978 4.97359 50.2181 5.09313 50.1384 5.19275C50.0388 5.27244 49.8993 5.29237 49.7798 5.29237C49.6602 5.29237 49.5407 5.27244 49.4211 5.19275C49.3215 5.11305 49.2617 4.99351 49.2219 4.87397L49.0625 4.33602C49.0426 4.25632 49.0027 4.17663 48.943 4.11685C48.8633 4.07701 48.7836 4.05708 48.6839 4.05708H47.7077L47.2494 5.71077H47.6678C47.7276 5.69085 47.8073 5.67092 47.8471 5.61115L48.1659 5.33222C48.2456 5.27244 48.3253 5.21267 48.405 5.1529C48.4847 5.11305 48.5644 5.09313 48.664 5.09313C48.7636 5.09313 48.8633 5.11305 48.943 5.17282C49.0027 5.2326 49.0426 5.31229 49.0426 5.39199C49.0426 5.43184 49.0426 5.47168 49.0226 5.51153L48.6441 6.80659C48.6242 6.92614 48.5445 7.02576 48.4449 7.10545C48.3652 7.16522 48.2655 7.20507 48.146 7.20507C47.9667 7.20507 47.8073 7.10545 47.7475 6.94606L47.608 6.62728C47.5682 6.54758 47.4885 6.48781 47.4088 6.48781H47.0502L46.4923 8.46028H47.3092C47.4088 8.46028 47.5084 8.44036 47.608 8.40051C47.7276 8.34074 47.8272 8.26104 47.9069 8.16142L48.4648 7.54378C48.5445 7.44416 48.6441 7.38439 48.7437 7.32462C48.8433 7.26484 48.9629 7.24492 49.0824 7.26484C49.202 7.26484 49.3215 7.28477 49.4211 7.36446C49.5008 7.42424 49.5606 7.54378 49.5407 7.6434C49.5407 7.70317 49.5207 7.76294 49.5207 7.82272L49.2418 8.75914C49.202 8.95838 49.1023 9.11777 48.943 9.25724C48.7636 9.35686 48.5843 9.41663 48.3851 9.39671H43.962C43.8623 9.39671 43.7428 9.37679 43.6631 9.33694C43.6033 9.29709 43.5635 9.23732 43.5635 9.15762C43.5635 9.11777 43.5635 9.07793 43.5834 9.03808C43.6033 8.97831 43.6432 8.91853 43.7029 8.87869C43.7428 8.85876 43.7627 8.83884 43.8026 8.81891C43.8823 8.75914 43.9819 8.69937 44.0417 8.61967C44.1213 8.52005 44.1811 8.42043 44.201 8.30089L45.3367 4.29617C45.3566 4.21647 45.3766 4.1567 45.3766 4.07701C45.3766 4.01723 45.3766 3.95746 45.3367 3.89769C45.3168 3.83792 45.2769 3.77815 45.2371 3.7383C45.1972 3.67853 45.1574 3.61875 45.1574 3.53906C45.1574 3.49921 45.1574 3.47929 45.1773 3.43944C45.1972 3.35974 45.257 3.29997 45.3367 3.26012C45.4563 3.22027 45.5957 3.20035 45.7153 3.20035H49.8395C50.0587 3.12065 50.2579 3.18043 50.4173 3.29997Z" fill="#485BEA"/>
<path d="M16.0683 12.0871C16.128 12.1269 16.1679 12.1867 16.1679 12.2664C16.1679 12.3062 16.148 12.3461 16.148 12.3859C16.128 12.4258 16.1081 12.4856 16.0683 12.5055C16.0284 12.5453 15.9687 12.5852 15.9089 12.6051C15.8292 12.6449 15.7296 12.7246 15.6698 12.7844C15.5901 12.884 15.5503 12.9837 15.5104 13.1032L14.3747 17.1079C14.3747 17.1876 14.3548 17.2673 14.3548 17.347C14.3548 17.4068 14.3548 17.4665 14.3947 17.5263C14.4146 17.5861 14.4544 17.6259 14.4744 17.6857C14.4943 17.7256 14.5142 17.7455 14.5341 17.7853C14.5541 17.8252 14.5541 17.865 14.5541 17.885C14.5541 17.9248 14.5541 17.9447 14.5341 17.9846C14.5142 18.0643 14.4345 18.124 14.3548 18.1639C14.2353 18.2037 14.0958 18.2237 13.9763 18.2237H11.7846C11.685 18.2237 11.5854 18.2037 11.4858 18.1639C11.426 18.124 11.3861 18.0643 11.3861 17.9846C11.3861 17.9447 11.4061 17.9049 11.4061 17.865C11.426 17.8252 11.4459 17.7853 11.4858 17.7455C11.5057 17.7256 11.5455 17.6857 11.5854 17.6658C11.6053 17.6459 11.6252 17.6459 11.6452 17.6259C11.7448 17.5861 11.8245 17.5064 11.8842 17.4466C11.9639 17.347 12.0038 17.2474 12.0436 17.1278L12.7609 14.5975L10.37 17.5861C10.2306 17.7654 10.0712 17.9447 9.89184 18.0842C9.7723 18.1639 9.63283 18.2237 9.47344 18.2237C9.33397 18.2237 9.21443 18.1838 9.11481 18.0842C9.01519 17.9447 8.93549 17.7654 8.89564 17.606L8.01899 14.737L7.32165 17.1478C7.30173 17.2275 7.2818 17.2872 7.2818 17.3669C7.2818 17.4267 7.2818 17.4865 7.32165 17.5462C7.34157 17.606 7.38142 17.6658 7.42127 17.7056C7.46112 17.7654 7.50096 17.8252 7.50096 17.9049C7.50096 17.9447 7.50096 17.9646 7.48104 18.0045C7.46112 18.0842 7.40135 18.1639 7.32165 18.1838C7.20211 18.2237 7.06264 18.2436 6.92317 18.2436H6.16606C6.06644 18.2436 5.94689 18.2237 5.8672 18.1838C5.80743 18.144 5.76758 18.0842 5.76758 18.0045C5.76758 17.9646 5.7875 17.9248 5.7875 17.885C5.80743 17.8252 5.84727 17.7654 5.90705 17.7256L6.00667 17.6658C6.08636 17.606 6.18598 17.5462 6.24575 17.4665C6.32545 17.3669 6.38522 17.2673 6.40515 17.1478L7.54081 13.1231L7.38142 12.6051C7.34157 12.5254 7.34157 12.4258 7.34157 12.3461C7.34157 12.2465 7.38142 12.1668 7.44119 12.107C7.54081 12.0472 7.66036 12.0273 7.7799 12.0273H9.21443C9.3539 12.0074 9.51329 12.0671 9.63283 12.1468C9.75237 12.2664 9.81215 12.4059 9.85199 12.5652L10.7685 15.6535L13.2988 12.5254C13.4184 12.366 13.5778 12.2265 13.777 12.1269C13.9763 12.0472 14.1755 12.0273 14.3947 12.0273H15.7893C15.889 12.0273 15.9886 12.0472 16.0683 12.0871Z" fill="#485BEA"/>
<path d="M20.1128 12.0865C20.1726 12.1264 20.2124 12.1862 20.2124 12.2658C20.2124 12.3057 20.1925 12.3455 20.1726 12.3854C20.1526 12.4252 20.1327 12.4651 20.0929 12.5049C20.073 12.5249 20.0331 12.5647 19.9933 12.5846C19.9733 12.6046 19.9534 12.6046 19.9335 12.6245C19.8339 12.6643 19.7542 12.744 19.6944 12.8038C19.6147 12.9034 19.5749 13.003 19.535 13.1226L18.4193 17.1273C18.3993 17.207 18.3794 17.2668 18.3794 17.3465C18.3794 17.4062 18.3794 17.466 18.4193 17.5258C18.4392 17.5856 18.479 17.6453 18.5189 17.6852C18.5587 17.7449 18.5986 17.8047 18.5986 17.8844C18.5986 17.9243 18.5986 17.9442 18.5787 17.984C18.5587 18.0637 18.499 18.1434 18.4193 18.1633C18.2997 18.2032 18.1602 18.2231 18.0208 18.2231H15.8291C15.7295 18.2231 15.6299 18.2032 15.5303 18.1633C15.4705 18.1235 15.4307 18.0637 15.4307 17.984C15.4307 17.9442 15.4506 17.9043 15.4506 17.8645C15.4705 17.8047 15.5104 17.7449 15.5701 17.7051L15.6698 17.6453C15.7494 17.5856 15.8491 17.5258 15.9088 17.4461C15.9885 17.3465 16.0483 17.2468 16.0682 17.1273L17.2039 13.1226C17.2238 13.0429 17.2437 12.9632 17.2437 12.8835C17.2437 12.8237 17.2437 12.7639 17.2039 12.7042C17.184 12.6444 17.1441 12.6046 17.1242 12.5448C17.0844 12.485 17.0445 12.4252 17.0445 12.3455C17.0445 12.3057 17.0445 12.2658 17.0644 12.2459C17.0844 12.1662 17.1441 12.1065 17.2238 12.0666C17.3434 12.0268 17.4828 12.0068 17.6024 12.0068H19.794C19.9335 12.0068 20.0331 12.0268 20.1128 12.0865Z" fill="#485BEA"/>
<path d="M27.3458 12.2658C27.3458 12.3455 27.3258 12.4451 27.2461 12.5048C27.1864 12.5447 27.1465 12.5845 27.0867 12.6244C27.007 12.6842 26.9273 12.7439 26.8477 12.8037C26.768 12.9033 26.7082 13.0029 26.6883 13.1225L25.5327 17.2468C25.4729 17.5456 25.3334 17.8046 25.1342 18.0238C24.9549 18.1832 24.7357 18.2629 24.4966 18.243C24.2775 18.243 24.0583 18.1633 23.879 18.0238C23.6797 17.8246 23.5203 17.6054 23.4207 17.3464L22.026 14.3976L21.249 17.1073C21.2291 17.187 21.2291 17.2468 21.2291 17.3265C21.2291 17.3862 21.249 17.4659 21.2689 17.5257C21.3088 17.5855 21.3486 17.6452 21.3885 17.6851C21.4483 17.7449 21.4881 17.8046 21.4881 17.8843C21.4881 17.9042 21.4881 17.9441 21.4881 17.964C21.4682 18.0437 21.4084 18.1234 21.3287 18.1433C21.2092 18.1832 21.0697 18.2031 20.9302 18.2031H19.8942C19.6352 18.2031 19.5156 18.1234 19.5156 17.964C19.5156 17.9242 19.5156 17.9042 19.5355 17.8644C19.5555 17.8046 19.5754 17.7648 19.6152 17.7249C19.6551 17.6851 19.7149 17.6452 19.7746 17.6054C19.8543 17.5456 19.934 17.4858 20.0137 17.4261C20.0934 17.3265 20.1333 17.2268 20.1731 17.1073L21.3486 12.9233L21.1892 12.6244C21.1295 12.5248 21.1095 12.4052 21.0896 12.3056C21.0896 12.1064 21.2092 12.0067 21.4682 12.0067H22.8429C23.0023 11.9868 23.1617 12.0466 23.3012 12.1462C23.4406 12.2857 23.5403 12.4451 23.6399 12.6244L24.9947 15.354L25.6323 13.1026C25.6522 13.0229 25.6522 12.9631 25.6522 12.8834C25.6522 12.8236 25.6323 12.7439 25.6124 12.6842C25.5725 12.6244 25.5327 12.5646 25.4928 12.5248C25.433 12.465 25.3932 12.4052 25.3932 12.3255C25.3932 12.3056 25.3932 12.2658 25.4131 12.2458C25.433 12.1661 25.4928 12.0864 25.5725 12.0665C25.6921 12.0267 25.8315 12.0067 25.971 12.0067H26.9871C27.2262 12.0267 27.3458 12.1064 27.3458 12.2658Z" fill="#485BEA"/>
<path d="M33.323 12.5647C33.8012 12.9233 34.0402 13.4414 34.0402 14.1387C34.0402 14.5372 33.9605 14.9357 33.8609 15.3142C33.7015 15.9319 33.4226 16.5097 33.0241 17.0277C32.6655 17.466 32.1873 17.7848 31.6494 17.9442C30.952 18.1633 30.2148 18.243 29.4777 18.2231H26.9473C26.8477 18.2231 26.7281 18.2032 26.6484 18.1633C26.5887 18.1235 26.5488 18.0637 26.5488 17.984C26.5488 17.9442 26.5488 17.9043 26.5688 17.8645C26.5887 17.8246 26.6086 17.7848 26.6484 17.7449L26.8078 17.6453C26.8875 17.6055 26.9872 17.5258 27.0469 17.466C27.1266 17.3664 27.1665 17.2668 27.2063 17.1472L28.342 13.1226C28.3619 13.0429 28.3818 12.9632 28.3818 12.8835C28.3818 12.8237 28.3818 12.7639 28.342 12.7042C28.3221 12.6444 28.2822 12.6046 28.2623 12.5448C28.2224 12.485 28.1826 12.4252 28.1826 12.3455C28.1826 12.3057 28.1826 12.2658 28.2025 12.2459C28.2224 12.1662 28.2822 12.1065 28.3619 12.0666C28.4815 12.0268 28.6209 12.0068 28.7405 12.0068H31.2509C32.1475 12.0268 32.8448 12.2061 33.323 12.5647ZM31.7091 13.7402C31.7091 13.4214 31.6494 13.1824 31.5099 13.0628C31.3505 12.9233 31.1313 12.8636 30.9321 12.8835H30.7329L29.4777 17.4062H29.6968C29.9558 17.4062 30.1949 17.3465 30.4141 17.2269C30.6532 17.0476 30.8325 16.8284 30.952 16.5495C31.1712 16.0913 31.3505 15.6131 31.4701 15.115C31.6095 14.6567 31.6892 14.1985 31.7091 13.7402Z" fill="#485BEA"/>
<path d="M40.3757 12.1661C40.4953 12.2658 40.575 12.4052 40.575 12.5646C40.575 12.6443 40.555 12.7439 40.5351 12.8236L40.296 13.6804C40.2761 13.8198 40.1964 13.9394 40.0968 14.039C39.9972 14.1187 39.8577 14.1386 39.7382 14.1386C39.6186 14.1386 39.4991 14.1187 39.3795 14.039C39.2799 13.9593 39.2201 13.8398 39.1803 13.7202L39.0209 13.1823C39.001 13.1026 38.9611 13.0229 38.9014 12.9631C38.8217 12.9233 38.742 12.9033 38.6423 12.9033H37.6661L37.2078 14.557H37.6063C37.6661 14.5371 37.7258 14.5172 37.7856 14.4574L38.1044 14.1785C38.1841 14.1187 38.2638 14.0589 38.3435 13.9991C38.4232 13.9593 38.5029 13.9394 38.6025 13.9394C38.7021 13.9394 38.8017 13.9593 38.8814 14.0191C38.9412 14.0788 38.981 14.1585 38.981 14.2582C38.981 14.298 38.981 14.3379 38.9611 14.3777L38.5826 15.6728C38.5626 15.7923 38.4829 15.8919 38.4033 15.9716C38.3236 16.0314 38.2239 16.0712 38.1044 16.0712C37.9251 16.0712 37.7657 15.9716 37.7059 15.8122L37.5465 15.4934C37.5067 15.4138 37.427 15.354 37.3473 15.354H36.9887L36.4706 17.3265H37.2875C37.3871 17.3265 37.5067 17.3065 37.6063 17.2667C37.7258 17.2069 37.8255 17.1272 37.9052 17.0276L38.463 16.41C38.5427 16.3103 38.6423 16.2506 38.742 16.1908C38.8416 16.1509 38.9611 16.1111 39.0607 16.131C39.1803 16.131 39.2998 16.1509 39.3995 16.2306C39.4791 16.2904 39.5389 16.41 39.519 16.5096C39.519 16.5693 39.4991 16.6291 39.4991 16.6889L39.2201 17.6253C39.1803 17.8246 39.0807 17.9839 38.9213 18.1234C38.742 18.223 38.5427 18.2828 38.3435 18.2629H33.9004C33.8008 18.2629 33.6813 18.243 33.6016 18.2031C33.5418 18.1633 33.502 18.1035 33.502 18.0238C33.502 17.9839 33.5219 17.9441 33.5219 17.9043C33.5418 17.8445 33.5816 17.7847 33.6414 17.7449L33.741 17.6851C33.8207 17.6253 33.9204 17.5655 33.9801 17.4858C34.0598 17.3862 34.1196 17.2866 34.1395 17.1671L35.2752 13.1623C35.2951 13.0826 35.315 13.0229 35.315 12.9432C35.315 12.8834 35.315 12.8236 35.2752 12.7639C35.2553 12.7041 35.2154 12.6642 35.1756 12.6045C35.1357 12.5447 35.0959 12.4849 35.0959 12.4052C35.0959 12.3654 35.0959 12.3255 35.1158 12.3056C35.1357 12.2259 35.1955 12.1661 35.2752 12.1263C35.3947 12.0864 35.5342 12.0665 35.6537 12.0665H39.778C40.0171 12.0068 40.2163 12.0466 40.3757 12.1661Z" fill="#485BEA"/>
<path d="M46.4722 12.5647C46.9504 12.9233 47.1895 13.4414 47.1895 14.1387C47.1895 14.5372 47.1098 14.9357 47.0102 15.3142C46.8508 15.9319 46.5718 16.5097 46.1733 17.0277C45.8147 17.466 45.3365 17.7848 44.7986 17.9442C44.0813 18.1633 43.3441 18.243 42.607 18.2231H40.0567C39.9571 18.2231 39.8574 18.2032 39.7578 18.1633C39.6981 18.1235 39.6582 18.0637 39.6582 17.984C39.6582 17.9442 39.6781 17.9043 39.6781 17.8645C39.6981 17.8246 39.718 17.7848 39.7578 17.7449C39.7977 17.725 39.8375 17.6852 39.9172 17.6453C39.9969 17.6055 40.0766 17.5258 40.1563 17.466C40.236 17.3664 40.2758 17.2668 40.3157 17.1472L41.4514 13.1226C41.4713 13.0429 41.4912 12.9632 41.4912 12.8835C41.4912 12.8237 41.4912 12.7639 41.4514 12.7042C41.4314 12.6444 41.3916 12.6046 41.3717 12.5448C41.3318 12.485 41.292 12.4252 41.292 12.3455C41.292 12.3057 41.292 12.2658 41.3119 12.2459C41.3318 12.1662 41.3916 12.1065 41.4713 12.0666C41.5908 12.0268 41.7303 12.0068 41.8498 12.0068H44.3603C45.2967 12.0268 45.994 12.2061 46.4722 12.5647ZM44.8384 13.7203C44.8384 13.4015 44.7787 13.1624 44.6392 13.0429C44.4798 12.9034 44.2606 12.8436 44.0614 12.8636H43.8622L42.607 17.3863H42.8261C43.0851 17.3863 43.3242 17.3265 43.5434 17.207C43.7825 17.0277 43.9618 16.8085 44.0813 16.5296C44.3005 16.0713 44.4798 15.5932 44.5994 15.0951C44.7388 14.6567 44.8185 14.1985 44.8384 13.7203Z" fill="#485BEA"/>
<path d="M13.1399 10.5924C10.749 10.5924 8.81641 8.65975 8.81641 6.26887C8.81641 5.61138 8.9758 4.95389 9.25473 4.35617C10.3107 2.20438 12.9008 1.32772 15.0327 2.38369C17.1646 3.43966 18.0611 6.02978 17.0052 8.16165C16.2879 9.65595 14.7936 10.5924 13.1399 10.5924Z" fill="#F4ECE9"/>
<path d="M14.4345 3.65892C12.9801 2.94166 11.2268 3.53938 10.5095 4.99383C9.79225 6.44828 10.39 8.20159 11.8444 8.91886C13.2989 9.63612 15.0522 9.0384 15.7694 7.58395C16.4867 6.10957 15.889 4.35626 14.4345 3.65892ZM11.9042 5.0536C12.0237 4.81452 12.2429 4.69497 12.4023 4.77467C12.5617 4.85436 12.6015 5.11337 12.482 5.35246C12.3624 5.59155 12.1433 5.71109 11.9839 5.6314C11.8245 5.5517 11.7846 5.27277 11.9042 5.0536ZM14.1755 7.50425C13.4583 8.06212 12.4222 7.92266 11.8843 7.20539C11.6651 6.92646 11.5456 6.56783 11.5456 6.20919C11.5456 6.14942 11.6053 6.08965 11.6651 6.08965C11.7249 6.08965 11.7846 6.14942 11.7846 6.20919C11.7846 6.98623 12.4222 7.60387 13.1992 7.60387C13.518 7.60387 13.8169 7.50425 14.056 7.30501C14.1158 7.26517 14.1755 7.28509 14.2154 7.32494C14.2353 7.38471 14.2154 7.46441 14.1755 7.50425ZM14.3748 6.78699C14.2154 6.70729 14.1755 6.44828 14.2951 6.20919C14.4146 5.97011 14.6338 5.85056 14.7932 5.93026C14.9526 6.00995 14.9924 6.26897 14.8729 6.50805C14.7533 6.74714 14.5342 6.86669 14.3748 6.78699Z" fill="#485BEA"/>
</svg>
