<svg width="37" height="55" viewBox="0 0 37 55" fill="none" xmlns="http://www.w3.org/2000/svg">
<path d="M37 18.7103C37 8.3769 28.7173 0 18.5 0C8.28273 0 0 8.3769 0 18.7103V36.2897C0 46.6231 8.28273 55 18.5 55C28.7173 55 37 46.6231 37 36.2897V18.7103Z" fill="#F3C3B4"/>
<path d="M3.19336 32.2578H7.65333V33.3472H5.86373V35.125H7.65333V36.2125H3.19336V35.125H4.9867V33.3472H3.19336V32.2578Z" fill="#202067"/>
<path d="M6.26916 41.1752C5.85091 41.29 5.41056 41.2945 4.99007 41.1884C4.63104 41.0939 4.30646 40.897 4.05507 40.621C3.80361 40.3364 3.62849 39.9913 3.54642 39.6187C3.45222 39.2459 3.45609 38.8547 3.55764 38.4839C3.65924 38.1237 3.86034 37.8002 4.13735 37.5515C4.46597 37.2676 4.86033 37.0724 5.28366 36.9841C5.70191 36.8693 6.14226 36.8648 6.56275 36.9709C6.92216 37.0645 7.24697 37.2616 7.49775 37.5383C7.74455 37.8259 7.919 38.1695 8.00626 38.54C8.09351 38.9104 8.091 39.2967 7.99892 39.666C7.89768 40.0274 7.69658 40.3522 7.41921 40.6021C7.09049 40.8893 6.69458 41.0866 6.26916 41.1752ZM6.01484 40.0953C6.26062 40.0429 6.49422 39.9434 6.703 39.8021C6.86554 39.6908 6.99128 39.5327 7.06391 39.3482C7.12995 39.1622 7.13779 38.9602 7.08635 38.7695C7.05121 38.5727 6.9541 38.3928 6.80952 38.2564C6.66493 38.1201 6.48063 38.0347 6.28412 38.013C6.03387 37.9806 5.77978 37.9979 5.53611 38.064C5.29032 38.1164 5.05673 38.2159 4.84795 38.3572C4.68316 38.4656 4.55702 38.6245 4.48804 38.8107C4.41905 38.9969 4.41084 39.2005 4.4646 39.3917C4.50154 39.5867 4.59944 39.7646 4.74387 39.8991C4.8883 40.0336 5.07162 40.1176 5.26683 40.1388C5.51659 40.1736 5.77068 40.1589 6.01484 40.0953Z" fill="#202067"/>
<path d="M4.8125 43.0889L8.5787 40.6719L9.16401 41.5929L6.12899 43.5353L7.12196 45.1201L6.38331 45.5948L4.8125 43.0889Z" fill="#202067"/>
<path d="M8.54716 47.7775L7.2793 46.7146L10.1273 43.2422L11.3933 44.307C11.7139 44.5615 11.9666 44.8931 12.1282 45.2715C12.267 45.6168 12.3002 45.9963 12.2236 46.3609C12.1302 46.7699 11.9374 47.1489 11.6626 47.4635C11.4052 47.7922 11.0719 48.0519 10.6921 48.22C10.3524 48.364 9.97759 48.4009 9.61681 48.3259C9.22057 48.2363 8.85283 48.0477 8.54716 47.7775ZM8.69489 46.6938L9.10256 47.0361C9.26425 47.1806 9.45596 47.2866 9.66356 47.3462C9.85291 47.3897 10.0513 47.3649 10.2246 47.2763C10.4667 47.1544 10.6788 46.9793 10.8454 46.7637C11.0173 46.5654 11.1449 46.3318 11.2194 46.0791C11.2726 45.887 11.2573 45.6822 11.1764 45.5004C11.0785 45.2986 10.9366 45.1221 10.7613 44.984L10.3648 44.6531L8.69489 46.6938Z" fill="#202067"/>
<path d="M14.0532 46.3359L15.3622 46.5837L15.9737 49.5511L16.0242 49.5624L17.6436 47.0262L18.9526 47.274L18.1392 51.7015L17.1069 51.5123L17.6099 48.7889H17.5725L16.0223 51.2854L15.3641 51.1606L14.8031 48.2518H14.7657L14.2608 50.9903L13.2285 50.8012L14.0532 46.3359Z" fill="#202067"/>
<path d="M18.7598 47.2059L19.936 46.9393L21.2637 48.5733L21.3011 48.5639L21.8135 46.5137L22.9897 46.2471L22.0547 49.5398L22.3801 51.0093L21.3273 51.2533L21.0019 49.7837L18.7598 47.2059Z" fill="#202067"/>
<path d="M26.7118 49.2276L23.875 45.7476L24.7072 45.0535L25.846 46.4512L27.2017 45.3164L26.0629 43.9188L26.8932 43.2266L29.7337 46.7141L28.9035 47.4063L27.7646 46.0067L26.407 47.1415L27.5477 48.541L26.7118 49.2276Z" fill="#202067"/>
<path d="M31.3038 44.5624L30.7335 45.5799L27.5938 42.0319L28.3006 40.7686L32.9233 41.6669L32.3511 42.6882L28.9308 41.9487L28.914 41.979L31.3038 44.5624ZM29.7013 43.823L30.8943 41.6915L31.6031 42.1L30.41 44.2315L29.7013 43.823Z" fill="#202067"/>
<path d="M29.5048 35.7451L33.918 36.409L33.7834 37.3224L30.9783 38.7163V38.7447L33.5234 39.1229L33.3663 40.2028L28.9531 39.539L29.0896 38.6123L31.8946 37.2373V37.1995L29.3533 36.8212L29.5048 35.7451Z" fill="#202067"/>
<path d="M33.8045 33.6442V35.3104H29.3446V33.6461C29.334 33.2332 29.426 32.8242 29.612 32.4565C29.7865 32.1287 30.0533 31.8608 30.3787 31.6868C30.7527 31.5085 31.1611 31.416 31.5745 31.416C31.988 31.416 32.3964 31.5085 32.7704 31.6868C33.0975 31.8591 33.3654 32.1274 33.539 32.4565C33.7246 32.8236 33.8159 33.2321 33.8045 33.6442ZM32.8864 34.2211V33.6858C32.8925 33.4645 32.8491 33.2447 32.7592 33.0428C32.6731 32.8661 32.529 32.725 32.3515 32.6437C32.1075 32.5448 31.8456 32.4991 31.583 32.5095C31.3201 32.4983 31.0579 32.5448 30.8144 32.6456C30.6338 32.7262 30.4874 32.869 30.4011 33.0485C30.3098 33.2532 30.2663 33.4765 30.274 33.701V34.2211H32.8864Z" fill="#202067"/>
<path d="M7.78224 24.4604H3.32227V23.3692H5.11373V21.5914H3.32227V20.5039H7.78224V21.5914H5.98329V23.3692H7.77476L7.78224 24.4604Z" fill="#202067"/>
<path d="M5.77469 15.4722C6.20804 15.4939 6.62856 15.6281 6.9958 15.8618C7.30689 16.0659 7.55353 16.356 7.70641 16.6977C7.85716 17.0474 7.91764 17.43 7.88219 17.8098C7.85598 18.1911 7.73296 18.5591 7.52502 18.8783C7.31715 19.1894 7.02589 19.4342 6.68538 19.5838C6.28725 19.7539 5.85292 19.819 5.42313 19.7729C4.9901 19.7493 4.57002 19.6153 4.20201 19.3833C3.88834 19.1764 3.64134 18.8812 3.49141 18.5341C3.33839 18.1845 3.27782 17.8006 3.31563 17.4202C3.34201 17.04 3.46364 16.6729 3.66906 16.3535C3.87579 16.0409 4.16733 15.7953 4.50869 15.6462C4.90922 15.4803 5.34493 15.4204 5.77469 15.4722ZM5.68306 16.5823C5.43209 16.5534 5.17795 16.5746 4.93505 16.6447C4.74572 16.6991 4.57695 16.8098 4.45072 16.9625C4.35581 17.0775 4.28832 17.2131 4.25345 17.3587C4.21858 17.5044 4.21727 17.6561 4.24962 17.8024C4.28196 17.9486 4.34711 18.0853 4.44002 18.202C4.53293 18.3188 4.65111 18.4123 4.78545 18.4755C5.01165 18.5853 5.25681 18.6495 5.50728 18.6646C5.75827 18.6914 6.01202 18.6703 6.25528 18.6022C6.39325 18.5561 6.51967 18.4802 6.62576 18.3798C6.73185 18.2794 6.81508 18.1568 6.86969 18.0206C6.9243 17.8844 6.94898 17.7379 6.94202 17.5911C6.93506 17.4443 6.89662 17.3008 6.82937 17.1705C6.73002 16.9994 6.58213 16.8623 6.40488 16.7771C6.17875 16.6662 5.93374 16.6001 5.68306 16.5823Z" fill="#202067"/>
<path d="M8.1936 15.4075L4.15625 13.4917L4.6144 12.5044L7.85326 14.0439L8.6424 12.3418L9.43529 12.7201L8.1936 15.4075Z" fill="#202067"/>
<path d="M10.6823 11.3021L9.52667 12.4918L6.34766 9.32956L7.50145 8.14184C7.78035 7.84023 8.12942 7.61398 8.51687 7.48368C8.86835 7.37393 9.24438 7.37393 9.59586 7.48368C9.98877 7.61027 10.3447 7.83311 10.6318 8.13238C10.937 8.41786 11.1665 8.77614 11.2994 9.17447C11.4137 9.52893 11.4189 9.9101 11.3144 10.2676C11.1921 10.6603 10.9749 11.0159 10.6823 11.3021ZM9.62578 11.062L9.99978 10.6837C10.1569 10.5301 10.2777 10.3426 10.3532 10.1352C10.4146 9.94599 10.4073 9.74081 10.3326 9.55651C10.2274 9.31184 10.0719 9.09264 9.87636 8.91348C9.69722 8.71927 9.47832 8.56694 9.23495 8.46714C9.0495 8.39908 8.84631 8.39908 8.66086 8.46714C8.45403 8.54992 8.26857 8.67928 8.11856 8.84539L7.75764 9.22364L9.62578 11.062Z" fill="#202067"/>
<path d="M12.3125 4.46876L13.6065 4.13211L15.3887 6.55293L15.4392 6.5397L15.8506 3.5496L17.1427 3.21484L18.2516 7.58368L17.2362 7.84845L16.5537 5.16285L16.5182 5.17231L16.1554 8.0981L15.5046 8.26642L13.7898 5.86262L13.7543 5.87208L14.4387 8.57092L13.4214 8.8338L12.3125 4.46876Z" fill="#202067"/>
<path d="M19.1367 3.21484L20.3204 3.43612L20.9076 5.46545H20.9469L22.2129 3.78412L23.3985 4.00539L21.2536 6.65317L20.9824 8.13403L19.9277 7.94491L20.1951 6.4735L19.1367 3.21484Z" fill="#202067"/>
<path d="M23.7598 9.06745L26.5853 5.57617L27.4194 6.26649L26.2861 7.66792L27.6456 8.80268L28.7789 7.40125L29.6129 8.08967L26.7873 11.5715L25.9552 10.8831L27.0903 9.47975L25.7289 8.35445L24.5957 9.75777L23.7598 9.06745Z" fill="#202067"/>
<path d="M27.4542 12.671L26.9062 11.6383L31.5495 10.8516L32.2264 12.132L29.0044 15.5949L28.4565 14.5622L30.9043 12.0355L30.8875 12.0033L27.4542 12.671ZM28.9277 11.6951L30.0703 13.8549L29.3485 14.2464L28.2059 12.0866L28.9277 11.6951Z" fill="#202067"/>
<path d="M33.7866 19.1114L29.3584 19.552L29.2686 18.631L31.6566 16.5903V16.5619L29.0947 16.8173L28.9844 15.7317L33.4238 15.291L33.5135 16.2253L31.1199 18.2452V18.283L33.6781 18.0277L33.7866 19.1114Z" fill="#202067"/>
<path d="M29.2156 21.8087V20.1406H33.6756V21.8068C33.6869 22.219 33.5956 22.6274 33.41 22.9946C33.2361 23.3227 32.9691 23.5908 32.6433 23.7643C32.2734 23.9535 31.8627 24.0464 31.4484 24.0347C31.033 24.0465 30.6213 23.9543 30.2497 23.7662C29.9235 23.5933 29.6564 23.325 29.483 22.9964C29.2974 22.6292 29.2055 22.221 29.2156 21.8087ZM30.1356 21.2413V21.7766C30.1287 21.9973 30.1722 22.2167 30.2628 22.4177C30.35 22.5963 30.4971 22.7378 30.6779 22.8168C30.9222 22.9174 31.1849 22.9638 31.4484 22.9529C31.7107 22.9638 31.9722 22.9174 32.2151 22.8168C32.3951 22.7347 32.5417 22.5924 32.6302 22.4139C32.7199 22.2087 32.7634 21.9858 32.7574 21.7614V21.2413H30.1356Z" fill="#202067"/>
<path d="M24.2995 23.0983C24.2995 23.0983 24.1593 20.1101 23.5515 19.5257C22.9438 18.9413 19.0149 16.3862 18.6483 15.3196C18.2818 14.2529 18.2182 13.5172 18.3005 12.7834C18.3005 12.7834 15.2468 11.7016 13.8125 13.903C13.8125 13.903 14.2071 17.591 14.1865 17.99C14.1659 18.3891 13.6797 19.8397 14.3436 21.2827C15.0074 22.7258 16.15 23.887 15.7087 25.9107C15.7087 25.9107 17.1505 25.5059 16.9354 23.6411C16.7204 21.7763 16.1369 21.2317 16.4866 20.861C16.8363 20.4903 20.3762 24.2539 20.3762 24.2539C20.3762 24.2539 20.7745 25.8899 20.9933 26.3343C20.9505 26.738 21.0132 27.146 21.1754 27.5174C21.3375 27.8889 21.5933 28.2107 21.9171 28.4506C21.9171 28.4506 22.4912 26.3702 21.4571 23.4009L19.5198 20.8042C19.5198 20.8042 19.488 20.6775 19.6507 20.6927C19.6507 20.6927 21.3524 22.8411 21.573 23.2837C21.7937 23.7262 22.1453 25.7783 22.1453 25.7783C22.1453 25.7783 23.2673 23.6449 22.4164 22.391C21.8472 21.5667 21.2309 20.7767 20.5707 20.025C20.5707 20.025 20.5464 19.8359 20.7184 19.9191C20.7184 19.9191 22.4407 21.6704 22.9381 23.2799C22.9381 23.2799 23.6151 21.9768 23.1046 21.1995C22.5941 20.4222 21.4103 19.2004 21.4103 19.2004C21.4103 19.2004 21.3711 19.0246 21.5412 19.0964C21.5412 19.0964 22.9213 20.4922 23.1532 21.0312C23.3147 21.3307 23.3954 21.6679 23.3869 22.009C23.4187 22.4912 23.8675 23.1891 24.2995 23.0983Z" fill="#202067"/>
<path d="M13.5142 29.294C13.5142 29.294 12.4352 32.0779 12.7662 32.8666C13.0972 33.6552 15.6311 37.5947 15.532 38.7295C15.4329 39.8643 15.1991 40.5527 14.827 41.1881C14.827 41.1881 17.1794 43.4369 19.3711 42.0165C19.3711 42.0165 20.4931 38.4855 20.6801 38.1319C20.8671 37.7782 21.8881 36.651 21.8638 35.0604C21.8395 33.4699 21.2766 31.9323 22.4996 30.2642C22.4996 30.2642 21.0204 30.0372 20.4669 31.8245C19.9134 33.6117 20.2219 34.3531 19.7544 34.5479C19.2869 34.7427 17.5778 29.85 17.5778 29.85C17.5778 29.85 17.8751 28.1913 17.8545 27.6977C18.0569 27.3467 18.1645 26.9481 18.1665 26.5418C18.1685 26.1355 18.0647 25.7358 17.8657 25.3828C17.8657 25.3828 16.4932 27.0452 16.2388 30.1829L16.9513 33.3583C16.9513 33.3583 16.9307 33.4869 16.7867 33.4075C16.7867 33.4075 16.1005 30.7427 16.078 30.2472C16.0556 29.7516 16.5623 27.7337 16.5623 27.7337C16.5623 27.7337 14.6699 29.2145 14.9467 30.7143C15.137 31.7037 15.3836 32.6813 15.6853 33.642C15.6853 33.642 15.6311 33.8311 15.5077 33.6779C15.5077 33.6779 14.6418 31.3668 14.8382 29.693C14.8382 29.693 13.6956 30.6027 13.8433 31.5275C13.9911 32.4524 14.5914 34.0524 14.5914 34.0524C14.5914 34.0524 14.5577 34.2302 14.4305 34.094C14.4305 34.094 13.7349 32.25 13.7405 31.6637C13.7152 31.3225 13.7797 30.9805 13.9275 30.6727C14.0734 30.2093 13.9443 29.3885 13.5142 29.294Z" fill="#202067"/>
<path d="M32.0036 30.1083L31.9494 30.0724C31.8746 30.0213 30.1074 28.792 30.1074 27.7386C30.1072 27.513 30.1797 27.2936 30.3139 27.1135C30.4482 26.9334 30.6368 26.8025 30.8513 26.7406C31.0658 26.6788 31.2943 26.6894 31.5023 26.7709C31.7103 26.8524 31.8863 27.0002 32.0036 27.192C32.1205 26.9997 32.2963 26.8514 32.5043 26.7696C32.7123 26.6878 32.9411 26.677 33.1557 26.7389C33.3703 26.8008 33.559 26.932 33.693 27.1125C33.827 27.293 33.899 27.5129 33.8979 27.7386C33.8979 28.7845 32.1308 30.0213 32.056 30.0724L32.0036 30.1083ZM31.1341 26.8932C30.9114 26.8932 30.6978 26.9827 30.5403 27.1419C30.3829 27.3012 30.2944 27.5172 30.2944 27.7424C30.2944 28.6029 31.7082 29.6696 32.0017 29.8833C32.2953 29.6696 33.7053 28.5934 33.7109 27.7405C33.7111 27.5421 33.6425 27.35 33.517 27.1976C33.3916 27.0451 33.2172 26.942 33.0243 26.9063C32.8314 26.8705 32.6322 26.9043 32.4614 27.0018C32.2906 27.0993 32.159 27.2543 32.0896 27.4398L32.0036 27.6686L31.9157 27.4398C31.8552 27.2792 31.7483 27.1408 31.6088 27.0426C31.4694 26.9445 31.3039 26.8911 31.1341 26.8894V26.8932Z" fill="#202067"/>
<path d="M5.23606 30.1085L5.18183 30.0726C5.10703 30.0215 3.33987 28.7922 3.33987 27.7388C3.33815 27.5125 3.40984 27.2919 3.54395 27.1107C3.67806 26.9296 3.86719 26.7979 4.08237 26.7359C4.29755 26.6739 4.5269 26.6849 4.73528 26.7673C4.94366 26.8498 5.11957 26.999 5.23606 27.1922C5.35341 27.0004 5.52942 26.8526 5.73738 26.7711C5.94534 26.6896 6.1739 26.679 6.38837 26.7408C6.60284 26.8027 6.79152 26.9335 6.92577 27.1136C7.06002 27.2938 7.13252 27.5132 7.13225 27.7388C7.13225 28.7846 5.36509 30.0215 5.29029 30.0726L5.23606 30.1085ZM4.36651 26.8934C4.14382 26.8934 3.93026 26.9828 3.7728 27.1421C3.61534 27.3014 3.52687 27.5173 3.52687 27.7426C3.52687 28.6031 4.9406 29.6698 5.23419 29.8835C5.52778 29.6698 6.93777 28.5936 6.94338 27.7407C6.94357 27.5423 6.87495 27.3502 6.74948 27.1978C6.62401 27.0453 6.44963 26.9422 6.25674 26.9065C6.06384 26.8707 5.86464 26.9045 5.69385 27.002C5.52306 27.0995 5.3915 27.2545 5.32208 27.44L5.23606 27.665L5.15004 27.4362C5.08906 27.2766 4.98214 27.1392 4.84312 27.0418C4.70411 26.9444 4.53938 26.8913 4.37025 26.8896L4.36651 26.8934Z" fill="#202067"/>
</svg>
