<svg width="55" height="55" viewBox="0 0 55 55" fill="none" xmlns="http://www.w3.org/2000/svg">
<path d="M27.5 0C34.7935 0 41.7882 2.89731 46.9454 8.05456C52.1027 13.2118 55 20.2065 55 27.5V45.5834C55 48.0779 54.0091 50.4703 52.2452 52.2341C50.4813 53.998 48.089 54.9889 45.5945 54.9889H9.40549C6.911 54.9889 4.51868 53.998 2.7548 52.2341C0.990933 50.4703 0 48.0779 0 45.5834L0 27.5C0 20.2065 2.89731 13.2118 8.05456 8.05456C13.2118 2.89731 20.2065 0 27.5 0Z" fill="#7B65C8"/>
<path d="M39.0106 43.6416H15.9865C14.39 43.6416 13.0957 44.9352 13.0957 46.531C13.0957 48.1268 14.39 49.4204 15.9865 49.4204H39.0106C40.6072 49.4204 41.9014 48.1268 41.9014 46.531C41.9014 44.9352 40.6072 43.6416 39.0106 43.6416Z" fill="#FFD3C8"/>
<path d="M8.25483 28.3601C8.35995 28.3601 8.41251 28.302 8.41251 28.1858C7.6201 27.6743 6.96633 26.9749 6.50928 26.1498C6.06711 25.3283 5.81561 24.4178 5.77344 23.4858C5.96076 23.2193 6.2253 23.0165 6.53141 22.9049C6.86168 22.7703 7.21488 22.7008 7.57155 22.7002C7.99307 22.6898 8.41052 22.7849 8.78596 22.9768C8.9962 23.5467 9.17048 24.0834 9.30603 24.6034L9.0294 25.8206C9.01385 25.8718 9.00547 25.9248 9.0045 25.9783C9.0045 26.1083 9.07366 26.1719 9.20921 26.1719C9.25347 26.0281 9.35859 25.5965 9.52457 24.8745C9.56699 24.6901 9.62231 24.4328 9.69055 24.1027C9.75971 23.7735 9.85099 23.3863 9.96718 22.9381C10.338 22.7668 10.7428 22.6817 11.1512 22.6891C11.6127 22.6653 12.068 22.8044 12.4375 23.082C12.5995 23.2207 12.7273 23.395 12.8108 23.5913C12.8943 23.7875 12.9313 24.0005 12.9188 24.2134C12.9113 24.9595 12.6999 25.6894 12.3075 26.3241C11.9667 26.8923 11.5392 27.4038 11.0405 27.84V29.7018C10.7847 29.8701 10.5049 29.9988 10.2106 30.0835C9.95345 30.1462 9.68968 30.1778 9.42498 30.1776C8.99031 30.2014 8.55826 30.0965 8.1829 29.876C8.04052 29.7821 7.92524 29.6524 7.84856 29.5C7.77187 29.3476 7.73645 29.1778 7.74582 29.0074V28.0171C7.82664 28.0964 7.91258 28.1703 8.00309 28.2384C8.0732 28.3028 8.16077 28.3452 8.25483 28.3601Z" fill="#FFD3C8"/>
<path d="M16.6391 30.2551C16.001 30.2622 15.3701 30.1201 14.7967 29.8401C14.2318 29.5577 13.7616 29.1164 13.444 28.5704C13.0829 27.9191 12.906 27.1818 12.9322 26.4376C12.9322 25.1983 13.3011 24.231 14.0388 23.5357C14.7398 22.9083 15.6577 22.5789 16.5976 22.6173C17.7318 22.6173 18.6281 22.9677 19.2865 23.6685C19.9672 24.4247 20.3229 25.4184 20.2768 26.4348C20.2768 27.7055 19.9237 28.6755 19.2173 29.345C18.5774 29.9536 17.718 30.2569 16.6391 30.2551ZM16.8743 26.1831C16.883 25.9229 16.8663 25.6626 16.8245 25.4057C16.7913 25.2646 16.7276 25.1955 16.6391 25.1955C16.5834 25.1953 16.5295 25.2149 16.487 25.2508C16.487 25.32 16.5036 25.4085 16.5202 25.5274C16.5368 25.6464 16.5423 25.8815 16.5423 26.2495V26.6118C16.5423 26.8663 16.5423 27.0545 16.5257 27.1651C16.5091 27.2758 16.5036 27.3809 16.498 27.4639V27.5994C16.5406 27.6353 16.5945 27.6549 16.6502 27.6547C16.7387 27.6547 16.8023 27.5856 16.8355 27.4445C16.8733 27.1891 16.8863 26.9306 16.8743 26.6727V26.1831Z" fill="#FFD3C8"/>
<path d="M25.4833 22.6843C25.9048 22.6756 26.3176 22.8048 26.659 23.0522C26.821 23.1718 26.951 23.3296 27.0374 23.5115C27.1238 23.6934 27.1639 23.8939 27.1542 24.0951V27.2432C27.1542 28.2003 26.8628 28.938 26.28 29.4562C25.6972 29.9744 24.8913 30.2326 23.8622 30.2308C22.8332 30.2308 22.0328 29.9772 21.4611 29.47C20.8801 28.961 20.5869 28.2197 20.5869 27.257V23.2209C21.0229 22.8671 21.5691 22.6772 22.1305 22.6843C22.553 22.6605 22.9686 22.7991 23.2924 23.0715C23.4436 23.2244 23.5601 23.4081 23.6341 23.61C23.7081 23.8119 23.7378 24.0273 23.7212 24.2417V27.5364C23.7626 27.5675 23.8132 27.584 23.865 27.5834C23.8868 27.585 23.9088 27.5819 23.9293 27.5743C23.9498 27.5666 23.9685 27.5547 23.984 27.5391C24.0138 27.4913 24.0264 27.4347 24.0199 27.3787V24.2417C24.0223 24.0567 24.0112 23.8718 23.9867 23.6884C23.9614 23.5435 23.9158 23.4029 23.8512 23.2707C24.3063 22.8842 24.8862 22.6758 25.4833 22.6843Z" fill="#FFD3C8"/>
<path d="M9.50244 37.5694C9.53874 37.5691 9.5742 37.5585 9.6048 37.539V37.0272C9.93428 36.8229 10.2979 36.6795 10.6781 36.604C11.1185 36.4982 11.5696 36.4435 12.0226 36.4408C12.2565 36.7 12.4278 37.0095 12.5233 37.3453C12.6482 37.7016 12.7191 38.0746 12.7335 38.4519C12.6347 38.633 12.5066 38.7966 12.3545 38.936C12.159 39.122 11.9416 39.2836 11.7072 39.4173C11.0543 39.7935 10.3112 39.9848 9.55777 39.9706C8.3996 39.9706 7.48764 39.634 6.82188 38.9609C6.15612 38.2877 5.81217 37.3435 5.79004 36.1282C5.79004 34.922 6.16626 33.975 6.9187 33.2872C7.25084 32.9761 7.64486 32.7385 8.07502 32.59C8.51939 32.4337 8.98712 32.3542 9.45818 32.3549C10.2895 32.3198 11.1089 32.5621 11.7874 33.0437C12.0654 33.2317 12.2933 33.4847 12.4514 33.7807C12.6095 34.0766 12.693 34.4067 12.6948 34.7422C12.7115 34.9535 12.6779 35.1657 12.5966 35.3615C12.5153 35.5572 12.3887 35.7309 12.2273 35.8681C11.9116 36.0772 11.5469 36.2006 11.1692 36.2263C10.7914 36.252 10.4134 36.1791 10.0723 36.0147C9.8577 35.9355 9.67239 35.7927 9.54117 35.6053C9.54117 35.2983 9.54117 35.0521 9.55777 34.8778H9.51904H9.48031C9.45615 34.8763 9.43194 34.8797 9.40912 34.8878C9.38631 34.8958 9.36536 34.9084 9.34753 34.9248C9.30275 34.984 9.2733 35.0534 9.26177 35.1268C9.22737 35.402 9.21534 35.6795 9.22581 35.9566C9.2295 37.0337 9.32171 37.5713 9.50244 37.5694Z" fill="#FFD3C8"/>
<path d="M15.3858 37.7986C15.3521 37.8402 15.3327 37.8917 15.3305 37.9452C15.3305 38.0559 15.4329 38.1481 15.6376 38.2218C15.8789 38.3026 16.1303 38.3492 16.3845 38.3602C16.3899 38.6735 16.4431 38.9841 16.5422 39.2813C16.3931 39.4794 16.1863 39.6263 15.9502 39.7018C15.6001 39.8485 15.2231 39.9201 14.8436 39.9121C14.3596 39.926 13.881 39.8064 13.4605 39.5663C13.2503 39.4662 13.0807 39.2972 12.98 39.0873C12.8793 38.8774 12.8536 38.6393 12.9072 38.4127L14.1078 33.0405C14.4418 32.835 14.8058 32.6829 15.1867 32.5896C15.6123 32.4803 16.0501 32.4254 16.4896 32.4264C17.0603 32.4099 17.6274 32.5214 18.1494 32.7528C18.3814 32.846 18.5885 32.9921 18.7542 33.1794C18.9199 33.3667 19.0396 33.59 19.1038 33.8317L20.3901 39.1513C20.0001 39.6576 19.361 39.9121 18.4786 39.9121C18.1018 39.9237 17.7279 39.844 17.3887 39.6797C17.2565 39.6199 17.1407 39.529 17.0511 39.4149C16.9615 39.3008 16.9008 39.1667 16.8741 39.0241L16.7524 38.3353C16.9761 38.3322 17.1974 38.2881 17.4053 38.2052C17.6155 38.1223 17.7206 38.0365 17.7206 37.9452C17.7206 37.9169 17.7141 37.889 17.7017 37.8636C17.6892 37.8381 17.6711 37.8159 17.6487 37.7986C17.4895 37.908 17.3112 37.9868 17.1231 38.031C16.9352 38.0805 16.742 38.1066 16.5477 38.1084C16.1372 38.1324 15.7299 38.0238 15.3858 37.7986ZM16.6445 36.1526C16.7017 36.1544 16.7583 36.14 16.8077 36.1111C16.7081 35.5413 16.6445 35.201 16.6086 35.0959C16.5726 34.9908 16.5062 34.9327 16.4232 34.9327C16.376 34.9348 16.3297 34.9471 16.2877 34.9687L16.5034 36.1056C16.5227 36.1224 16.5451 36.1351 16.5693 36.1432C16.5935 36.1513 16.6191 36.1545 16.6445 36.1526Z" fill="#FFD3C8"/>
<path d="M20.5817 38.7702V33.1186C20.5817 32.9231 20.7394 32.7599 21.0548 32.629C21.4073 32.4923 21.7833 32.4265 22.1613 32.4353C22.391 32.4335 22.6198 32.4623 22.8418 32.5211C23.0174 32.5626 23.1829 32.6388 23.3287 32.7452C23.4802 32.9367 23.6215 33.1362 23.7519 33.3427C23.881 33.5474 24.1687 34.0213 24.615 34.7646C24.6561 34.7644 24.6959 34.7508 24.7285 34.7258C24.7457 34.7108 24.7591 34.692 24.7678 34.6709C24.7764 34.6497 24.78 34.6269 24.7783 34.6041C24.7538 34.4894 24.7058 34.3811 24.6372 34.286L24.0286 33.2348V32.9194C24.2364 32.754 24.4739 32.6301 24.7285 32.5543C25.0039 32.4667 25.2914 32.4228 25.5805 32.4243C25.9823 32.4057 26.3816 32.4955 26.7368 32.6843C26.9038 32.7822 27.0403 32.9246 27.1312 33.0956C27.222 33.2665 27.2636 33.4593 27.2513 33.6525V39.0053C27.2559 39.1561 27.214 39.3046 27.1314 39.4308C27.0488 39.557 26.9294 39.6547 26.7894 39.7108C26.4563 39.8547 26.0952 39.9218 25.7326 39.9072C25.4925 39.9071 25.2531 39.8802 25.0189 39.8269C24.8247 39.7904 24.6378 39.7222 24.4657 39.625C24.1808 39.2557 23.9158 38.8716 23.6717 38.4742L23.0963 37.5143C23.0739 37.5142 23.0518 37.5188 23.0312 37.5277C23.0106 37.5366 22.9921 37.5496 22.9768 37.5659C22.9615 37.5823 22.9497 37.6016 22.9422 37.6227C22.9347 37.6438 22.9316 37.6662 22.9331 37.6886C22.9596 37.8218 23.0153 37.9475 23.0963 38.0565L23.8017 39.1962V39.495C23.3616 39.7781 22.8478 39.9253 22.3245 39.9182C21.8761 39.942 21.4302 39.8384 21.0382 39.6195C20.8934 39.5314 20.7747 39.4062 20.6944 39.2569C20.6142 39.1076 20.5753 38.9396 20.5817 38.7702Z" fill="#FFD3C8"/>
<path d="M42.7783 23.3644C41.1542 22.8309 39.4083 22.7909 37.7614 23.2494C36.1145 23.708 34.6406 24.6446 33.5259 25.9408C32.4112 27.2369 31.7059 28.8345 31.4991 30.5315C31.2922 32.2285 31.5932 33.9487 32.3639 35.4747C33.1346 37.0006 34.3405 38.2638 35.829 39.1045C37.3176 39.9453 39.022 40.3258 40.7267 40.1979C42.4315 40.0701 44.0601 39.4397 45.4066 38.3864C46.7531 37.3331 47.7571 35.9042 48.2916 34.2803C48.6467 33.2016 48.7858 32.0635 48.7009 30.931C48.6159 29.7985 48.3087 28.6938 47.7967 27.6801C47.2847 26.6663 46.578 25.7634 45.7169 25.0229C44.8558 24.2825 43.8573 23.7189 42.7783 23.3644ZM44.2611 27.2152C45.091 27.4918 45.3676 28.8749 44.9056 30.2941C44.4437 31.7132 43.3842 32.662 42.557 32.3909C41.7299 32.1198 41.4505 30.7311 41.9125 29.3093C42.3745 27.8874 43.4312 26.9413 44.2611 27.2152ZM39.3094 25.5886C40.1393 25.8652 40.4159 27.2483 39.9539 28.6702C39.492 30.0921 38.4325 31.0382 37.6081 30.7643C36.7837 30.4905 36.5016 29.1046 36.9635 27.6854C37.4255 26.2663 38.485 25.3175 39.3094 25.5886ZM38.1116 37.5501C36.9372 37.1636 35.964 36.3271 35.4055 35.2241C34.847 34.121 34.7487 32.8415 35.1322 31.6662C35.1767 31.5615 35.2587 31.4772 35.3621 31.4298C35.4655 31.3824 35.5829 31.3753 35.6912 31.4099C35.7996 31.4445 35.8911 31.5183 35.9479 31.6169C36.0046 31.7155 36.0225 31.8317 35.9981 31.9428C35.8432 32.4111 35.782 32.9053 35.818 33.3972C35.8541 33.8891 35.9867 34.3691 36.2082 34.8098C36.4298 35.2504 36.736 35.6431 37.1093 35.9655C37.4826 36.2878 37.9158 36.5335 38.384 36.6884C38.8523 36.8434 39.3465 36.9045 39.8384 36.8685C40.3303 36.8324 40.8103 36.6999 41.251 36.4783C41.6917 36.2567 42.0844 35.9506 42.4067 35.5772C42.7291 35.2039 42.9747 34.7707 43.1297 34.3025C43.1742 34.1978 43.2561 34.1135 43.3595 34.0661C43.4629 34.0187 43.5803 34.0116 43.6887 34.0462C43.797 34.0808 43.8885 34.1546 43.9453 34.2532C44.0021 34.3518 44.02 34.468 43.9955 34.5791C43.6079 35.7524 42.7708 36.7241 41.6678 37.2811C40.5647 37.838 39.2858 37.9348 38.1116 37.5501Z" fill="#FFD3C8"/>
<path d="M17.8424 47.401V46.1285L17.8203 45.8961L17.8424 45.7578H18.357V47.401H17.8424Z" fill="#7B65C8"/>
<path d="M18.6837 47.401V46.134L18.6367 45.8961L18.6837 45.7578H19.8788L19.995 45.827L19.8428 46.2226L19.6409 46.1977H19.1706L19.1927 46.383H19.7709V46.7675H19.4445L19.1927 46.7454V47.022L19.2204 47.2544L19.1927 47.3899L18.6837 47.401Z" fill="#7B65C8"/>
<path d="M21.176 47.4012V46.729L20.6006 45.8991V45.7607H21.1843L21.4166 46.2393H21.4637L21.6933 45.7607H22.2742V45.8991L21.6795 46.7511L21.696 46.9835V47.4095L21.176 47.4012Z" fill="#7B65C8"/>
<path d="M23.1289 47.4254C23.0292 47.4241 22.93 47.4121 22.8329 47.3894C22.7328 47.3654 22.6386 47.3212 22.5563 47.2594C22.4708 47.1909 22.4034 47.1026 22.3598 47.0022C22.2603 46.7288 22.2603 46.429 22.3598 46.1557C22.4026 46.0547 22.4701 45.9662 22.5563 45.8984C22.6386 45.8367 22.7328 45.7924 22.8329 45.7684C22.93 45.7458 23.0292 45.7337 23.1289 45.7324C23.2297 45.7331 23.33 45.7461 23.4276 45.7712C23.528 45.7946 23.6222 45.8389 23.7043 45.9012C23.7904 45.969 23.858 46.0575 23.9007 46.1584C23.9977 46.4266 23.9977 46.7202 23.9007 46.9883C23.858 47.0893 23.7904 47.1778 23.7043 47.2456C23.6215 47.3068 23.5275 47.3509 23.4276 47.3756C23.3305 47.4044 23.2301 47.4212 23.1289 47.4254ZM23.1289 46.9607C23.1718 46.9639 23.215 46.9572 23.2548 46.9408C23.2947 46.9245 23.3302 46.8991 23.3585 46.8666C23.4074 46.7786 23.4331 46.6796 23.4331 46.5789C23.4331 46.4782 23.4074 46.3792 23.3585 46.2912C23.3302 46.2587 23.2947 46.2333 23.2548 46.217C23.215 46.2007 23.1718 46.1939 23.1289 46.1972C22.9297 46.1972 22.8274 46.3244 22.8274 46.5789C22.8213 46.6772 22.8486 46.7747 22.9048 46.8555C22.9314 46.8893 22.9655 46.9163 23.0044 46.9346C23.0433 46.9528 23.0859 46.9617 23.1289 46.9607Z" fill="#7B65C8"/>
<path d="M24.8969 47.4259C24.6876 47.445 24.4787 47.3859 24.3104 47.2599C24.2453 47.1898 24.1957 47.1068 24.1647 47.0162C24.1337 46.9257 24.1221 46.8296 24.1306 46.7343V45.7578H24.6535V46.6181C24.6487 46.6817 24.6487 46.7455 24.6535 46.809C24.6625 46.8583 24.6879 46.9031 24.7254 46.9363C24.7715 46.9706 24.8285 46.9873 24.8858 46.9833C24.9442 46.9873 25.0023 46.9728 25.0518 46.9418C25.0894 46.9102 25.1141 46.8659 25.121 46.8173C25.1332 46.7516 25.1388 46.6849 25.1376 46.6181V45.7578H25.6715V46.7343C25.6768 46.8686 25.6502 47.0023 25.594 47.1244C25.542 47.2262 25.4558 47.3065 25.3506 47.3512C25.2063 47.4076 25.0517 47.433 24.8969 47.4259Z" fill="#7B65C8"/>
<path d="M26.8332 47.401L26.4598 46.1257L26.3906 45.8961V45.7578H26.9301L27.1707 46.8865H27.2178L27.392 45.7578H28.0947L28.2302 46.6126L28.269 46.8892H28.3132L28.5567 45.7606H29.085V45.8989L29.0159 46.1285L28.6479 47.4038H27.9536L27.7627 46.2613H27.7129L27.6742 46.5186L27.5303 47.4038L26.8332 47.401Z" fill="#7B65C8"/>
<path d="M29.0166 47.401L29.1273 47.0082V46.715L29.3015 46.643L29.6252 45.7578H30.3251L30.7207 46.8007L30.9005 47.1299V47.4065H30.397L30.2808 47.0607H29.6501L29.5505 47.4065L29.0166 47.401ZM29.805 46.6486H30.1536L29.9986 46.1866H29.9516L29.805 46.6486Z" fill="#7B65C8"/>
<path d="M31.1095 47.401V46.1313L31.0625 45.8989L31.1095 45.7578H31.5743L32.0445 46.3443L32.1552 46.5379H32.1801V45.7578H32.7168V45.8989L32.6919 46.1313V47.401H32.2299L31.6462 46.6071H31.6241V46.7454L31.6462 47.401H31.1095Z" fill="#7B65C8"/>
<path d="M33.3671 47.4008V46.1975L32.9023 46.2196V45.7549H34.3547V46.2196L33.8789 46.1975V47.0274L33.9038 47.2598L33.8789 47.3981L33.3671 47.4008Z" fill="#7B65C8"/>
<path d="M35.1323 47.401V46.1285L35.1074 45.8961L35.1323 45.7578H35.6441V47.401H35.1323Z" fill="#7B65C8"/>
<path d="M36.2831 47.4008V46.1975L35.8184 46.2196V45.7549H37.2707V46.2196L36.7921 46.1975V47.0274L36.817 47.2598L36.7921 47.3981L36.2831 47.4008Z" fill="#7B65C8"/>
<path d="M50.1062 45.9764C49.7998 45.976 49.4962 46.0361 49.213 46.1531C48.9297 46.2701 48.6723 46.4418 48.4555 46.6584C48.2386 46.875 48.0666 47.1322 47.9492 47.4153C47.8319 47.6984 47.7715 48.0019 47.7715 48.3084C47.7718 48.002 47.7118 47.6986 47.5947 47.4155C47.4776 47.1324 47.3059 46.8752 47.0892 46.6586C46.8726 46.442 46.6154 46.2702 46.3323 46.1532C46.0492 46.0361 45.7458 45.976 45.4395 45.9764C45.7459 45.9764 46.0494 45.916 46.3325 45.7986C46.6156 45.6812 46.8728 45.5092 47.0894 45.2924C47.306 45.0755 47.4777 44.8181 47.5947 44.5349C47.7118 44.2516 47.7718 43.9481 47.7715 43.6416C47.7715 44.2608 48.0174 44.8547 48.4553 45.2925C48.8932 45.7304 49.487 45.9764 50.1062 45.9764Z" fill="#FFD3C8"/>
<path d="M9.56034 45.9764C9.25386 45.976 8.95032 46.0361 8.66707 46.1531C8.38382 46.2701 8.12641 46.4418 7.90957 46.6584C7.69273 46.875 7.52071 47.1322 7.40334 47.4153C7.28597 47.6984 7.22556 48.0019 7.22556 48.3084C7.22593 48.002 7.16586 47.6986 7.04879 47.4155C6.93173 47.1324 6.75997 46.8752 6.54335 46.6586C6.32673 46.442 6.0695 46.2702 5.78641 46.1532C5.50331 46.0361 5.1999 45.976 4.89355 45.9764C5.20003 45.9764 5.5035 45.916 5.78662 45.7986C6.06973 45.6812 6.32693 45.5092 6.54351 45.2924C6.7601 45.0755 6.93181 44.8181 7.04884 44.5349C7.16588 44.2516 7.22593 43.9481 7.22556 43.6416C7.22556 44.2608 7.47155 44.8547 7.9094 45.2925C8.34726 45.7304 8.94112 45.9764 9.56034 45.9764Z" fill="#FFD3C8"/>
<path d="M48.7261 19.4559C48.6082 19.456 48.4935 19.4185 48.3984 19.3488C48.3034 19.2792 48.2331 19.181 48.1977 19.0686C46.8221 14.6552 44.0718 10.797 40.3483 8.05736C36.6247 5.31771 32.1229 3.84001 27.5001 3.84001C22.8773 3.84001 18.3755 5.31771 14.6519 8.05736C10.9284 10.797 8.17807 14.6552 6.80248 19.0686C6.78087 19.138 6.7458 19.2024 6.69927 19.2583C6.65275 19.3141 6.59569 19.3602 6.53134 19.394C6.40138 19.4622 6.24965 19.476 6.10952 19.4324C5.96939 19.3887 5.85234 19.2912 5.78412 19.1612C5.7159 19.0313 5.70209 18.8795 5.74575 18.7394C7.18642 14.157 10.028 10.1418 13.8704 7.25918C17.807 4.32087 22.5878 2.7334 27.5001 2.7334C32.4124 2.7334 37.1932 4.32087 41.1298 7.25918C44.9704 10.1435 47.8116 14.1581 49.2545 18.7394C49.2977 18.8795 49.2835 19.0311 49.215 19.1608C49.1465 19.2905 49.0294 19.3876 48.8893 19.431C48.8364 19.4474 48.7814 19.4558 48.7261 19.4559Z" fill="#FFD3C8"/>
<path d="M45.9211 19.4556C45.8052 19.4577 45.6916 19.4233 45.5962 19.3573C45.5009 19.2912 45.4288 19.1969 45.39 19.0877C44.093 15.387 41.6708 12.1848 38.4627 9.92965C35.2546 7.67452 31.4214 6.4795 27.5002 6.51201C23.5788 6.47909 19.7454 7.67395 16.5373 9.92913C13.3291 12.1843 10.907 15.3868 9.61037 19.0877C9.55009 19.2091 9.44732 19.3042 9.32156 19.3549C9.1958 19.4056 9.05581 19.4083 8.92818 19.3626C8.80054 19.3168 8.69414 19.2258 8.62917 19.1068C8.56421 18.9878 8.5452 18.8491 8.57576 18.717C9.96919 14.8114 12.5365 11.4323 15.9258 9.04296C19.315 6.65366 23.3603 5.37109 27.5071 5.37109C31.6539 5.37109 35.6992 6.65366 39.0884 9.04296C42.4777 11.4323 45.045 14.8114 46.4384 18.717C46.463 18.7855 46.4739 18.8581 46.4704 18.9308C46.4668 19.0035 46.449 19.0748 46.4179 19.1405C46.3868 19.2063 46.3431 19.2653 46.2892 19.3142C46.2352 19.363 46.1722 19.4007 46.1037 19.4252C46.045 19.4455 45.9832 19.4558 45.9211 19.4556Z" fill="#FFD3C8"/>
<path d="M11.956 19.4558C11.8819 19.4557 11.8085 19.4406 11.7403 19.4116C11.6053 19.3542 11.4987 19.2457 11.4437 19.1098C11.3887 18.9739 11.3899 18.8218 11.447 18.6868C12.7883 15.5396 15.025 12.8561 17.8792 10.9699C20.7333 9.08373 24.0789 8.07812 27.5 8.07812C30.9211 8.07812 34.2667 9.08373 37.1208 10.9699C39.975 12.8561 42.2117 15.5396 43.553 18.6868C43.5847 18.7542 43.6024 18.8272 43.6052 18.9016C43.608 18.9761 43.5957 19.0503 43.5691 19.1198C43.5425 19.1894 43.5022 19.2528 43.4505 19.3064C43.3988 19.36 43.3368 19.4026 43.2683 19.4317C43.1997 19.4607 43.126 19.4757 43.0515 19.4755C42.9771 19.4754 42.9034 19.4603 42.8349 19.431C42.7665 19.4018 42.7046 19.359 42.6531 19.3053C42.6015 19.2515 42.5613 19.188 42.535 19.1183C41.2787 16.1707 39.1838 13.6574 36.5107 11.8909C33.8375 10.1244 30.7041 9.18253 27.5 9.18253C24.2959 9.18253 21.1625 10.1244 18.4893 11.8909C15.8162 13.6574 13.7213 16.1707 12.465 19.1183C12.4227 19.2183 12.3518 19.3037 12.2613 19.3637C12.1708 19.4237 12.0646 19.4557 11.956 19.4558Z" fill="#FFD3C8"/>
<path d="M40.0925 18.9023C38.8841 16.6112 37.0733 14.6933 34.8552 13.3554C32.6372 12.0176 30.096 11.3105 27.5057 11.3105C24.9154 11.3105 22.3742 12.0176 20.1562 13.3554C17.9381 14.6933 16.1273 16.6112 14.9189 18.9023" fill="#FFD3C8"/>
</svg>
