<svg width="55" height="53" viewBox="0 0 55 53" fill="none" xmlns="http://www.w3.org/2000/svg">
<path d="M27.5012 7.36225L35.9973 0.5L38.8165 11.0188L49.7479 10.432L45.8081 20.5859L55 26.5012L45.8081 32.4141L49.7479 42.5704L38.8165 41.9836L35.9973 52.5L27.5012 45.6377L19.0027 52.5L16.1859 41.9836L5.25215 42.5704L9.19186 32.4141L0 26.5012L9.19186 20.5859L5.25215 10.432L16.1859 11.0188L19.0027 0.5L27.5012 7.36225Z" fill="#FDC5F5"/>
<path d="M20.1543 22.0452L20.4158 18.2289L20.3246 17.5133L20.4926 17.1055L21.7571 17.1913L21.6779 18.3219L21.5555 19.0923L21.6227 19.1305C21.7142 19.0308 21.8275 18.9533 21.9538 18.9039C22.1439 18.8279 22.3498 18.7993 22.5536 18.8204C22.7291 18.819 22.9028 18.8558 23.0624 18.9284C23.222 19.0009 23.3637 19.1074 23.4774 19.2402C23.682 19.5392 23.7675 19.903 23.7173 20.2611L23.6549 21.1675L23.7557 21.8616L23.5805 22.2766L22.3161 22.1907L22.4409 20.3565C22.4598 20.2117 22.4294 20.0647 22.3545 19.9391C22.3123 19.8865 22.2586 19.8441 22.1975 19.8152C22.1364 19.7863 22.0695 19.7716 22.0018 19.7721L21.5531 19.9463L21.402 22.1287L20.1543 22.0452Z" fill="#6D47A8"/>
<path d="M26.0233 22.5136C25.6912 22.4945 25.3656 22.4136 25.0636 22.2751C24.7964 22.1553 24.5769 21.9506 24.4397 21.6931C24.2866 21.3707 24.2284 21.0118 24.2718 20.6579C24.282 20.3861 24.3542 20.1202 24.4829 19.8803C24.5986 19.6814 24.7597 19.5123 24.9532 19.3866C25.1415 19.2624 25.3514 19.1743 25.5722 19.1266C25.7977 19.0796 26.0286 19.0635 26.2584 19.0789C26.5745 19.0885 26.8867 19.1506 27.1822 19.2625C27.3285 19.3205 27.4684 19.3932 27.5997 19.4796L27.8756 20.6126L27.7052 21.0348L25.529 20.8869C25.5474 21.0597 25.6284 21.2199 25.757 21.3377C25.9532 21.4861 26.1942 21.5643 26.4408 21.5595C26.6614 21.5787 26.8837 21.5658 27.1006 21.5213C27.2853 21.4784 27.4317 21.4379 27.5373 21.4045L27.4749 22.3395C27.2755 22.4173 27.0665 22.4678 26.8535 22.4897C26.5782 22.5253 26.3001 22.5333 26.0233 22.5136ZM25.565 20.4408L26.5439 20.3693L26.5008 20.0592C26.458 20.0334 26.4108 20.0156 26.3616 20.0067C26.307 19.9951 26.2517 19.9871 26.196 19.9829C26.0924 19.9697 25.9871 19.985 25.8915 20.0271C25.7959 20.0691 25.7137 20.1363 25.6538 20.2214C25.6073 20.2866 25.5768 20.3618 25.565 20.4408Z" fill="#6D47A8"/>
<path d="M28.3379 22.599L28.5922 18.7826L28.501 18.0671L28.6762 17.6592L29.9406 17.745L29.5999 22.6824L28.3379 22.599Z" fill="#6D47A8"/>
<path d="M30.4492 22.7445L30.7059 18.9281L30.6124 18.2126L30.7899 17.8047L32.0544 17.8906L31.7137 22.8303L30.4492 22.7445Z" fill="#6D47A8"/>
<path d="M34.1049 23.0611C33.6252 23.0585 33.1629 22.8821 32.8045 22.565C32.5118 22.274 32.3846 21.8279 32.4254 21.2221C32.4662 20.6162 32.6653 20.1845 32.9868 19.9388C33.3979 19.7047 33.8695 19.5967 34.3421 19.6285C34.8148 19.6603 35.2674 19.8306 35.6429 20.1177C35.926 20.4063 36.0484 20.8548 36.0052 21.4654C35.962 22.076 35.7845 22.4958 35.463 22.7462C35.066 23.0167 34.5813 23.1291 34.1049 23.0611ZM34.1673 22.1523C34.247 22.1658 34.3289 22.1555 34.4028 22.1228C34.4766 22.0901 34.5391 22.0365 34.5824 21.9687C34.6782 21.7865 34.7307 21.585 34.736 21.3795C34.7603 21.174 34.7356 20.9656 34.664 20.7713C34.6304 20.6981 34.5759 20.6364 34.5071 20.594C34.4384 20.5515 34.3586 20.5302 34.2777 20.5328C34.1968 20.5187 34.1136 20.5283 34.0382 20.5605C33.9628 20.5927 33.8984 20.6461 33.853 20.714C33.6746 21.0869 33.6454 21.5132 33.7714 21.9066C33.8061 21.9816 33.862 22.0447 33.9324 22.0884C34.0027 22.132 34.0844 22.1543 34.1673 22.1523Z" fill="#6D47A8"/>
<path d="M19.6738 28.9671L19.9354 25.1508L19.8442 24.4352L20.0121 24.0273L21.2766 24.1132L21.1974 25.2438L21.0774 26.0214L21.1446 26.0619C21.2356 25.9627 21.348 25.8852 21.4733 25.8353C21.6667 25.7592 21.876 25.7313 22.0828 25.7542C22.2583 25.7528 22.4319 25.7896 22.5915 25.8622C22.7511 25.9347 22.8928 26.0412 23.0065 26.174C23.21 26.4734 23.2955 26.8369 23.2464 27.1949L23.1841 28.1013L23.2848 28.7954L23.1073 29.2104L21.8524 29.1222L21.9772 27.2879C21.9965 27.1431 21.9661 26.996 21.8908 26.8705C21.8486 26.8179 21.7949 26.7756 21.7338 26.7466C21.6727 26.7177 21.6058 26.703 21.5381 26.7036L21.0894 26.8753L20.9383 29.0601L19.6738 28.9671Z" fill="#6D47A8"/>
<path d="M25.5481 29.4372C25.2167 29.4223 24.8911 29.3454 24.5884 29.2106C24.3212 29.0908 24.1017 28.8861 23.9646 28.6286C23.8116 28.3061 23.7526 27.9475 23.7942 27.5934C23.8064 27.3216 23.8793 27.056 24.0078 26.8158C24.1192 26.6136 24.277 26.4404 24.4684 26.3101C24.6562 26.1851 24.8663 26.0968 25.0875 26.0502C25.3127 26.0019 25.5438 25.9858 25.7737 26.0025C26.0887 26.0123 26.3999 26.0736 26.695 26.1837C26.842 26.2428 26.9827 26.3163 27.1149 26.4032L27.3908 27.5361L27.2205 27.9583L25.0443 27.8104C25.0658 27.9849 25.1512 28.1454 25.2842 28.2613C25.4803 28.41 25.7214 28.4882 25.968 28.4831C26.1887 28.5022 26.4109 28.4893 26.6278 28.4449C26.8126 28.3996 26.9589 28.3614 27.0645 28.3257L26.9997 29.2607C26.8019 29.3409 26.5934 29.3923 26.3807 29.4133C26.1047 29.4491 25.8258 29.457 25.5481 29.4372ZM25.0899 27.3644L26.0688 27.2905L26.0256 26.9876C25.9821 26.9614 25.9341 26.9437 25.884 26.9351C25.8305 26.9223 25.7759 26.9143 25.7209 26.9112C25.607 26.8979 25.4917 26.9186 25.3898 26.9709C25.3055 27.0152 25.2331 27.079 25.1786 27.1569C25.1338 27.2186 25.1034 27.2895 25.0899 27.3644Z" fill="#6D47A8"/>
<path d="M27.8633 29.5228L28.1176 25.7064L28.0264 24.9909L28.2016 24.583L29.466 24.6665L29.1253 29.5991L27.8633 29.5228Z" fill="#6D47A8"/>
<path d="M29.9746 29.6663L30.2313 25.85L30.1378 25.1344L30.3153 24.7266L31.5774 24.8124L31.2391 29.7522L29.9746 29.6663Z" fill="#6D47A8"/>
<path d="M33.6285 29.986C33.1489 29.9822 32.687 29.806 32.328 29.4898C32.0329 29.1988 31.9081 28.7504 31.9489 28.147C31.9897 27.5435 32.1889 27.1094 32.5104 26.8637C32.9083 26.5997 33.3893 26.4886 33.8636 26.5513C34.344 26.5495 34.8081 26.7246 35.1664 27.0426C35.4496 27.3312 35.5719 27.7796 35.5287 28.3903C35.4856 29.0009 35.3056 29.4207 34.9865 29.6711C34.5884 29.939 34.1047 30.0512 33.6285 29.986ZM33.6909 29.0772C33.7708 29.0904 33.8529 29.0798 33.9267 29.0467C34.0006 29.0136 34.063 28.9594 34.1059 28.8912C34.2024 28.7093 34.2549 28.5076 34.2595 28.302C34.2837 28.0972 34.2591 27.8897 34.1875 27.6962C34.1532 27.6235 34.0985 27.5624 34.0299 27.52C33.9613 27.4777 33.8819 27.456 33.8012 27.4576C33.7202 27.4447 33.6371 27.4551 33.5618 27.4877C33.4866 27.5202 33.4223 27.5735 33.3765 27.6413C33.1976 28.014 33.1684 28.4405 33.295 28.8339C33.3297 28.9086 33.3858 28.9714 33.4561 29.0147C33.5265 29.0579 33.6081 29.0797 33.6909 29.0772Z" fill="#6D47A8"/>
<path d="M19.1953 35.8914L19.4592 32.075L19.3657 31.3595L19.536 30.9492L20.8005 31.0351L20.7213 32.1657L20.6037 32.9385L20.6709 32.979C20.7612 32.8791 20.8738 32.8015 20.9996 32.7524C21.193 32.6763 21.4023 32.6484 21.609 32.6713C21.7845 32.6699 21.9582 32.7067 22.1178 32.7793C22.2774 32.8518 22.4191 32.9583 22.5328 33.0911C22.7364 33.3896 22.8218 33.7523 22.7727 34.1096L22.7103 35.0184L22.8111 35.7125L22.6336 36.1275L21.3787 36.0393L21.5035 34.2026C21.5233 34.0583 21.4919 33.9115 21.4147 33.7876C21.3736 33.7344 21.3205 33.6915 21.2596 33.6625C21.1988 33.6335 21.1319 33.6192 21.0644 33.6207L20.6157 33.7924L20.4646 35.9772L19.1953 35.8914Z" fill="#6D47A8"/>
<path d="M25.0737 36.3612C24.7425 36.3446 24.4172 36.2678 24.114 36.1346C23.8516 36.0158 23.6358 35.8147 23.4997 35.5621C23.3468 35.2396 23.2878 34.881 23.3294 34.5269C23.3411 34.2551 23.4141 33.9894 23.5429 33.7494C23.6537 33.5467 23.8116 33.3733 24.0036 33.2437C24.1907 33.119 24.4 33.0308 24.6202 32.9837C24.8463 32.9355 25.0782 32.9194 25.3088 32.936C25.624 32.9447 25.9354 33.006 26.2302 33.1173C26.3765 33.1768 26.517 33.2495 26.6501 33.3343L26.9236 34.4697L26.7532 34.8919L24.577 34.744C24.6005 34.9179 24.6856 35.0777 24.817 35.1948C25.0129 35.3439 25.2541 35.4222 25.5008 35.4166C25.7207 35.4363 25.9424 35.4226 26.1582 35.3761C26.3453 35.3331 26.4917 35.295 26.5973 35.2592L26.5325 36.1942C26.3348 36.2744 26.1261 36.3251 25.9135 36.3445C25.6348 36.3783 25.3535 36.3839 25.0737 36.3612ZM24.6154 34.2884L25.5943 34.2145L25.5512 33.9115C25.5075 33.8858 25.4595 33.8681 25.4096 33.8591C25.3558 33.847 25.3013 33.8382 25.2464 33.8328C25.1428 33.82 25.0376 33.8354 24.9421 33.8774C24.8465 33.9194 24.7643 33.9864 24.7042 34.0714C24.658 34.1358 24.6276 34.2102 24.6154 34.2884Z" fill="#6D47A8"/>
<path d="M27.3867 36.448L27.6434 32.6317L27.5499 31.9161L27.7274 31.5059L28.9919 31.5917L28.6512 36.5339L27.3867 36.448Z" fill="#6D47A8"/>
<path d="M29.5117 36.5906L29.7684 32.7743L29.6749 32.0587L29.8524 31.6484L31.1145 31.7343L30.7762 36.6765L29.5117 36.5906Z" fill="#6D47A8"/>
<path d="M33.1541 36.9105C32.6745 36.9067 32.2125 36.7305 31.8536 36.4143C31.5593 36.1233 31.4329 35.6757 31.4745 35.0715C31.5153 34.4609 31.7025 34.0339 32.0336 33.7858C32.4333 33.524 32.9145 33.414 33.3892 33.4758C33.8698 33.4729 34.3343 33.6481 34.692 33.9671C34.9752 34.2549 35.0959 34.7033 35.0543 35.3124C35.0135 35.9182 34.8312 36.3452 34.5121 36.5956C34.114 36.8635 33.6303 36.9757 33.1541 36.9105ZM33.2164 36.0017C33.2964 36.0149 33.3785 36.0043 33.4523 35.9712C33.5262 35.9381 33.5886 35.8839 33.6315 35.8157C33.8039 35.4412 33.8329 35.0172 33.7131 34.623C33.6786 34.5506 33.6238 34.4896 33.5553 34.4473C33.4867 34.405 33.4074 34.3832 33.3268 34.3845C33.246 34.3716 33.1632 34.3818 33.088 34.4139C33.0128 34.446 32.9484 34.4987 32.9021 34.5658C32.8022 34.7483 32.7479 34.952 32.7438 35.1597C32.7189 35.3641 32.7453 35.5714 32.8205 35.7632C32.856 35.8369 32.9124 35.8988 32.9827 35.9412C33.053 35.9835 33.1343 36.0046 33.2164 36.0017Z" fill="#6D47A8"/>
</svg>
