<svg width="55" height="55" viewBox="0 0 55 55" fill="none" xmlns="http://www.w3.org/2000/svg">
<path d="M27.4974 55C20.2042 54.9986 13.2101 52.1004 8.0535 46.9429C2.89688 41.7853 7.62939e-06 34.7907 7.62939e-06 27.4974L7.62939e-06 9.42231C-0.000671387 8.18563 0.242237 6.96093 0.714867 5.81813C1.1875 4.67533 1.88059 3.63681 2.75457 2.76187C3.62855 1.88693 4.66631 1.1927 5.80859 0.718819C6.95087 0.244938 8.1753 0.000682831 9.41198 7.62939e-06L45.5829 7.62939e-06C48.0795 3.8147e-06 50.4741 0.991455 52.24 2.75639C54.0059 4.52133 54.9986 6.91529 55 9.41198L55 27.4871C55.0014 31.0997 54.291 34.6771 52.9095 38.015C51.5279 41.353 49.5023 44.3861 46.9483 46.941C44.3943 49.496 41.362 51.5227 38.0246 52.9055C34.6871 54.2883 31.11 55 27.4974 55Z" fill="#B388EB"/>
<path d="M17.9152 41.8856H15.1109C14.8213 41.904 14.5306 41.8734 14.2511 41.7952C14.1894 41.778 14.135 41.7412 14.0959 41.6905C14.0568 41.6398 14.0352 41.5778 14.0342 41.5137V33.2767C14.0342 32.867 15.2685 32.6621 17.737 32.6621C19.1555 32.6621 20.1332 32.799 20.6703 33.0727C21.1469 33.2819 21.5237 33.6679 21.7213 34.1494C21.8111 34.4394 21.8538 34.7419 21.8478 35.0454C21.8826 35.5669 21.7651 36.0872 21.5095 36.5431C21.4317 36.6824 21.3263 36.8044 21.1998 36.9016C21.0733 36.9988 20.9283 37.0692 20.7736 37.1086C21.1624 37.1862 21.5135 37.3927 21.7703 37.6947C22.0372 38.0012 22.1697 38.5219 22.168 39.2569C22.168 40.1177 21.9098 40.7494 21.3933 41.1522C20.9389 41.5103 20.2503 41.7367 19.3276 41.8314C18.9196 41.8701 18.4548 41.8856 17.9152 41.8856ZM17.9152 36.3004C18.3516 36.3004 18.5685 36.0112 18.5685 35.4302C18.5865 35.2007 18.5255 34.972 18.3954 34.7821C18.3511 34.7192 18.2928 34.6674 18.2252 34.6307C18.1576 34.594 18.0824 34.5733 18.0055 34.5703H17.6079V36.3004H17.9152ZM17.595 39.9774H17.9152C18.3516 39.9774 18.5685 39.6882 18.5685 39.1072C18.5865 38.8777 18.5255 38.649 18.3954 38.4591C18.3515 38.3958 18.2934 38.3436 18.2256 38.3069C18.1579 38.2701 18.0826 38.2497 18.0055 38.2473H17.6079L17.595 39.9774Z" fill="#FFF0FE"/>
<path d="M27.3939 42.001C26.7795 42.0112 26.1662 41.9444 25.5683 41.8022C25.0559 41.6675 24.578 41.4255 24.1662 41.0921C23.3055 40.4156 22.8751 39.1245 22.8751 37.2189C22.861 36.5002 22.9828 35.7853 23.234 35.1118C23.4337 34.562 23.7706 34.0722 24.2127 33.6891C25.0338 33.0005 26.0968 32.6562 27.4016 32.6562C27.9946 32.6469 28.5865 32.7076 29.1653 32.8369C29.675 32.9603 30.1557 33.1823 30.5803 33.4902C31.4754 34.1375 31.9239 35.3752 31.9256 37.2034C31.9256 38.8422 31.5193 40.0472 30.7068 40.8184C29.8943 41.5896 28.79 41.9838 27.3939 42.001ZM26.973 39.8036C27.0267 39.8621 27.092 39.9087 27.1646 39.9407C27.2373 39.9726 27.3158 39.9891 27.3952 39.9891C27.4746 39.9891 27.5531 39.9726 27.6258 39.9407C27.6984 39.9087 27.7637 39.8621 27.8174 39.8036C27.963 39.5617 28.0513 39.2896 28.0756 39.0083C28.1553 38.4465 28.1898 37.8792 28.1789 37.3118C28.1904 36.7505 28.1559 36.1891 28.0756 35.6334C28.0514 35.3585 27.9629 35.0932 27.8174 34.8588C27.7647 34.7992 27.6993 34.7522 27.626 34.7214C27.5527 34.6905 27.4733 34.6766 27.3939 34.6806C27.3148 34.676 27.2357 34.6897 27.1627 34.7206C27.0897 34.7515 27.0248 34.7988 26.973 34.8588C26.8283 35.0936 26.7399 35.3587 26.7148 35.6334C26.6369 36.1893 26.6032 36.7506 26.6141 37.3118C26.6038 37.8791 26.6375 38.4463 26.7148 39.0083C26.7401 39.2894 26.8284 39.5612 26.973 39.8036Z" fill="#FFF0FE"/>
<path d="M34.9164 41.8852C34.3316 41.8898 33.7477 41.8362 33.1735 41.7251C32.6364 41.6193 32.3652 41.4669 32.3652 41.2578C32.3652 41.139 32.5434 40.7413 32.8972 40.0855C33.2509 39.4296 33.788 38.4871 34.5058 37.2735C33.2251 34.8635 32.5847 33.5999 32.5847 33.4829C32.5847 33.2952 32.8558 33.1326 33.3981 32.9949C33.8828 32.8662 34.3814 32.7977 34.8828 32.7909C35.2609 32.7767 35.6374 32.8463 35.9854 32.9949C36.272 33.1317 36.427 33.2686 36.4528 33.4054L36.9511 35.6726H37.0157L37.3746 33.4312C37.3746 33.3719 37.4857 33.2892 37.6819 33.1885C37.9325 33.0655 38.1969 32.9727 38.4695 32.9122C38.8436 32.8256 39.2268 32.7848 39.6108 32.7909C39.9773 32.7817 40.3429 32.8331 40.6927 32.9432C40.82 32.9754 40.9325 33.05 41.0119 33.1546C41.0912 33.2593 41.1325 33.3878 41.1291 33.519C41.0289 33.9602 40.8736 34.387 40.6669 34.7895C40.3605 35.4884 39.8948 36.4618 39.2699 37.7099C40.6471 39.9477 41.3357 41.1304 41.3357 41.2578C41.3357 41.6761 40.8278 41.8852 39.8122 41.8852C38.299 41.8852 37.4874 41.6804 37.3772 41.2707L36.8788 39.489H36.8014L36.3908 41.2707C36.3047 41.6821 35.8133 41.8869 34.9164 41.8852Z" fill="#FFF0FE"/>
<path d="M50.9538 27.8388V11.0134C50.9538 9.23286 50.2464 7.52522 48.9874 6.26618C47.7283 5.00713 46.0207 4.2998 44.2401 4.2998H10.7624C8.98188 4.2998 7.27425 5.00713 6.0152 6.26618C4.75615 7.52522 4.04883 9.23286 4.04883 11.0134V27.8388C4.04883 34.0598 6.52011 40.026 10.919 44.4249C15.3179 48.8238 21.2842 51.2951 27.5052 51.2951C33.7262 51.2951 39.6924 48.8238 44.0913 44.4249C48.4902 40.026 50.9615 34.0598 50.9615 27.8388H50.9538ZM43.6333 43.9824C40.4414 47.1743 36.3746 49.3479 31.9474 50.2285C27.5201 51.1091 22.9311 50.6571 18.7607 48.9297C14.5902 47.2023 11.0257 44.277 8.51781 40.5238C6.0099 36.7706 4.67125 32.3579 4.67113 27.8439H50.3211C50.3288 30.8425 49.7416 33.8129 48.5937 36.583C47.4457 39.3532 45.7597 41.8682 43.6333 43.9824Z" fill="#FFF0FE"/>
<path d="M11.4517 17.9586C10.9284 18.0131 10.4027 18.0407 9.87657 18.0412C9.54188 18.0578 9.20642 18.0344 8.87727 17.9715C8.73525 17.9224 8.66553 17.845 8.66553 17.7339V12.2262H6.88384C6.79089 12.2262 6.71084 12.1048 6.64112 11.8673C6.56233 11.5158 6.52849 11.1557 6.54042 10.7957C6.5337 10.3605 6.58494 9.9263 6.69276 9.5046C6.79605 9.12502 6.93291 8.93652 7.10333 8.93652H14.0338C14.1604 8.93652 14.2482 9.0553 14.2921 9.29286C14.3483 9.63415 14.3725 9.97994 14.3644 10.3257C14.3669 10.7601 14.3192 11.1933 14.2223 11.6168C14.1294 12.0196 14.0003 12.221 13.8376 12.221H12.2367V17.7339C12.2392 17.8269 11.9784 17.9018 11.4517 17.9586Z" fill="#B388EB"/>
<path d="M17.9336 17.938C17.42 18.0068 16.9025 18.0413 16.3843 18.0413C16.0443 18.061 15.7032 18.0305 15.3721 17.9509C15.309 17.9351 15.2528 17.8989 15.2123 17.8481C15.1717 17.7972 15.1489 17.7345 15.1475 17.6694V9.79126C15.1475 9.57694 15.4057 9.38328 15.8911 9.20769C16.4106 9.03117 16.9563 8.94387 17.505 8.94947C18.3158 8.94947 18.7212 9.14141 18.7212 9.52529V12.3398H19.8625V9.79126C19.8625 9.57694 20.1207 9.38328 20.6113 9.20769C21.1336 9.03161 21.6817 8.94433 22.2329 8.94947C23.0368 8.94947 23.4379 9.14141 23.4362 9.52529V17.6694C23.4362 17.7805 23.178 17.8708 22.6615 17.9276C22.148 17.9963 21.6304 18.0308 21.1122 18.0309C20.7748 18.0507 20.4363 18.0202 20.1078 17.9406C20.0447 17.9247 19.9885 17.8886 19.9479 17.8378C19.9073 17.7869 19.8846 17.7241 19.8831 17.6591V14.7361H18.7083V17.6694C18.7083 17.7805 18.45 17.8708 17.9336 17.938Z" fill="#B388EB"/>
<path d="M27.2396 17.9587C26.7189 18.0134 26.1957 18.041 25.6722 18.0413C25.3349 18.0576 24.9969 18.0342 24.6651 17.9716C24.5205 17.9226 24.4482 17.8451 24.4482 17.7341V9.76552C24.4482 9.57616 24.6961 9.39024 25.1919 9.20777C25.7239 9.01883 26.2852 8.92615 26.8497 8.93406C27.3945 8.93406 27.7534 9.04768 27.9238 9.28007C27.9802 9.35457 28.0118 9.44488 28.0142 9.53829V17.7341C28.0194 17.827 27.7612 17.9019 27.2396 17.9587Z" fill="#B388EB"/>
<path d="M31.833 17.9385C31.3125 18.0075 30.7881 18.042 30.2631 18.0418C29.9273 18.0619 29.5905 18.0315 29.2638 17.9514C29.2021 17.9342 29.1477 17.8975 29.1086 17.8467C29.0695 17.796 29.0478 17.734 29.0469 17.67V9.80731C29.0469 9.59213 29.2922 9.39588 29.7828 9.21857C30.3209 9.03447 30.8874 8.94705 31.456 8.96036C31.6226 8.95674 31.7891 8.96537 31.9544 8.98618C32.099 9.00857 32.2341 9.07245 32.3432 9.17008C32.4523 9.2677 32.5307 9.39488 32.5689 9.53618L33.798 12.8413H33.8497V9.80731C33.8497 9.59299 34.095 9.39674 34.5804 9.21857C35.1158 9.0342 35.6798 8.94676 36.2459 8.96036C36.783 8.96036 37.1265 9.06106 37.2788 9.26763C37.3695 9.38026 37.4227 9.51837 37.4311 9.6627V17.67C37.4311 17.781 37.1729 17.8714 36.6565 17.9282C36.0827 18.0006 35.5048 18.0351 34.9265 18.0315C34.299 18.0315 33.9556 17.9489 33.8936 17.7888L32.6851 14.6463H32.6206V17.67C32.6206 17.781 32.3572 17.8714 31.833 17.9385Z" fill="#B388EB"/>
<path d="M41.2344 17.9124C40.7139 17.9814 40.1895 18.0159 39.6644 18.0157C39.3287 18.0355 38.9919 18.0051 38.6651 17.9253C38.6035 17.908 38.549 17.8713 38.5099 17.8206C38.4709 17.7699 38.4492 17.7079 38.4482 17.6438V9.79149C38.4482 9.56942 38.691 9.37318 39.1712 9.20275C39.7104 9.02257 40.2761 8.93525 40.8445 8.94454C41.3609 8.94454 41.7018 9.04524 41.8567 9.25181C41.9536 9.36183 42.0117 9.50064 42.0219 9.64689V11.7617H42.1252C42.1252 11.7178 42.2543 11.364 42.51 10.6978C42.9954 9.44289 43.3518 8.81543 43.5738 8.81543C44.1776 8.85218 44.7727 8.97747 45.34 9.18726C45.6873 9.29422 46.0096 9.46984 46.2877 9.70369C46.4061 9.79044 46.5034 9.90286 46.5723 10.0325C46.6412 10.1622 46.6798 10.3058 46.6853 10.4525C46.6853 10.6247 46.5132 10.9552 46.1689 11.4441C45.8229 11.9373 45.3013 12.5905 44.5989 13.4117C44.7616 13.5821 44.9682 13.799 45.2161 14.065C45.464 14.3309 45.7945 14.7234 46.2076 15.2502C46.6208 15.7769 46.8299 16.1488 46.8299 16.3708C46.8299 16.5929 46.6285 16.8511 46.2283 17.1455C45.8295 17.4376 45.3958 17.6787 44.9372 17.8633C44.6182 18.013 44.2758 18.1065 43.925 18.1396C43.7804 18.1396 43.5816 17.9175 43.3311 17.4786C42.9847 16.839 42.6786 16.1784 42.4144 15.5006L42.0168 15.9732V17.6387C42.022 17.7549 41.7612 17.8452 41.2344 17.9124Z" fill="#B388EB"/>
<path d="M9.16633 24.0093C8.88036 24.0145 8.59489 23.9832 8.3168 23.9164C8.07784 23.8544 7.85503 23.7416 7.66351 23.5859C7.2607 23.2708 7.05929 22.6683 7.05929 21.7783C7.05161 21.4446 7.1077 21.1124 7.22455 20.7997C7.31731 20.5429 7.47472 20.3143 7.68159 20.1361C8.10346 19.8044 8.63022 19.635 9.16633 19.6584C9.44245 19.6542 9.71809 19.6828 9.98746 19.7436C10.2247 19.8 10.4484 19.9027 10.6459 20.0457C11.0642 20.3504 11.2734 20.9262 11.2734 21.7783C11.2734 22.5392 11.084 23.1021 10.7053 23.4671C10.2845 23.8447 9.73092 24.0397 9.16633 24.0093ZM8.97009 22.9765C8.99433 23.0048 9.02442 23.0276 9.0583 23.0432C9.09218 23.0588 9.12903 23.0669 9.16633 23.0669C9.20363 23.0669 9.24048 23.0588 9.27436 23.0432C9.30824 23.0276 9.33833 23.0048 9.36257 22.9765C9.43 22.863 9.47144 22.736 9.48394 22.6046C9.51962 22.3428 9.53516 22.0787 9.53042 21.8145C9.53501 21.5555 9.51947 21.2965 9.48394 21.0398C9.47171 20.9133 9.43016 20.7912 9.36257 20.6835C9.33833 20.6552 9.30824 20.6324 9.27436 20.6168C9.24048 20.6012 9.20363 20.5931 9.16633 20.5931C9.12903 20.5931 9.09218 20.6012 9.0583 20.6168C9.02442 20.6324 8.99433 20.6552 8.97009 20.6835C8.90252 20.7911 8.86178 20.9133 8.85131 21.0398C8.81338 21.2962 8.79697 21.5554 8.80225 21.8145C8.79679 22.0788 8.8132 22.3431 8.85131 22.6046C8.86205 22.736 8.90268 22.8632 8.97009 22.9765Z" fill="#B388EB"/>
<path d="M15.0231 23.575C14.6168 23.8885 14.1098 24.0428 13.5977 24.0088C13.0832 24.043 12.5736 23.8909 12.162 23.5801C11.9871 23.4163 11.8512 23.2151 11.7645 22.9916C11.6778 22.7682 11.6424 22.528 11.6611 22.289V20.0994C11.6611 20.0012 11.7747 19.9109 11.9994 19.8412C12.249 19.758 12.5109 19.7178 12.774 19.7224C12.8568 19.7109 12.941 19.7172 13.0211 19.7408C13.1013 19.7644 13.1755 19.8047 13.2388 19.8592C13.2828 19.912 13.3098 19.9768 13.3163 20.0451V21.8217C13.3047 22.1204 13.322 22.4196 13.3679 22.7151C13.4023 22.8597 13.4746 22.932 13.5848 22.932C13.6958 22.932 13.7656 22.8623 13.7965 22.7203C13.8348 22.4206 13.8495 22.1184 13.8404 21.8165V20.0994C13.8404 20.0012 13.9541 19.9109 14.1787 19.8412C14.4283 19.7577 14.6903 19.7175 14.9534 19.7224C15.2116 19.7224 15.3639 19.7689 15.4311 19.8592C15.4728 19.9128 15.4979 19.9775 15.5034 20.0451V22.2994C15.5214 22.5342 15.4877 22.7701 15.4047 22.9904C15.3218 23.2108 15.1915 23.4103 15.0231 23.575Z" fill="#B388EB"/>
<path d="M18.1629 23.9155C17.9193 23.9412 17.6746 23.9542 17.4296 23.9542C17.273 23.9625 17.116 23.9512 16.9622 23.9206C16.8977 23.9 16.8641 23.8638 16.8641 23.8122V21.2455H16.0352C15.9913 21.2455 15.9552 21.1887 15.9216 21.0777C15.8851 20.9142 15.8695 20.7467 15.8751 20.5793C15.8729 20.3783 15.8963 20.1779 15.9449 19.9828C15.9939 19.8072 16.0585 19.7246 16.1359 19.7246H19.3611C19.4204 19.7246 19.4618 19.7814 19.4824 19.8924C19.5089 20.052 19.5201 20.2137 19.516 20.3753C19.5169 20.5761 19.4943 20.7763 19.4488 20.9718C19.4049 21.1603 19.3456 21.2532 19.2707 21.2532H18.5296V23.8199C18.5296 23.8561 18.4082 23.8896 18.1629 23.9155Z" fill="#B388EB"/>
<path d="M22.9162 23.704C22.7646 23.806 22.5958 23.8795 22.4178 23.9209C22.1483 23.9862 21.8713 24.0157 21.5941 24.0087C21.273 24.0095 20.9524 23.9819 20.6361 23.926C20.4126 23.8958 20.1938 23.8368 19.9854 23.7505C19.8537 23.6833 19.7892 23.6162 19.7892 23.5542C19.787 23.3155 19.8165 23.0776 19.877 22.8467C19.9389 22.6066 20.0164 22.4878 20.1042 22.4878C20.1197 22.4878 20.285 22.5394 20.5974 22.6479C20.8246 22.7368 21.0641 22.7908 21.3075 22.808C21.4141 22.8183 21.5216 22.8014 21.6199 22.7589C21.6429 22.7421 21.6613 22.7199 21.6735 22.6942C21.6857 22.6685 21.6912 22.6401 21.6896 22.6117C21.6896 22.5497 21.6458 22.4929 21.558 22.4413C21.4538 22.3854 21.3439 22.3413 21.23 22.3096C21.0836 22.2679 20.941 22.2134 20.804 22.1469C20.6616 22.0766 20.5244 21.9964 20.3934 21.9068C20.2548 21.8121 20.1421 21.6843 20.0655 21.535C19.9755 21.3649 19.9302 21.1747 19.9338 20.9824C19.9338 20.0993 20.4605 19.6577 21.5141 19.6577C21.8598 19.6533 22.2054 19.6783 22.5469 19.7326C22.7562 19.7593 22.9605 19.8158 23.1537 19.9004C23.2699 19.9624 23.3293 20.0218 23.3293 20.0812C23.3241 20.3113 23.2751 20.5383 23.1847 20.75C23.0866 20.9901 22.9911 21.1089 22.9007 21.1089C22.8473 21.0964 22.7953 21.0782 22.7458 21.0547C22.5418 20.9538 22.3196 20.8949 22.0925 20.8817C21.9726 20.8734 21.8524 20.8892 21.7387 20.9282C21.7109 20.9412 21.6876 20.9621 21.6715 20.9883C21.6555 21.0144 21.6474 21.0447 21.6483 21.0753C21.6483 21.1399 21.6896 21.1941 21.7774 21.2354C21.8817 21.2843 21.9908 21.3224 22.1028 21.349C22.2478 21.3895 22.3894 21.4413 22.5263 21.504C22.6772 21.576 22.8207 21.6624 22.9549 21.7622C23.0947 21.8663 23.2072 22.0028 23.2828 22.1598C23.3738 22.3453 23.419 22.5498 23.4145 22.7563C23.4167 22.9866 23.3521 23.2126 23.2286 23.407C23.1442 23.5249 23.0382 23.6257 22.9162 23.704Z" fill="#B388EB"/>
<path d="M25.0827 23.9163C24.8399 23.942 24.596 23.955 24.3519 23.955C24.1945 23.9633 24.0366 23.952 23.882 23.9214C23.8148 23.9008 23.7812 23.8646 23.7812 23.813V20.0998C23.7812 20.012 23.8949 19.9268 24.1273 19.8416C24.3757 19.7528 24.6381 19.7091 24.9019 19.7125C24.9925 19.7002 25.0847 19.7087 25.1715 19.7373C25.2583 19.766 25.3374 19.814 25.4028 19.8778C25.4298 19.9127 25.4451 19.9551 25.4467 19.9991V23.813C25.4467 23.8569 25.3254 23.8905 25.0827 23.9163Z" fill="#B388EB"/>
<path d="M27.8279 23.9546H26.418C26.2858 23.9627 26.1532 23.9487 26.0255 23.9132C25.9962 23.9041 25.9704 23.8859 25.9519 23.8614C25.9334 23.8369 25.923 23.8071 25.9223 23.7764V20.0116C25.9196 19.9653 25.9307 19.9193 25.9541 19.8794C25.9776 19.8394 26.0123 19.8072 26.0539 19.7869C26.1985 19.7306 26.3536 19.7068 26.5084 19.7172H27.8511C28.6154 19.7172 29.1422 19.8679 29.4314 20.1691C29.7232 20.4686 29.8678 21.0161 29.8678 21.8062C29.8678 22.5963 29.7154 23.1541 29.4133 23.4743C29.1112 23.7945 28.5819 23.9546 27.8279 23.9546ZM27.7788 20.5977C27.7142 20.5934 27.6494 20.6013 27.5877 20.621V23.0327L27.815 23.056C27.9338 23.056 28.0241 22.9604 28.0861 22.7693C28.1625 22.4447 28.1938 22.111 28.1791 21.7778C28.1978 21.4605 28.1655 21.1423 28.0835 20.8353C28.0637 20.7699 28.0234 20.7125 27.9685 20.6716C27.9137 20.6307 27.8472 20.6084 27.7788 20.6081V20.5977Z" fill="#B388EB"/>
<path d="M33.3049 23.9545H30.7744C30.6413 23.9627 30.5078 23.9488 30.3793 23.9131C30.3507 23.9049 30.3254 23.8876 30.3073 23.8639C30.2891 23.8402 30.2791 23.8113 30.2786 23.7815V20.0038C30.2762 19.9572 30.2884 19.9111 30.3134 19.8718C30.3383 19.8325 30.3749 19.8019 30.4181 19.7843C30.584 19.7276 30.7596 19.7048 30.9345 19.7171H33.3333C33.4185 19.7171 33.4598 19.8566 33.4598 20.1329C33.4659 20.3451 33.4477 20.5574 33.4056 20.7655C33.3695 20.9101 33.323 20.9824 33.2636 20.9824C33.0054 20.9824 32.569 20.9566 31.957 20.9049V21.3052C32.5458 21.2819 32.9279 21.269 33.1087 21.269C33.2145 21.269 33.2688 21.3955 33.2688 21.646C33.2758 21.8374 33.2549 22.0287 33.2068 22.2141C33.1655 22.3458 33.1087 22.4103 33.0364 22.4103L31.957 22.3845V22.7667C32.649 22.715 33.1267 22.6892 33.3875 22.6892C33.4727 22.6892 33.5141 22.8286 33.5141 23.1075C33.5203 23.3198 33.5021 23.532 33.4598 23.7401C33.4185 23.8822 33.372 23.9545 33.3049 23.9545Z" fill="#B388EB"/>
<path d="M37.4362 23.9155C37.1918 23.9412 36.9461 23.9542 36.7003 23.9542C36.5446 23.9626 36.3884 23.9513 36.2355 23.9206C36.171 23.9 36.1374 23.8638 36.1374 23.8122V21.2455H35.3085C35.2646 21.2455 35.2259 21.1887 35.1949 21.0777C35.156 20.9145 35.1395 20.7469 35.1458 20.5793C35.1444 20.3782 35.1687 20.1778 35.2181 19.9828C35.2646 19.8072 35.3292 19.7246 35.4092 19.7246H38.6369C38.6963 19.7246 38.7376 19.7814 38.7609 19.8924C38.7849 20.0522 38.7953 20.2138 38.7919 20.3753C38.7936 20.576 38.7719 20.7761 38.7273 20.9718C38.6834 21.1603 38.624 21.2532 38.5491 21.2532H37.8029V23.8199C37.8055 23.8561 37.6944 23.8896 37.4362 23.9155Z" fill="#B388EB"/>
<path d="M40.4573 23.9085C40.2158 23.9396 39.9726 23.9551 39.7291 23.955C39.5705 23.9648 39.4112 23.9508 39.2566 23.9137C39.2275 23.9059 39.2016 23.8888 39.183 23.8651C39.1644 23.8413 39.154 23.8122 39.1533 23.782V20.1127C39.1533 20.012 39.2695 19.9217 39.4993 19.8545C39.7407 19.7699 39.995 19.728 40.2507 19.7306C40.6303 19.7306 40.8188 19.821 40.8188 19.9888V21.3031H41.3482V20.1153C41.3482 20.0146 41.4644 19.9242 41.6993 19.8571C41.9417 19.7727 42.1967 19.7308 42.4533 19.7332C42.8277 19.7332 43.0137 19.8235 43.0137 19.9914V23.7872C43.0137 23.8388 42.8923 23.8801 42.6496 23.9137C42.4081 23.9446 42.1649 23.9601 41.9214 23.9602C41.7644 23.9699 41.6069 23.9559 41.454 23.9188C41.4246 23.9111 41.3984 23.8942 41.3794 23.8705C41.3603 23.8467 41.3494 23.8175 41.3482 23.7872V22.416H40.8188V23.782C40.8188 23.8336 40.6975 23.8749 40.4573 23.9085Z" fill="#B388EB"/>
<path d="M46.5178 23.9552H43.9873C43.8542 23.9632 43.7207 23.9493 43.5922 23.9139C43.5635 23.9056 43.5383 23.8883 43.5202 23.8646C43.502 23.8409 43.492 23.812 43.4915 23.7822V20.0045C43.4891 19.9579 43.5013 19.9118 43.5262 19.8725C43.5512 19.8332 43.5878 19.8026 43.6309 19.785C43.797 19.7289 43.9725 19.7061 44.1474 19.7178H46.5462C46.6288 19.7178 46.6701 19.8573 46.6701 20.1336C46.6762 20.3458 46.658 20.5581 46.6159 20.7662C46.5824 20.9108 46.5333 20.9831 46.4739 20.9831C46.2157 20.9831 45.7793 20.9573 45.1673 20.9056V21.3059C45.7561 21.2826 46.1408 21.2697 46.319 21.2697C46.4248 21.2697 46.4791 21.3962 46.4791 21.6467C46.4861 21.8381 46.4652 22.0295 46.4171 22.2148C46.3758 22.3465 46.319 22.411 46.2467 22.411L45.1673 22.3852V22.7674C45.8559 22.7157 46.3336 22.6899 46.6004 22.6899C46.6831 22.6899 46.7244 22.8293 46.7244 23.1082C46.7306 23.3205 46.7124 23.5327 46.6701 23.7408C46.6237 23.8829 46.5772 23.9552 46.5178 23.9552Z" fill="#B388EB"/>
<path d="M11.2119 30.6528C10.9839 30.6528 10.7651 30.7434 10.6039 30.9047C10.4426 31.0659 10.352 31.2846 10.352 31.5127C10.352 31.2846 10.2615 31.0659 10.1002 30.9047C9.93895 30.7434 9.72024 30.6528 9.49219 30.6528C9.72024 30.6528 9.93895 30.5622 10.1002 30.401C10.2615 30.2397 10.352 30.021 10.352 29.793C10.352 30.021 10.4426 30.2397 10.6039 30.401C10.7651 30.5622 10.9839 30.6528 11.2119 30.6528Z" fill="#FFF0FE"/>
<path d="M10.3516 35.5128C10.1235 35.5128 9.9048 35.6034 9.74354 35.7647C9.58229 35.9259 9.49169 36.1446 9.49169 36.3727C9.49169 36.1446 9.4011 35.9259 9.23985 35.7647C9.07859 35.6034 8.85988 35.5128 8.63184 35.5128C8.86012 35.5121 9.07882 35.421 9.24001 35.2593C9.40119 35.0977 9.4917 34.8787 9.49169 34.6504C9.49169 34.8787 9.5822 35.0977 9.74338 35.2593C9.90457 35.421 10.1233 35.5121 10.3516 35.5128Z" fill="#FFF0FE"/>
<path d="M12.3896 38.7895C12.2767 38.7895 12.1649 38.8118 12.0606 38.855C11.9563 38.8982 11.8615 38.9615 11.7816 39.0414C11.7018 39.1212 11.6384 39.216 11.5952 39.3204C11.552 39.4247 11.5298 39.5365 11.5298 39.6494C11.5298 39.5365 11.5075 39.4247 11.4643 39.3204C11.4211 39.216 11.3578 39.1212 11.2779 39.0414C11.1981 38.9615 11.1033 38.8982 10.999 38.855C10.8947 38.8118 10.7828 38.7895 10.6699 38.7895C10.898 38.7895 11.1167 38.699 11.2779 38.5377C11.4392 38.3764 11.5298 38.1577 11.5298 37.9297C11.5298 38.1577 11.6204 38.3764 11.7816 38.5377C11.9429 38.699 12.1616 38.7895 12.3896 38.7895Z" fill="#FFF0FE"/>
<path d="M15.1286 43.6587C14.9005 43.6587 14.6818 43.7493 14.5205 43.9105C14.3593 44.0718 14.2687 44.2905 14.2687 44.5185C14.268 44.2903 14.1768 44.0716 14.0152 43.9104C13.8535 43.7492 13.6345 43.6587 13.4062 43.6587C13.6345 43.6587 13.8535 43.5682 14.0152 43.407C14.1768 43.2458 14.268 43.0271 14.2687 42.7988C14.2687 43.0269 14.3593 43.2456 14.5205 43.4068C14.6818 43.5681 14.9005 43.6587 15.1286 43.6587Z" fill="#FFF0FE"/>
<path d="M20.0166 43.6587C19.7885 43.6587 19.5698 43.7493 19.4086 43.9105C19.2473 44.0718 19.1567 44.2905 19.1567 44.5185C19.1567 44.2905 19.0661 44.0718 18.9049 43.9105C18.7436 43.7493 18.5249 43.6587 18.2969 43.6587C18.5249 43.6587 18.7436 43.5681 18.9049 43.4068C19.0661 43.2456 19.1567 43.0269 19.1567 42.7988C19.1567 43.0269 19.2473 43.2456 19.4086 43.4068C19.5698 43.5681 19.7885 43.6587 20.0166 43.6587Z" fill="#FFF0FE"/>
<path d="M22.2012 46.4741C21.9734 46.4748 21.7551 46.5656 21.594 46.7267C21.4329 46.8878 21.3421 47.1061 21.3414 47.334C21.3414 47.1073 21.2519 46.8897 21.0923 46.7287C20.9327 46.5677 20.716 46.4762 20.4893 46.4741C20.7173 46.4741 20.936 46.3835 21.0973 46.2223C21.2585 46.061 21.3491 45.8423 21.3491 45.6143C21.3498 45.8408 21.4395 46.0579 21.599 46.2188C21.7584 46.3797 21.9747 46.4714 22.2012 46.4741Z" fill="#FFF0FE"/>
<path d="M26.405 43.6587C26.1792 43.6621 25.9638 43.7542 25.8054 43.9151C25.6469 44.0759 25.5581 44.2927 25.5581 44.5185C25.5581 44.2905 25.4675 44.0718 25.3063 43.9105C25.145 43.7493 24.9263 43.6587 24.6982 43.6587C24.9263 43.6587 25.145 43.5681 25.3063 43.4068C25.4675 43.2456 25.5581 43.0269 25.5581 42.7988C25.5581 43.0247 25.6469 43.2414 25.8054 43.4023C25.9638 43.5632 26.1792 43.6553 26.405 43.6587Z" fill="#FFF0FE"/>
<path d="M29.5192 46.4732C29.2911 46.4732 29.0724 46.5638 28.9112 46.7251C28.7499 46.8863 28.6593 47.105 28.6593 47.3331C28.6586 47.1048 28.5675 46.8861 28.4058 46.7249C28.2441 46.5637 28.0252 46.4732 27.7969 46.4732C28.0234 46.4725 28.2405 46.3828 28.4014 46.2234C28.5623 46.0639 28.654 45.8476 28.6567 45.6211C28.6588 45.8482 28.7506 46.0654 28.9122 46.225C29.0738 46.3847 29.292 46.4739 29.5192 46.4732Z" fill="#FFF0FE"/>
<path d="M33.6041 43.3472C33.3759 43.3472 33.1569 43.4377 32.9952 43.5989C32.8335 43.76 32.7424 43.9787 32.7417 44.207C32.7417 44.0941 32.7195 43.9823 32.6762 43.878C32.633 43.7736 32.5697 43.6789 32.4898 43.599C32.41 43.5192 32.3152 43.4558 32.2109 43.4126C32.1066 43.3694 31.9948 43.3472 31.8818 43.3472C32.1099 43.3472 32.3286 43.2566 32.4898 43.0953C32.6511 42.9341 32.7417 42.7154 32.7417 42.4873C32.7424 42.7156 32.8335 42.9343 32.9952 43.0955C33.1569 43.2567 33.3759 43.3472 33.6041 43.3472Z" fill="#FFF0FE"/>
<path d="M36.4346 46.4741C36.2065 46.4741 35.9878 46.5647 35.8265 46.726C35.6653 46.8872 35.5747 47.1059 35.5747 47.334C35.5747 47.1059 35.4841 46.8872 35.3229 46.726C35.1616 46.5647 34.9429 46.4741 34.7148 46.4741C34.9429 46.4741 35.1616 46.3835 35.3229 46.2223C35.4841 46.061 35.5747 45.8423 35.5747 45.6143C35.5747 45.8423 35.6653 46.061 35.8265 46.2223C35.9878 46.3835 36.2065 46.4741 36.4346 46.4741Z" fill="#FFF0FE"/>
<path d="M41.7998 43.6587C41.5717 43.6587 41.353 43.7493 41.1918 43.9105C41.0305 44.0718 40.9399 44.2905 40.9399 44.5185C40.9399 44.2905 40.8493 44.0718 40.6881 43.9105C40.5268 43.7493 40.3081 43.6587 40.0801 43.6587C40.3081 43.6587 40.5268 43.5681 40.6881 43.4068C40.8493 43.2456 40.9399 43.0269 40.9399 42.7988C40.9399 43.0269 41.0305 43.2456 41.1918 43.4068C41.353 43.5681 41.5717 43.6587 41.7998 43.6587Z" fill="#FFF0FE"/>
<path d="M43.9844 36.4939C43.8714 36.4939 43.7596 36.5162 43.6553 36.5594C43.551 36.6026 43.4562 36.6659 43.3764 36.7458C43.2965 36.8256 43.2332 36.9204 43.19 37.0247C43.1467 37.1291 43.1245 37.2409 43.1245 37.3538C43.1245 37.2409 43.1023 37.1291 43.0591 37.0247C43.0158 36.9204 42.9525 36.8256 42.8727 36.7458C42.7928 36.6659 42.698 36.6026 42.5937 36.5594C42.4894 36.5162 42.3776 36.4939 42.2646 36.4939C42.4922 36.4919 42.7098 36.3997 42.8695 36.2375C43.0292 36.0754 43.1181 35.8565 43.1168 35.6289C43.1161 35.7429 43.1381 35.8559 43.1814 35.9613C43.2248 36.0668 43.2888 36.1625 43.3695 36.243C43.4502 36.3235 43.5462 36.3872 43.6517 36.4302C43.7573 36.4733 43.8704 36.495 43.9844 36.4939Z" fill="#FFF0FE"/>
<path d="M46.0326 39.6489C45.8064 39.6516 45.5903 39.7434 45.4313 39.9044C45.2723 40.0654 45.1831 40.2825 45.1831 40.5088C45.1831 40.3959 45.1609 40.2841 45.1176 40.1797C45.0744 40.0754 45.0111 39.9806 44.9313 39.9008C44.8514 39.8209 44.7566 39.7576 44.6523 39.7144C44.548 39.6712 44.4362 39.6489 44.3232 39.6489C44.4362 39.6489 44.548 39.6267 44.6523 39.5835C44.7566 39.5403 44.8514 39.4769 44.9313 39.3971C45.0111 39.3172 45.0744 39.2224 45.1176 39.1181C45.1609 39.0138 45.1831 38.902 45.1831 38.7891C45.1831 39.0153 45.2723 39.2325 45.4313 39.3935C45.5903 39.5544 45.8064 39.6462 46.0326 39.6489Z" fill="#FFF0FE"/>
<path d="M46.8916 30.8589C46.6633 30.8596 46.4446 30.9507 46.2834 31.1124C46.1222 31.2741 46.0317 31.493 46.0317 31.7213C46.0317 31.493 45.9412 31.2741 45.78 31.1124C45.6189 30.9507 45.4002 30.8596 45.1719 30.8589C45.3999 30.8589 45.6186 30.7683 45.7799 30.607C45.9411 30.4458 46.0317 30.2271 46.0317 29.999C46.0317 30.2271 46.1223 30.4458 46.2836 30.607C46.4448 30.7683 46.6635 30.8589 46.8916 30.8589Z" fill="#FFF0FE"/>
<path d="M41.7998 29.0161C41.5715 29.0168 41.3528 29.108 41.1916 29.2696C41.0304 29.4313 40.9399 29.6503 40.9399 29.8786C40.9399 29.6503 40.8494 29.4313 40.6882 29.2696C40.5271 29.108 40.3084 29.0168 40.0801 29.0161C40.3081 29.0161 40.5268 28.9255 40.6881 28.7643C40.8493 28.603 40.9399 28.3843 40.9399 28.1562C40.9399 28.3843 41.0305 28.603 41.1918 28.7643C41.353 28.9255 41.5717 29.0161 41.7998 29.0161Z" fill="#FFF0FE"/>
<path d="M38.8643 31.27C38.6362 31.27 38.4175 31.3606 38.2562 31.5219C38.095 31.6831 38.0044 31.9018 38.0044 32.1299C38.0044 32.017 37.9822 31.9051 37.9389 31.8008C37.8957 31.6965 37.8324 31.6017 37.7525 31.5219C37.6727 31.442 37.5779 31.3787 37.4736 31.3355C37.3693 31.2923 37.2574 31.27 37.1445 31.27C37.2574 31.27 37.3693 31.2478 37.4736 31.2046C37.5779 31.1613 37.6727 31.098 37.7525 31.0182C37.8324 30.9383 37.8957 30.8435 37.9389 30.7392C37.9822 30.6349 38.0044 30.5231 38.0044 30.4102C38.0044 30.6382 38.095 30.8569 38.2562 31.0182C38.4175 31.1794 38.6362 31.27 38.8643 31.27Z" fill="#FFF0FE"/>
<path d="M47.7646 34.6499C47.5364 34.6506 47.3177 34.7417 47.1565 34.9034C46.9953 35.0651 46.9048 35.2841 46.9048 35.5123C46.9048 35.2841 46.8143 35.0651 46.6531 34.9034C46.4919 34.7417 46.2732 34.6506 46.0449 34.6499C46.1578 34.6499 46.2697 34.6277 46.374 34.5844C46.4783 34.5412 46.5731 34.4779 46.6529 34.398C46.7328 34.3182 46.7961 34.2234 46.8393 34.1191C46.8825 34.0148 46.9048 33.903 46.9048 33.79C46.9048 33.903 46.927 34.0148 46.9702 34.1191C47.0134 34.2234 47.0768 34.3182 47.1566 34.398C47.2365 34.4779 47.3313 34.5412 47.4356 34.5844C47.5399 34.6277 47.6517 34.6499 47.7646 34.6499Z" fill="#FFF0FE"/>
<path d="M31.2393 29.8781C31.0112 29.8781 30.7925 29.9687 30.6312 30.1299C30.47 30.2912 30.3794 30.5099 30.3794 30.7379C30.3794 30.5099 30.2888 30.2912 30.1275 30.1299C29.9663 29.9687 29.7476 29.8781 29.5195 29.8781C29.7478 29.8774 29.9665 29.7862 30.1277 29.6246C30.2889 29.4629 30.3794 29.2439 30.3794 29.0156C30.3794 29.2439 30.4699 29.4629 30.6311 29.6246C30.7923 29.7862 31.011 29.8774 31.2393 29.8781Z" fill="#FFF0FE"/>
<path d="M25.3832 31.27C25.1558 31.2714 24.9381 31.3625 24.7776 31.5235C24.617 31.6846 24.5266 31.9025 24.5259 32.1299C24.5259 31.9018 24.4353 31.6831 24.274 31.5219C24.1128 31.3606 23.8941 31.27 23.666 31.27C23.8941 31.27 24.1128 31.1794 24.274 31.0182C24.4353 30.8569 24.5259 30.6382 24.5259 30.4102C24.5266 30.6376 24.617 30.8555 24.7776 31.0165C24.9381 31.1775 25.1558 31.2687 25.3832 31.27Z" fill="#FFF0FE"/>
<path d="M18.9918 29.8781C18.7638 29.8781 18.5451 29.9687 18.3838 30.1299C18.2226 30.2912 18.132 30.5099 18.132 30.7379C18.1313 30.5096 18.0401 30.2909 17.8785 30.1298C17.7168 29.9686 17.4978 29.8781 17.2695 29.8781C17.4981 29.8774 17.717 29.7863 17.8786 29.6247C18.0402 29.4631 18.1313 29.2441 18.132 29.0156C18.132 29.2439 18.2225 29.4629 18.3837 29.6246C18.5448 29.7862 18.7635 29.8774 18.9918 29.8781Z" fill="#FFF0FE"/>
<path d="M16.2803 31.5122C16.0522 31.5122 15.8335 31.6028 15.6723 31.764C15.511 31.9253 15.4204 32.144 15.4204 32.3721C15.4204 32.144 15.3298 31.9253 15.1686 31.764C15.0073 31.6028 14.7886 31.5122 14.5605 31.5122C14.7886 31.5122 15.0073 31.4216 15.1686 31.2604C15.3298 31.0991 15.4204 30.8804 15.4204 30.6523C15.4204 30.8804 15.511 31.0991 15.6723 31.2604C15.8335 31.4216 16.0522 31.5122 16.2803 31.5122Z" fill="#FFF0FE"/>
<path d="M8.63183 32.5815C8.40378 32.5815 8.18507 32.6721 8.02382 32.8334C7.86256 32.9946 7.77197 33.2133 7.77197 33.4414C7.77197 33.2133 7.68138 32.9946 7.52012 32.8334C7.35887 32.6721 7.14016 32.5815 6.91211 32.5815C7.14016 32.5815 7.35887 32.4909 7.52012 32.3297C7.68138 32.1684 7.77197 31.9497 7.77197 31.7217C7.77197 31.9497 7.86256 32.1684 8.02382 32.3297C8.18507 32.4909 8.40378 32.5815 8.63183 32.5815Z" fill="#FFF0FE"/>
</svg>
