<svg width="55" height="43" viewBox="0 0 55 43" fill="none" xmlns="http://www.w3.org/2000/svg">
<path d="M14.2325 33.9625C13.5237 33.983 6.11743 34.0938 2.16199 28.4203C-0.632482 24.4036 0.00342137 19.9668 0.210528 18.5142C1.58443 8.57889 12.2548 3.59959 13.8591 2.84409C18.6372 0.600924 22.7939 0.387984 27.6565 0.142956C32.0436 -0.0787348 37.2505 -0.274173 43.1749 2.09442C46.7394 3.52375 51.1703 5.30311 53.5214 9.9703C53.9298 10.7754 56.0505 15.1946 54.3469 20.1798C53.0926 23.8173 50.4673 25.7921 48.5013 27.2126C42.4281 31.6231 34.5172 31.5006 33.3534 31.486C30.7023 31.4113 28.0532 31.6939 25.4775 32.3261C22.8201 32.9912 21.9334 33.6388 21.4987 34.4847C20.6236 36.2086 21.7904 38.4255 22.1725 39.286C23.3102 41.7538 25.2179 42.5618 25.0224 42.8827C24.7482 43.3407 20.8016 42.2089 17.7475 39.286C16.2047 37.7866 15.0054 35.9703 14.2325 33.9625Z" fill="#FED54A"/>
<path d="M18.8734 20.2118H17.4732V17.1752C17.498 16.8436 17.4118 16.5132 17.2282 16.236C17.1485 16.1346 17.0459 16.0536 16.9287 15.9998C16.8115 15.9461 16.6832 15.921 16.5544 15.9268C16.3685 15.9314 16.1865 15.9804 16.0235 16.0697C15.8316 16.1688 15.6596 16.3023 15.5159 16.4635C15.3654 16.6315 15.2538 16.8307 15.1892 17.0469V20.2118H13.7891V12.5605H15.1892V15.7867C15.3854 15.4481 15.6697 15.1688 16.0118 14.9787C16.3596 14.7853 16.7514 14.6848 17.1494 14.687C17.4516 14.6737 17.7524 14.7358 18.0245 14.8679C18.2389 14.9808 18.4192 15.149 18.5467 15.355C18.6745 15.5649 18.7635 15.7961 18.8092 16.0376C18.8573 16.2954 18.8817 16.5571 18.8821 16.8194L18.8734 20.2118Z" fill="#1B1B41"/>
<path d="M22.6302 20.3167C22.2224 20.3225 21.8177 20.2461 21.4401 20.0921C21.098 19.9536 20.7882 19.7461 20.53 19.4825C20.0236 18.9549 19.7431 18.2506 19.7482 17.5193C19.7428 17.0247 19.8633 16.5369 20.0983 16.1017C20.3314 15.6727 20.6774 15.3156 21.0988 15.069C21.568 14.8046 22.1006 14.6735 22.639 14.6898C23.1766 14.6734 23.7081 14.8078 24.1733 15.0778C24.5867 15.3257 24.9245 15.6817 25.1505 16.1075C25.3756 16.5303 25.4919 17.0024 25.4889 17.4814C25.4931 17.5659 25.4931 17.6506 25.4889 17.7352C25.4889 17.8227 25.4889 17.8927 25.4684 17.9481H21.23C21.2528 18.2026 21.3368 18.4479 21.4751 18.6628C21.6038 18.8627 21.7842 19.024 21.9972 19.1295C22.2092 19.2352 22.4429 19.2902 22.6798 19.2899C22.9563 19.2897 23.2283 19.2195 23.4703 19.0857C23.6959 18.9696 23.8742 18.7789 23.9749 18.5461L25.1767 18.8815C25.0347 19.1656 24.8362 19.4178 24.5933 19.6225C24.3361 19.8458 24.0393 20.0189 23.7182 20.1329C23.3689 20.2566 23.0008 20.3187 22.6302 20.3167ZM21.198 17.0584H24.0595C24.0366 16.808 23.9557 16.5663 23.8233 16.3525C23.698 16.1546 23.5243 15.992 23.3186 15.88C23.1028 15.7667 22.8623 15.7086 22.6185 15.7108C22.3804 15.7086 22.1455 15.7668 21.936 15.88C21.7311 15.9921 21.5584 16.1548 21.4342 16.3525C21.3018 16.5663 21.2209 16.808 21.198 17.0584Z" fill="#1B1B41"/>
<path d="M26.3349 12.5605H27.7322V18.4704C27.7109 18.6492 27.7555 18.8296 27.8576 18.9779C27.9021 19.0236 27.9558 19.0592 28.0152 19.0823C28.0745 19.1054 28.1382 19.1156 28.2018 19.1121C28.4282 19.1104 28.6521 19.0649 28.8611 18.9779L29.0477 20.0485C28.839 20.146 28.6183 20.2156 28.3914 20.2556C28.1678 20.3026 27.9402 20.328 27.7118 20.3314C27.5272 20.3424 27.3423 20.3169 27.1676 20.2563C26.9929 20.1958 26.8319 20.1013 26.6937 19.9785C26.5684 19.8447 26.4719 19.6866 26.4102 19.514C26.3485 19.3414 26.3229 19.1579 26.3349 18.975V12.5605Z" fill="#1B1B41"/>
<path d="M29.6426 12.5605H31.0398V18.4704C31.0201 18.6491 31.0646 18.829 31.1652 18.9779C31.2097 19.0236 31.2634 19.0592 31.3228 19.0823C31.3822 19.1054 31.4458 19.1156 31.5094 19.1121C31.6255 19.1118 31.7411 19.0971 31.8536 19.0684C31.9624 19.0458 32.0681 19.0105 32.1687 18.9633L32.3554 20.0339C32.1468 20.1318 31.926 20.2014 31.699 20.241C31.4754 20.288 31.2478 20.3134 31.0194 20.3168C30.8348 20.3278 30.6499 20.3023 30.4752 20.2417C30.3005 20.1812 30.1395 20.0867 30.0013 19.9639C29.876 19.8301 29.7795 19.672 29.7178 19.4994C29.6561 19.3268 29.6305 19.1433 29.6426 18.9604V12.5605Z" fill="#1B1B41"/>
<path d="M35.4884 20.3168C35.0769 20.3228 34.6682 20.2465 34.2866 20.0922C33.9455 19.954 33.6381 19.7441 33.3853 19.4767C33.1334 19.2176 32.9352 18.9113 32.8019 18.5754C32.5374 17.8852 32.5374 17.1216 32.8019 16.4314C32.9352 16.0955 33.1334 15.7892 33.3853 15.53C33.638 15.2617 33.9454 15.0508 34.2866 14.9116C34.6684 14.7584 35.0771 14.683 35.4884 14.6899C35.897 14.6826 36.3028 14.7581 36.6815 14.9116C37.0151 15.0526 37.3164 15.2601 37.5672 15.5214C37.8179 15.7826 38.0128 16.0923 38.14 16.4314C38.3967 17.123 38.3967 17.8838 38.14 18.5754C38.0132 18.9098 37.8219 19.216 37.577 19.4767C37.3225 19.7436 37.0143 19.9534 36.6727 20.0922C36.2966 20.2443 35.8941 20.3207 35.4884 20.3168ZM34.0562 17.5194C34.0508 17.8097 34.1159 18.0969 34.2458 18.3566C34.3591 18.5943 34.5357 18.7961 34.7563 18.94C34.9755 19.0774 35.2298 19.1483 35.4884 19.1442C35.7431 19.1464 35.9927 19.0733 36.206 18.9342C36.4261 18.7872 36.6048 18.5864 36.7252 18.3508C36.8519 18.0904 36.9177 17.8046 36.9177 17.515C36.9177 17.2255 36.8519 16.9397 36.7252 16.6793C36.6065 16.4426 36.4274 16.2413 36.206 16.0959C35.9919 15.9589 35.7426 15.8869 35.4884 15.8888C35.2286 15.8849 34.9735 15.9591 34.7563 16.1018C34.5366 16.2466 34.3602 16.4482 34.2458 16.6852C34.1163 16.9439 34.0513 17.2301 34.0562 17.5194Z" fill="#1B1B41"/>
<path d="M39.5576 17.4141V12.7207H40.9549V17.4141H39.5576ZM39.5576 20.2115V18.6276H40.9549V20.2115H39.5576Z" fill="#1B1B41"/>
</svg>
