<svg width="55" height="55" viewBox="0 0 55 55" fill="none" xmlns="http://www.w3.org/2000/svg">
<path d="M41.25 41.25C48.8439 33.6561 48.8439 21.3439 41.25 13.75C33.6561 6.15609 21.3439 6.15609 13.75 13.75C6.15608 21.3439 6.15608 33.6561 13.75 41.25C21.3439 48.8439 33.6561 48.8439 41.25 41.25Z" fill="#DD7907"/>
<path d="M27.5011 46.0375C37.739 46.0375 46.0384 37.738 46.0384 27.5002C46.0384 17.2623 37.739 8.96289 27.5011 8.96289C17.2633 8.96289 8.96387 17.2623 8.96387 27.5002C8.96387 37.738 17.2633 46.0375 27.5011 46.0375Z" fill="#FFDD68"/>
<path d="M13.8672 28.7875C14.0562 31.4501 14.4608 34.0931 15.0769 36.6903C15.1137 36.7148 15.1551 36.7314 15.1986 36.7393C15.3148 36.7539 15.3239 36.5686 15.2349 36.1708C14.5302 33.045 14.2831 29.9373 14.225 26.7424C14.3974 26.3775 14.645 26.0531 14.9516 25.7906C15.2107 25.5378 15.5201 25.3423 15.8597 25.2167C16.4972 25.015 16.964 25.2566 17.2782 25.9069C17.5925 26.5571 17.7614 27.4634 17.805 28.5696C17.8286 29.1871 17.7777 30.5948 17.7814 32.6472C17.7973 35.2172 17.9726 37.7837 18.3063 40.332C18.4588 41.3582 18.4371 41.9921 18.2318 42.2282C18.0502 42.4317 17.7323 42.3626 17.2655 42.0466C16.9268 41.8023 16.6096 41.5294 16.3174 41.2311C15.9778 40.8969 15.6454 40.5445 15.3203 40.1794C14.2082 38.7239 13.1774 37.2079 12.2325 35.6387C11.1809 33.8932 10.2346 31.9861 9.80957 29.9046C9.91269 29.3576 10.1241 28.8368 10.4313 28.3726C10.7385 27.9085 11.1354 27.5105 11.5986 27.2019C12.7593 26.4844 13.4531 27.0657 13.8672 28.7875Z" fill="#DD7907"/>
<path d="M21.8949 28.0344C21.9566 33.1709 22.1891 38.2929 22.7867 43.3986C22.6926 43.6856 22.5157 43.9385 22.2781 44.1251C22.0601 44.2867 21.7786 44.3067 21.4299 44.1832C21.0811 44.0597 20.7451 43.7291 20.4073 43.2242C19.9951 42.5897 19.7089 41.8818 19.5645 41.1391C18.5401 36.2078 18.1242 31.2256 18.0098 26.1999C18.1851 25.7723 18.4438 25.384 18.7708 25.0574C18.9154 24.8998 19.0928 24.7757 19.2905 24.6938C19.4881 24.6119 19.7013 24.5742 19.9151 24.5834C20.4273 24.5834 20.8977 24.8976 21.2773 25.4716C21.7005 26.1182 21.8912 26.9991 21.8949 28.0344Z" fill="#DD7907"/>
<path d="M22.4033 27.4315C22.4156 27.152 22.5084 26.8821 22.6703 26.6541C23.0336 26.091 23.6893 25.7459 24.5211 25.7623C25.0143 25.7878 25.4933 25.9364 25.9143 26.1946C27.0894 26.8557 27.9594 28.0454 28.5443 29.4639C29.074 30.7623 29.3496 32.1502 29.3562 33.5524C29.3635 34.0614 29.327 34.57 29.2472 35.0727C29.2082 35.4367 29.0924 35.7883 28.9075 36.1044C28.7734 35.8662 28.5683 35.6757 28.3209 35.5595C28.2862 35.5432 28.247 35.5398 28.2101 35.5498C28.1732 35.5598 28.141 35.5825 28.1193 35.614C28.0584 35.7462 28.0339 35.8923 28.0484 36.0372C28.6315 36.286 29.0583 36.8836 29.3652 37.799C29.6533 38.7173 29.7829 39.6779 29.7485 40.6397C29.7176 42.2889 29.3598 43.3968 28.7205 44.1234C28.1229 44.8027 27.2365 45.1823 26.0795 45.0842C25.4681 45.0555 24.8675 44.9126 24.3086 44.6628C23.8933 44.4262 23.5783 44.0466 23.4223 43.5948C23.1582 42.8571 23.0022 42.085 22.9591 41.3026C22.5995 36.6801 22.4251 32.0703 22.4033 27.4315ZM25.8543 34.5151C25.8688 34.5496 25.9161 34.5805 25.9905 34.6077C26.065 34.635 26.1249 34.5823 26.1722 34.4515C26.2193 34.2234 26.2376 33.9903 26.2267 33.7577V33.665C26.2321 33.4048 26.2138 33.1446 26.1722 32.8877C26.1377 32.7206 26.0814 32.6207 26.0033 32.5898C25.9251 32.5589 25.8725 32.5571 25.8452 32.5898C25.8452 32.6425 25.8452 32.7278 25.8452 32.8459C25.8543 33.5197 25.8543 33.8467 25.8652 34.5151H25.8543ZM25.9306 39.855C25.9451 39.8859 25.9905 39.9095 26.0632 39.9259C26.1358 39.9422 26.1903 39.895 26.2267 39.786C26.2721 39.5854 26.2881 39.3792 26.2739 39.1739C26.2739 39.0704 26.2739 39.0177 26.2739 38.9142C26.2764 38.6647 26.2564 38.4154 26.2139 38.1695C26.1794 38.0115 26.1231 37.9225 26.0468 37.9007C25.9706 37.8789 25.9179 37.8843 25.8925 37.9152C25.8925 37.9624 25.8925 38.0424 25.8925 38.155C25.9197 38.8434 25.927 39.183 25.9415 39.855H25.9306Z" fill="#DD7907"/>
<path d="M32.6173 30.3226C33.9341 30.8463 35.336 31.1234 36.7531 31.1399C36.902 31.5072 37.0074 31.8906 37.0673 32.2824C37.1258 32.6425 37.1508 33.0074 37.1418 33.3721C37.1163 34.0841 36.9892 34.6163 36.7876 34.9814C36.7154 35.1414 36.6006 35.2785 36.4559 35.3778C36.3111 35.4771 36.1419 35.5347 35.9666 35.5445C35.0583 35.58 34.1488 35.5148 33.2549 35.3501C33.0968 35.3247 33.0187 35.4209 33.0169 35.6425C33.0169 35.6789 33.0169 35.697 33.0169 35.7352C33.0144 35.7666 33.0187 35.7982 33.0296 35.8278C34.0803 36.0225 35.1517 36.0805 36.2173 36.0003C36.2967 36.2526 36.3443 36.5137 36.3589 36.7777C36.3785 37.0765 36.3675 37.3766 36.3262 37.6732C36.2512 38.3133 36.0552 38.9334 35.7487 39.5004C35.2038 39.5894 34.944 39.6239 34.4209 39.6675C34.0033 39.6832 33.5886 39.7441 33.184 39.8491C33.0369 39.8936 32.8991 39.9643 32.7772 40.058C32.72 40.1257 32.6879 40.211 32.6864 40.2996C32.6804 40.3396 32.6828 40.3805 32.6934 40.4196C32.704 40.4586 32.7227 40.4951 32.7481 40.5266C32.9504 40.4037 33.1703 40.3124 33.4002 40.256C33.7182 40.1871 34.0404 40.1386 34.3646 40.1107C34.933 40.0596 35.4974 39.9704 36.0538 39.8437C36.1737 40.3159 36.1228 40.8917 35.9121 41.571C35.7943 41.9487 35.6474 42.3167 35.4726 42.6717C35.3224 42.9834 35.1449 43.2812 34.9422 43.5617C33.7833 44.0938 32.5605 44.4741 31.3041 44.6932C31.114 44.74 30.9137 44.7211 30.7356 44.6397C30.5576 44.5582 30.4123 44.419 30.3233 44.2446C30.0654 43.8305 29.9401 43.1548 29.9601 42.2194C30.06 38.238 30.0509 34.2658 29.9601 30.2844C29.9474 29.8503 30.1417 29.6451 30.5613 29.6723C30.9808 29.6996 31.6347 29.9557 32.6173 30.3226Z" fill="#DD7907"/>
<path d="M39.3658 39.1756C39.495 39.0844 39.5958 38.9585 39.6564 38.8124C39.7223 38.6626 39.7634 38.5031 39.7781 38.3401C39.7952 38.1922 39.7706 38.0425 39.7072 37.9078C39.5401 37.59 39.1424 37.5246 38.5593 37.7099C38.2473 37.8139 37.9559 37.9719 37.6984 38.1766C37.4822 38.0332 37.3351 37.7371 37.2552 37.2812C37.17 36.7605 37.159 36.2303 37.2225 35.7065C37.3878 34.1626 37.8273 32.8785 38.6756 31.8922C39.3877 31.0808 40.3204 30.494 41.3601 30.203C42.1538 29.9597 42.8131 29.8198 43.3489 29.8398C43.8847 29.8598 44.2898 29.9506 44.5768 30.1594C44.6219 30.5804 44.6004 31.0057 44.5132 31.42C44.424 31.866 44.2895 32.3017 44.1118 32.7204C43.9578 33.0928 43.7648 33.4477 43.536 33.7794C43.4506 33.7049 43.2545 33.6867 42.9403 33.7103C42.6217 33.7332 42.3095 33.8113 42.0176 33.941C41.7996 34.0262 41.5937 34.1398 41.4055 34.2788C41.335 34.3362 41.2785 34.4088 41.2404 34.4913C41.2024 34.5738 41.1836 34.6639 41.1857 34.7547C41.3615 34.63 41.5503 34.5246 41.7488 34.4405C42.5316 34.0954 43.1055 34.0391 43.3834 34.3152C43.7086 34.6421 43.5469 35.4504 42.8222 36.66C42.181 37.7262 41.3038 38.7324 40.3847 39.6987C39.3948 40.7376 38.5684 41.5259 37.7983 42.0763C37.4811 42.3196 37.129 42.5137 36.7539 42.652C36.4815 42.7356 36.0909 42.6866 36.0274 42.5667C35.9129 42.3505 36.0982 41.5423 36.2871 40.8993C36.4647 40.262 36.757 39.6625 37.1499 39.1302C37.5476 38.6053 37.9636 38.2802 38.3886 38.1421C38.8136 38.0041 39.1242 38.0095 39.2967 38.1676C39.4693 38.3256 39.5002 38.6689 39.3658 39.1756Z" fill="#DD7907"/>
<path d="M15.8352 16.3786C16.9017 15.8334 18.0248 15.407 19.1845 15.1072C19.304 15.6958 19.3169 16.3012 19.2226 16.8944C19.1631 17.5575 19.0159 18.2098 18.7849 18.8342L18.5506 18.8778C18.4823 19.9057 18.4726 20.9366 18.5215 21.9656C17.8131 23.2679 16.8614 24.0017 15.3393 24.5229C14.4832 24.8352 13.5747 24.9789 12.6639 24.9461C11.7721 24.8862 11.0619 24.5829 10.7168 23.9236C10.3372 23.197 10.4153 22.0491 11.0347 20.6015C11.8611 18.6708 13.1834 16.9689 14.6074 15.4196C15.8188 14.1137 16.7742 13.1982 17.7005 12.5952C18.1564 12.2937 18.5379 12.1302 18.8757 12.123C19.0218 12.1086 19.169 12.1349 19.3011 12.199C19.4332 12.2631 19.5449 12.3625 19.624 12.4862C19.5223 12.795 19.3788 13.1928 19.2008 13.6886C19.0228 14.1845 18.8702 14.5932 18.7304 14.8783C17.7112 15.1859 16.7245 15.5923 15.7843 16.0916C15.5493 16.4101 15.3386 16.7459 15.1541 17.096C14.9132 17.5299 14.73 17.9933 14.6092 18.4746C14.4421 19.1594 14.4784 19.6589 14.6691 19.9549C14.8598 20.251 15.1159 20.3018 15.4574 20.1729C15.5207 20.1542 15.5766 20.1165 15.6176 20.0648C15.6586 20.0131 15.6826 19.9499 15.6862 19.8841C15.6862 19.7951 15.699 19.7515 15.708 19.6625L15.6354 19.6897C15.5236 19.7474 15.3939 19.7595 15.2733 19.7237C15.1528 19.6878 15.0508 19.6066 14.9888 19.4972C14.8453 19.2574 14.8308 18.8451 14.9652 18.2694C15.1243 17.5868 15.4203 16.9435 15.8352 16.3786Z" fill="#DD7907"/>
<path d="M23.9037 24.4922C23.0489 24.1553 22.2611 23.6688 21.577 23.0555C20.7688 22.3538 20.1272 21.4808 19.6989 20.4999C19.2322 19.4501 19.2866 18.1605 19.4247 16.7347C19.5809 15.1527 20.3492 13.1203 21.3845 11.8961C22.24 10.8808 23.0791 10.1742 24.0599 9.98169C25.1279 9.77281 25.9852 10.2342 26.6318 11.5655C27.4982 13.3473 27.6853 15.4778 27.7016 17.4358C27.718 19.481 27.6471 21.8894 26.6391 23.6876C26.0361 24.7646 25.1497 24.9463 23.9037 24.4922ZM23.9691 16.1372C23.9882 15.6486 23.9821 15.1594 23.9509 14.6714C23.9237 14.4099 23.8619 14.2809 23.7693 14.2791C23.735 14.2803 23.7015 14.2899 23.6718 14.3069C23.642 14.324 23.6169 14.3481 23.5986 14.3772C23.5986 14.5007 23.5986 14.6641 23.6149 14.8712C23.6313 15.0783 23.6149 15.5196 23.5986 16.2207C23.5986 16.4986 23.5986 16.6403 23.5859 16.9236C23.5859 17.4177 23.5713 17.7846 23.5586 18.0134C23.5459 18.2423 23.535 18.4384 23.5277 18.6019C23.5277 18.6927 23.5277 18.7835 23.515 18.8725C23.5336 18.908 23.5593 18.9393 23.5906 18.9643C23.6218 18.9893 23.658 19.0075 23.6966 19.0178C23.802 19.036 23.8783 18.907 23.9073 18.6291C23.953 18.1177 23.973 17.6042 23.9673 17.0907C23.96 16.7039 23.9636 16.5131 23.9691 16.1354V16.1372Z" fill="#DD7907"/>
<path d="M31.7612 28.8763C31.0347 28.5294 30.4353 27.7865 29.8849 26.7331C29.3346 25.6796 28.8932 24.3246 28.5318 22.7662C28.1584 21.0421 27.9697 19.283 27.9687 17.5189C27.9542 15.5391 28.0959 13.3178 29.0385 11.536C29.6434 10.3899 30.4389 9.86678 31.4106 10.0829C32.4659 10.319 33.3632 11.3253 34.2368 13.1125C35.3121 15.3139 35.8007 17.6224 36.084 20.0145C36.3728 22.4375 36.1131 25.2818 34.9034 27.416C34.0697 28.8836 32.9254 29.4357 31.7612 28.8763ZM32.1699 18.2963C32.1628 17.6596 32.1234 17.0237 32.0518 16.391C32.0009 16.0422 31.9283 15.8552 31.832 15.8261C31.7739 15.8098 31.7212 15.837 31.6776 15.9115C31.6922 16.0749 31.7121 16.2929 31.7376 16.569C31.763 16.8451 31.7939 17.4226 31.8139 18.3308C31.8139 18.6941 31.8248 18.8757 31.8302 19.239C31.8411 19.8783 31.8302 20.3469 31.8302 20.6393C31.8302 20.9318 31.8084 21.1842 31.8011 21.3913C31.8011 21.5057 31.7921 21.6201 31.7884 21.7346C31.8155 21.8229 31.8753 21.8976 31.9555 21.9434C32.0554 21.9816 32.1245 21.8236 32.1626 21.473C32.2092 20.8227 32.222 20.1703 32.2007 19.5187C32.188 19.0264 32.1826 18.7812 32.1699 18.2963Z" fill="#DD7907"/>
<path d="M38.6424 29.6195C38.3365 29.6618 38.0252 29.6026 37.7562 29.4511C37.4872 29.2995 37.2753 29.0639 37.153 28.7803C36.8642 28.17 36.7335 27.2437 36.7316 26.0559C36.6632 21.8569 36.2452 17.671 35.482 13.5415C35.3512 12.9094 35.5075 12.4826 35.8852 12.3064C36.263 12.1302 36.6953 12.2355 37.2475 12.5897C38.2174 13.2182 39.2454 14.3189 40.4242 15.5812C41.8391 17.0796 43.1269 18.7706 43.9733 20.616C44.6362 22.0691 44.827 24.314 44.2385 25.8306C43.65 27.3473 42.5311 28.7712 40.753 29.2362C40.0626 29.428 39.3561 29.5563 38.6424 29.6195ZM40.4987 19.9367C40.3587 19.3718 40.1803 18.8172 39.9647 18.2766C39.8375 17.9751 39.7249 17.8153 39.6305 17.7971C39.5724 17.7862 39.5324 17.8153 39.5088 17.8861C39.5615 18.0314 39.6305 18.2257 39.7177 18.4709C39.8048 18.7161 39.9629 19.2338 40.1608 20.0493C40.2389 20.3744 40.2771 20.5379 40.3425 20.8685C40.4678 21.4424 40.5405 21.8674 40.575 22.1399C40.6095 22.4123 40.6367 22.6394 40.6585 22.8319C40.6712 22.9373 40.6839 23.0426 40.6948 23.1479C40.7173 23.1831 40.7482 23.2121 40.7846 23.2324C40.8211 23.2526 40.862 23.2636 40.9037 23.2642C41.0145 23.2533 41.0635 23.0826 41.049 22.7593C40.9976 22.1712 40.8998 21.5882 40.7566 21.0156C40.664 20.5869 40.6113 20.3635 40.4987 19.9367Z" fill="#DD7907"/>
</svg>
