<svg width="55" height="51" viewBox="0 0 55 51" fill="none" xmlns="http://www.w3.org/2000/svg">
<path d="M17.0289 50.5L3.19141 48.1713L9.78863 8.40209L32.875 18.4L37.8802 0.5L51.3781 4.35531L42.0134 37.7594L20.6657 28.5247L17.0289 50.5Z" fill="#F2910D"/>
<path d="M1.96484 33.2856L2.22205 30.3049H3.12482L3.83727 22.1233H2.93449L3.1917 19.1426H13.9942L13.5852 23.8517H10.3933L10.5451 22.1233H8.899L8.6418 25.1403H11.3656L11.1855 27.2103H8.45661L8.18655 30.3152H10.5451L10.2879 33.296L1.96484 33.2856Z" fill="#F5F5F5"/>
<path d="M25.1033 30.3049H25.8261L25.5689 33.2856H18.483L18.7402 30.3049H19.823L19.661 28.8507H17.2047L16.7906 30.3049H17.8734L17.6162 33.2856H11.4434L11.7006 30.3049H12.4233L16.4408 19.1426H23.02L25.1033 30.3049ZM17.7705 26.9231H19.4346L19.0077 23.3006H18.8276L17.7705 26.9231Z" fill="#F5F5F5"/>
<path d="M28.4691 33.2422C27.6738 33.1055 26.897 32.8763 26.1543 32.5591L26.4655 28.9625H30.4418C30.4139 29.1041 30.4158 29.2499 30.4472 29.3907C30.4787 29.5316 30.539 29.6642 30.6245 29.7801C30.7762 29.9509 31.0771 30.0389 31.5221 30.0389C31.806 30.0592 32.09 30.0001 32.3426 29.8681C32.4275 29.8106 32.4979 29.7338 32.5479 29.6439C32.598 29.554 32.6263 29.4536 32.6306 29.3506C32.6403 29.2582 32.628 29.1648 32.595 29.078C32.5619 28.9912 32.5089 28.9135 32.4403 28.8512C32.2111 28.6628 31.9496 28.5181 31.6687 28.4243L30.1615 27.8784C28.8703 27.3712 27.9616 26.7675 27.4352 26.0671C26.9088 25.3668 26.6961 24.4345 26.7973 23.2701C26.9242 21.8384 27.4857 20.7508 28.482 20.0073C29.4782 19.2639 31.0677 18.8904 33.2505 18.8869C34.235 18.8811 35.2169 18.9879 36.1774 19.2052C36.9396 19.3608 37.6696 19.647 38.3354 20.0513L38.0653 23.3063H34.4645C34.5185 22.7009 34.1713 22.3955 33.4228 22.3955C33.1584 22.3789 32.8939 22.4259 32.6512 22.5327C32.5715 22.5846 32.5061 22.6559 32.4611 22.7401C32.4162 22.8242 32.3931 22.9184 32.394 23.0139C32.3821 23.1082 32.3962 23.2039 32.4347 23.2906C32.4733 23.3773 32.5348 23.4517 32.6126 23.5056C32.8691 23.6707 33.1469 23.7995 33.4382 23.8885L34.9635 24.4319C36.174 24.8648 37.0408 25.4315 37.5638 26.1318C38.0867 26.8322 38.2994 27.7447 38.2016 28.8693C38.0679 30.408 37.4514 31.5715 36.3523 32.3598C35.2532 33.1481 33.71 33.5423 31.7227 33.5423C30.6311 33.5478 29.5415 33.4473 28.4691 33.2422Z" fill="#F5F5F5"/>
<path d="M52.655 23.5413H49.5454L49.6689 22.1233H48.5115L47.8016 30.3049H49.067L48.8098 33.2856H41.2172L41.4744 30.3049H42.7373L43.4497 22.1233H42.2923L42.1817 23.5413H39.0645L39.4477 19.1426H53.0356L52.655 23.5413Z" fill="#F5F5F5"/>
<path d="M0 35.0965L0.57356 28.4933H1.47891L1.875 23.9342H0.96965L1.54578 17.3311H15.9671L15.2418 25.6627H13.1276L12.8344 29.0238H12.4743L11.9444 35.0965H0Z" fill="#F2910D"/>
<path d="M9.4707 35.0975L10.0443 28.4943H11.1554L15.1806 17.332H24.5144L26.5978 28.4943H27.7912L27.215 35.0975H9.4707Z" fill="#F2910D"/>
<path d="M31.7237 35.3536C30.5155 35.3582 29.3098 35.2464 28.1228 35.0198C27.1791 34.8573 26.2584 34.5801 25.3811 34.1944L24.252 33.6536L24.8178 27.1514H25.9778C25.1856 26.0957 24.8564 24.7373 24.9978 23.1149C25.165 21.1795 25.9984 19.6037 27.4027 18.5532C28.7324 17.5622 30.6434 17.0784 33.2437 17.0784C34.3686 17.0716 35.4905 17.1949 36.5873 17.4458C37.5553 17.6456 38.4808 18.0152 39.3214 18.5377L40.2242 19.1302L39.7098 25.1202H39.0616C39.8332 26.1707 40.1367 27.4851 40.0004 29.0298C39.8229 31.0843 38.9253 32.748 37.4052 33.8373C36.0086 34.8413 34.0848 35.3536 31.7237 35.3536Z" fill="#F2910D"/>
<path d="M39.2524 35.0975L39.8259 28.4943H41.0914L41.364 25.3531H37.0996L37.7966 17.332H55.0008L54.3038 25.3531H50.0394L49.7668 28.4943H51.0322L50.4561 35.0975H39.2524Z" fill="#F2910D"/>
<path d="M1.96484 33.2856L2.22205 30.3049H3.12482L3.83727 22.1233H2.93449L3.1917 19.1426H13.9942L13.5852 23.8517H10.3933L10.5451 22.1233H8.899L8.6418 25.1403H11.3656L11.1855 27.2103H8.45661L8.18655 30.3152H10.5451L10.2879 33.296L1.96484 33.2856Z" fill="#F5F5F5"/>
<path d="M25.1033 30.3049H25.8261L25.5689 33.2856H18.483L18.7402 30.3049H19.823L19.661 28.8507H17.2047L16.7906 30.3049H17.8734L17.6162 33.2856H11.4434L11.7006 30.3049H12.4233L16.4408 19.1426H23.02L25.1033 30.3049ZM17.7705 26.9231H19.4346L19.0077 23.3006H18.8276L17.7705 26.9231Z" fill="#F5F5F5"/>
<path d="M28.4691 33.2422C27.6738 33.1055 26.897 32.8763 26.1543 32.5591L26.4655 28.9625H30.4418C30.4139 29.1041 30.4158 29.2499 30.4472 29.3907C30.4787 29.5316 30.539 29.6642 30.6245 29.7801C30.7762 29.9509 31.0771 30.0389 31.5221 30.0389C31.806 30.0592 32.09 30.0001 32.3426 29.8681C32.4275 29.8106 32.4979 29.7338 32.5479 29.6439C32.598 29.554 32.6263 29.4536 32.6306 29.3506C32.6403 29.2582 32.628 29.1648 32.595 29.078C32.5619 28.9912 32.5089 28.9135 32.4403 28.8512C32.2111 28.6628 31.9496 28.5181 31.6687 28.4243L30.1615 27.8784C28.8703 27.3712 27.9616 26.7675 27.4352 26.0671C26.9088 25.3668 26.6961 24.4345 26.7973 23.2701C26.9242 21.8384 27.4857 20.7508 28.482 20.0073C29.4782 19.2639 31.0677 18.8904 33.2505 18.8869C34.235 18.8811 35.2169 18.9879 36.1774 19.2052C36.9396 19.3608 37.6696 19.647 38.3354 20.0513L38.0653 23.3063H34.4645C34.5185 22.7009 34.1713 22.3955 33.4228 22.3955C33.1584 22.3789 32.8939 22.4259 32.6512 22.5327C32.5715 22.5846 32.5061 22.6559 32.4611 22.7401C32.4162 22.8242 32.3931 22.9184 32.394 23.0139C32.3821 23.1082 32.3962 23.2039 32.4347 23.2906C32.4733 23.3773 32.5348 23.4517 32.6126 23.5056C32.8691 23.6707 33.1469 23.7995 33.4382 23.8885L34.9635 24.4319C36.174 24.8648 37.0408 25.4315 37.5638 26.1318C38.0867 26.8322 38.2994 27.7447 38.2016 28.8693C38.0679 30.408 37.4514 31.5715 36.3523 32.3598C35.2532 33.1481 33.71 33.5423 31.7227 33.5423C30.6311 33.5478 29.5415 33.4473 28.4691 33.2422Z" fill="#F5F5F5"/>
<path d="M52.655 23.5413H49.5454L49.6689 22.1233H48.5115L47.8016 30.3049H49.067L48.8098 33.2856H41.2172L41.4744 30.3049H42.7373L43.4497 22.1233H42.2923L42.1817 23.5413H39.0645L39.4477 19.1426H53.0356L52.655 23.5413Z" fill="#F5F5F5"/>
</svg>
