<svg width="56" height="55" viewBox="0 0 56 55" fill="none" xmlns="http://www.w3.org/2000/svg">
<path d="M41.7932 0.00139895C43.5962 -0.00175283 45.3837 0.33323 47.0632 0.988979C48.7637 1.64941 50.3007 2.67064 51.5685 3.98231C52.9464 5.42993 54.0127 7.14471 54.7017 9.02071C55.5297 11.3217 55.9267 13.7555 55.8728 16.2003C55.8982 19.1275 55.3995 22.0356 54.4002 24.787C53.423 27.4278 52.1257 29.9388 50.5372 32.2638C48.9314 34.6044 47.121 36.798 45.1274 38.8185C43.1173 40.8578 41.078 42.8067 39.0096 44.6654C36.9413 46.524 34.9632 48.304 33.0754 50.0053C31.311 51.5531 29.6566 53.222 28.1244 55H27.7137C26.1863 53.2262 24.541 51.5575 22.7889 50.0053C20.8836 48.304 18.9041 46.5255 16.8503 44.6697C14.7965 42.814 12.7572 40.8651 10.7325 38.8229C8.73904 36.8034 6.93002 34.6097 5.32705 32.2682C3.74131 29.9421 2.4483 27.4294 1.47723 24.787C0.477894 22.0356 -0.0208483 19.1275 0.00460063 16.2003C-0.0479779 13.7552 0.350504 11.3214 1.18008 9.02071C1.86764 7.14503 2.9325 5.43025 4.30888 3.98231C5.57792 2.67012 7.11652 1.64886 8.81853 0.988979C10.4984 0.334423 12.2857 -0.000516806 14.0885 0.00139895C15.6839 -0.0186558 17.2724 0.214381 18.7948 0.691831C20.1363 1.12431 21.4069 1.75152 22.566 2.55338C23.6639 3.3195 24.6583 4.22425 25.5244 5.24519C26.3367 6.2021 27.0676 7.22529 27.7093 8.30406H28.12C28.765 7.22094 29.505 6.19728 30.3312 5.24519C31.2056 4.22753 32.2038 3.32324 33.3027 2.55338C34.4628 1.75065 35.735 1.12339 37.0782 0.691831C38.6032 0.212668 40.1948 -0.0203992 41.7932 0.00139895Z" fill="#F0372E"/>
<path d="M23.0025 29.5722C25.5728 29.5722 27.6564 26.1289 27.6564 21.8813C27.6564 17.6338 25.5728 14.1904 23.0025 14.1904C20.4322 14.1904 18.3486 17.6338 18.3486 21.8813C18.3486 26.1289 20.4322 29.5722 23.0025 29.5722Z" fill="#F1FFFF"/>
<path d="M24.62 26.3425C26.2973 26.3425 27.6571 24.2844 27.6571 21.7455C27.6571 19.2066 26.2973 17.1484 24.62 17.1484C22.9427 17.1484 21.583 19.2066 21.583 21.7455C21.583 24.2844 22.9427 26.3425 24.62 26.3425Z" fill="#2C191F"/>
<path d="M23.9211 20.3255C24.4762 20.3255 24.9261 19.8756 24.9261 19.3205C24.9261 18.7654 24.4762 18.3154 23.9211 18.3154C23.366 18.3154 22.916 18.7654 22.916 19.3205C22.916 19.8756 23.366 20.3255 23.9211 20.3255Z" fill="#F1FFFF"/>
<path d="M32.8824 29.5722C35.4526 29.5722 37.5362 26.1289 37.5362 21.8813C37.5362 17.6338 35.4526 14.1904 32.8824 14.1904C30.3121 14.1904 28.2285 17.6338 28.2285 21.8813C28.2285 26.1289 30.3121 29.5722 32.8824 29.5722Z" fill="#F1FFFF"/>
<path d="M34.495 26.3425C36.1723 26.3425 37.5321 24.2844 37.5321 21.7455C37.5321 19.2066 36.1723 17.1484 34.495 17.1484C32.8177 17.1484 31.458 19.2066 31.458 21.7455C31.458 24.2844 32.8177 26.3425 34.495 26.3425Z" fill="#2C191F"/>
<path d="M33.801 20.3255C34.356 20.3255 34.806 19.8756 34.806 19.3205C34.806 18.7654 34.356 18.3154 33.801 18.3154C33.2459 18.3154 32.7959 18.7654 32.7959 19.3205C32.7959 19.8756 33.2459 20.3255 33.801 20.3255Z" fill="#F1FFFF"/>
<path d="M41.8809 35.3311C43.6451 35.3311 45.0752 33.9009 45.0752 32.1367C45.0752 30.3725 43.6451 28.9424 41.8809 28.9424C40.1167 28.9424 38.6865 30.3725 38.6865 32.1367C38.6865 33.9009 40.1167 35.3311 41.8809 35.3311Z" fill="#FC8DEC"/>
<path d="M14.001 35.3311C15.7652 35.3311 17.1953 33.9009 17.1953 32.1367C17.1953 30.3725 15.7652 28.9424 14.001 28.9424C12.2368 28.9424 10.8066 30.3725 10.8066 32.1367C10.8066 33.9009 12.2368 35.3311 14.001 35.3311Z" fill="#FC8DEC"/>
</svg>
