<svg width="55" height="55" viewBox="0 0 55 55" fill="none" xmlns="http://www.w3.org/2000/svg">
<path d="M27.507 3.61095e-05C22.063 -0.0088064 16.7402 1.60656 12.2193 4.63949C11.7405 4.05749 11.1452 3.58211 10.4717 3.24394C9.79812 2.90576 9.06128 2.71226 8.30849 2.67588C7.5557 2.63949 6.80363 2.76103 6.10063 3.03268C5.39762 3.30433 4.75923 3.72008 4.2265 4.25319C3.69378 4.78631 3.2785 5.425 3.00736 6.12821C2.73623 6.83142 2.61524 7.58358 2.65217 8.33634C2.68911 9.0891 2.88315 9.8258 3.22182 10.4991C3.56049 11.1724 4.0363 11.7673 4.61865 12.2458C1.21877 17.3456 -0.379953 23.435 0.0763358 29.5472C0.532625 35.6595 3.01777 41.4441 7.13717 45.9825C11.2566 50.521 16.7741 53.5533 22.8137 54.5977C28.8532 55.6422 35.0686 54.6391 40.473 51.7477C45.8773 48.8563 50.1608 44.2423 52.6433 38.6383C55.1259 33.0343 55.6651 26.7616 54.1754 20.8162C52.6857 14.8708 49.2525 9.5934 44.4209 5.82206C39.5893 2.05073 33.6362 0.00159663 27.507 3.61095e-05Z" fill="#4F5332"/>
<path d="M27.5068 52.3447C41.2298 52.3447 52.3545 41.2201 52.3545 27.4971C52.3545 13.7741 41.2298 2.64941 27.5068 2.64941C13.7839 2.64941 2.65918 13.7741 2.65918 27.4971C2.65918 41.2201 13.7839 52.3447 27.5068 52.3447Z" fill="#FCF3F0"/>
<path d="M28.4758 21.049C28.5175 20.9809 28.5418 20.9035 28.5465 20.8238C28.5511 20.744 28.5359 20.6644 28.5023 20.5919C28.4687 20.5195 28.4177 20.4564 28.3538 20.4085C28.2899 20.3605 28.2152 20.3291 28.1362 20.317C26.2354 20.0554 21.0643 19.8272 18.1448 24.436C16.9862 26.1759 16.4018 28.235 16.4737 30.3241C16.5456 32.4132 17.2701 34.4273 18.5456 36.0834C19.3527 37.0491 22.0913 38.9027 23.7862 38.5882C25.4811 38.2737 26.6473 38.0983 27.6826 38.6271C28.7179 39.1559 30.7857 39.6708 33.4854 38.6271C36.185 37.5835 39.8865 35.446 39.8865 30.4086C39.8865 25.3711 36.1405 21.8338 33.683 21.0629C31.2255 20.292 29.6697 20.5953 28.5398 22.0648C27.4098 23.5343 25.5173 26.3285 25.598 31.6471C25.598 31.6471 24.4597 27.5141 28.4758 21.049Z" fill="#EABEA5"/>
<path d="M29.8585 20.1975C29.8585 20.1975 25.5057 19.2318 23.9444 19.2318C22.3831 19.2318 19.1101 19.2318 17.5794 17.6983C16.0487 16.1648 15.1191 16.8132 15.1191 16.8132C15.1191 16.8132 16.6916 14.9179 22.9119 14.6758C29.1321 14.4337 30.7046 17.6983 29.8585 20.1975Z" fill="#4F5332"/>
<path d="M31.2861 7.31393C31.4685 7.19016 31.6836 7.12333 31.904 7.1219C32.1277 7.10476 32.3528 7.12642 32.5692 7.18591C33.084 7.31671 33.6574 7.64512 33.8466 8.17113C33.9156 8.34846 33.9292 8.54254 33.8856 8.72775C33.7047 9.42353 32.6137 9.77142 31.9764 9.76864H31.8177C31.7481 9.76864 31.6786 9.78812 31.6591 9.86605C31.5338 10.3503 31.4336 10.8374 31.339 11.3272V11.3467C31.2778 11.5804 31.0078 11.586 30.8186 11.5387C30.3928 11.4274 30.3371 11.1964 30.4401 10.8012C30.4623 10.7177 30.4818 10.6342 30.5041 10.5563C30.5848 10.239 30.6488 9.91893 30.724 9.59887C30.739 9.54483 30.751 9.49001 30.7601 9.43467C30.7907 9.2649 30.7073 9.15636 30.7406 9.04225C30.774 8.92814 30.8882 8.91422 30.9355 8.73332C30.9522 8.66374 30.9605 8.58303 30.9744 8.50789L31.0663 8.07929C31.0997 7.92065 31.1136 7.7648 31.1553 7.61172C31.1683 7.50165 31.2139 7.39796 31.2861 7.31393ZM31.9791 9.02833C32.2769 8.98658 32.8391 8.8363 32.9282 8.49676C32.9282 8.45501 32.9477 8.41326 32.9532 8.36873C32.9534 8.30836 32.938 8.24895 32.9087 8.19618C32.8579 8.11303 32.7903 8.04139 32.7103 7.9858C32.6303 7.93022 32.5396 7.89191 32.4439 7.87334C32.3604 7.85107 32.1266 7.79263 32.0932 7.91787C32.0598 8.04311 32.0264 8.19618 31.9931 8.35203L31.8706 8.90866C31.8627 8.93376 31.865 8.96096 31.8769 8.9844C31.8889 9.00783 31.9096 9.02561 31.9346 9.0339C31.9497 9.03614 31.9651 9.03422 31.9791 9.02833Z" fill="#4F5332"/>
<path d="M36.7465 9.72116C36.6018 9.65159 36.4682 9.57366 36.3235 9.5013C36.3081 9.49176 36.2908 9.48562 36.2728 9.48327C36.2548 9.48093 36.2365 9.48244 36.2191 9.4877C36.2017 9.49297 36.1857 9.50186 36.172 9.5138C36.1583 9.52574 36.1474 9.54046 36.1398 9.55696C36.073 9.66272 36.0257 9.77683 35.9673 9.88537C35.9088 9.99391 35.8225 10.1386 35.7613 10.2667C35.7391 10.3112 35.7335 10.3641 35.7836 10.3891C35.9905 10.389 36.1965 10.417 36.3959 10.4726C36.5796 10.5617 36.7772 10.7787 36.6742 10.9958C36.5211 11.3131 35.7363 11.1322 35.458 11.0877C35.4269 11.0835 35.3953 11.0894 35.3678 11.1044C35.3402 11.1194 35.3182 11.1428 35.3049 11.1712C35.1537 11.4944 35.019 11.8251 34.9013 12.162C34.8763 12.226 34.8206 12.2872 34.9013 12.3317C34.982 12.3763 35.1657 12.4208 35.2882 12.4792C35.4774 12.5711 35.7112 12.7854 35.5971 13.0192C35.4329 13.3587 34.8373 13.0832 34.6035 12.9718C34.3698 12.8605 33.8966 12.6295 33.8438 12.3568C33.8466 12.1983 33.8847 12.0424 33.9551 11.9003C34.1038 11.4644 34.2785 11.0379 34.4783 10.6229C34.7566 10.044 35.0683 9.48738 35.355 8.91128C35.4886 8.63297 35.611 8.42423 35.9116 8.55226C36.2651 8.70254 36.3513 8.75264 36.8106 8.97529C36.9728 9.03898 37.1212 9.13349 37.2475 9.2536C37.2963 9.30084 37.3298 9.36163 37.3437 9.42811C37.3576 9.49459 37.3512 9.56371 37.3254 9.62654C37.2447 9.8464 36.9358 9.80744 36.7465 9.72116Z" fill="#4F5332"/>
<path d="M40.243 12.8695C39.8756 13.5625 39.4554 14.2304 39.1297 14.9401C39.0709 15.1171 38.9945 15.2877 38.9015 15.4494C38.7401 15.6609 38.4479 15.5747 38.2642 15.4494C37.6241 14.9568 38.5926 14.3529 38.2642 14.1079L37.7688 13.7267C37.5183 13.5346 37.0201 14.236 36.5387 13.8686C36.3717 13.7406 36.1991 13.4678 36.355 13.2647C36.5108 13.0615 36.8865 13.0281 37.0424 12.8277C37.1175 12.7303 37.1259 12.6886 37.2623 12.6524C37.4621 12.5803 37.6462 12.4707 37.805 12.3295C38.2781 11.9983 39.6891 10.9714 40.2458 11.1495C40.3225 11.1753 40.3948 11.2129 40.4601 11.2608C40.9221 11.6059 40.4545 12.4715 40.243 12.8695ZM38.651 12.9335C38.5527 12.9932 38.4596 13.0611 38.3727 13.1366C38.3638 13.1481 38.3573 13.1614 38.3537 13.1755C38.3501 13.1896 38.3495 13.2043 38.3518 13.2186C38.3542 13.233 38.3595 13.2467 38.3674 13.259C38.3753 13.2712 38.3856 13.2817 38.3978 13.2897L38.6121 13.4539C38.624 13.464 38.6379 13.4715 38.6529 13.4759C38.6679 13.4803 38.6837 13.4815 38.6991 13.4794C38.7146 13.4773 38.7295 13.472 38.7428 13.4637C38.7561 13.4555 38.7675 13.4446 38.7763 13.4317C38.95 13.1484 39.108 12.8557 39.2494 12.555C39.0403 12.6651 38.8402 12.7917 38.651 12.9335Z" fill="#4F5332"/>
<path d="M40.5404 17.0324C39.8502 16.1975 40.3094 15.0842 41.0581 14.4552C41.8067 13.8263 42.8866 13.6982 43.5629 14.5276C43.7521 14.7558 44.1195 15.3876 43.8412 15.6241C43.7756 15.6962 43.6845 15.7398 43.5872 15.7455C43.49 15.7512 43.3943 15.7187 43.3208 15.6548C43.1593 15.4599 43.1983 15.1844 43.0424 14.9896C42.7085 14.586 41.9709 15.0258 41.6676 15.2679C41.3642 15.51 40.9746 15.9832 41.0414 16.434C41.0501 16.5017 41.0781 16.5655 41.1221 16.6177C41.3113 16.8459 41.7149 16.871 41.9097 17.1048C42.0517 17.2773 41.9097 17.5083 41.7093 17.6614C41.4171 17.9174 40.7325 17.2551 40.5404 17.0324Z" fill="#4F5332"/>
<path d="M42.4414 19.4175C42.3353 19.4117 42.2327 19.3773 42.1446 19.318C42.0564 19.2587 41.9858 19.1768 41.9404 19.0807C41.9042 19.0291 41.8799 18.97 41.8693 18.9079C41.8587 18.8457 41.8621 18.782 41.8791 18.7213C41.8962 18.6605 41.9265 18.6044 41.9679 18.5568C42.0093 18.5092 42.0607 18.4714 42.1185 18.4462C42.1992 18.4044 42.2883 18.3738 42.3773 18.3265L44.0083 17.4916C44.2253 17.383 44.4369 17.255 44.6512 17.1465C44.7625 17.0908 44.8766 17.0379 44.9851 16.9962C45.2106 16.9182 45.3887 17.0852 45.4861 17.2745C45.5279 17.3285 45.5563 17.3917 45.5691 17.4588C45.5819 17.5259 45.5787 17.5951 45.5597 17.6607C45.5407 17.7263 45.5065 17.7866 45.4599 17.8365C45.4132 17.8864 45.3555 17.9246 45.2913 17.948C45.1911 17.9981 45.0937 18.0343 45.013 18.0816L44.1363 18.5241C44.1194 18.532 44.1043 18.5433 44.092 18.5574C44.0798 18.5715 44.0706 18.5879 44.0651 18.6058C44.0596 18.6236 44.0579 18.6424 44.0601 18.6609C44.0623 18.6794 44.0683 18.6973 44.0778 18.7134C44.1837 18.9308 44.3056 19.1401 44.4424 19.3396C44.4626 19.3671 44.4921 19.3863 44.5255 19.3935C44.5588 19.4006 44.5936 19.3953 44.6233 19.3785C44.9448 19.2177 45.2562 19.0374 45.5557 18.8386C45.6614 18.7718 45.7449 18.68 45.8562 18.6243C46.0872 18.5074 46.296 18.7134 46.3934 18.9026C46.4401 18.9806 46.4633 19.0703 46.4604 19.1611C46.4574 19.2519 46.4283 19.34 46.3767 19.4147C46.1873 19.5989 45.9692 19.7512 45.731 19.8656C45.4944 20.0131 45.2551 20.1439 45.0102 20.2719C44.4536 20.5725 43.8969 20.8591 43.3403 21.1402C43.0202 21.3017 42.8032 21.2822 42.6278 20.9398C42.5877 20.8839 42.5615 20.8191 42.5513 20.751C42.5411 20.6829 42.5473 20.6134 42.5694 20.5481C42.5914 20.4828 42.6286 20.4238 42.678 20.3757C42.7273 20.3277 42.7874 20.2921 42.8533 20.2719C42.9618 20.2162 43.087 20.1745 43.2039 20.116L43.7606 19.8377C43.7755 19.8286 43.7886 19.8166 43.7989 19.8024C43.8093 19.7883 43.8168 19.7722 43.8209 19.7551C43.825 19.7381 43.8258 19.7204 43.823 19.703C43.8203 19.6857 43.8142 19.669 43.8051 19.654C43.7731 19.5964 43.7378 19.5406 43.6993 19.4871C43.6214 19.359 43.5463 19.2087 43.4795 19.0919L43.4266 19.0084C43.4099 18.975 43.3598 18.9165 43.3153 18.9388L42.9423 19.128C42.8421 19.1809 42.7976 19.2839 42.664 19.359C42.598 19.402 42.5199 19.4226 42.4414 19.4175Z" fill="#4F5332"/>
<path d="M48.0134 23.718C48.0607 23.91 48.0273 24.205 47.7991 24.2746C47.5709 24.3442 47.3844 24.0909 47.223 23.9963C46.8139 23.7875 46.3713 23.6205 45.9539 23.4396C45.8592 23.3979 45.7368 23.2894 45.6282 23.3144C45.1913 23.4229 44.7543 23.5064 44.3146 23.615C44.2283 23.6332 44.1436 23.6583 44.0613 23.6901C43.9514 23.7278 43.8388 23.7576 43.7246 23.7792C43.4992 23.8348 43.3544 23.5899 43.3099 23.409C43.193 22.9303 43.5882 22.7773 43.9834 22.6826C44.4343 22.5713 44.8935 22.4795 45.3444 22.3681C45.431 22.3418 45.5095 22.294 45.5726 22.229C45.8843 21.8978 46.7888 20.9738 47.2091 20.8708C47.4623 20.8068 47.6154 21.0489 47.6683 21.2521C47.7081 21.3893 47.6982 21.5362 47.6404 21.6668C47.582 21.7837 47.4595 21.8254 47.3621 21.8922C47.2647 21.959 46.4687 22.5296 46.4994 22.652C46.5355 22.8218 47.838 23.0027 48.0134 23.718Z" fill="#4F5332"/>
<path d="M23.7467 47.689C23.5636 47.8113 23.349 47.878 23.1288 47.8811C22.9051 47.8971 22.6802 47.8755 22.4636 47.817C21.9488 47.6835 21.3754 47.3578 21.1862 46.829C21.117 46.6517 21.1034 46.4576 21.1472 46.2724C21.3281 45.5794 22.4191 45.2287 23.0564 45.2343H23.2151C23.2491 45.2392 23.2838 45.2318 23.3128 45.2134C23.3419 45.195 23.3635 45.1669 23.3737 45.1341C23.499 44.6499 23.5992 44.1656 23.6938 43.673V43.6563C23.755 43.4225 24.025 43.4142 24.2142 43.4643C24.64 43.5728 24.6957 43.8038 24.5927 44.199C24.5705 44.2825 24.551 44.366 24.5287 44.4439C24.448 44.7612 24.384 45.084 24.3089 45.4013C24.3089 45.457 24.281 45.5098 24.2727 45.5655C24.2421 45.7353 24.3256 45.8438 24.2922 45.9607C24.2588 46.0776 24.1446 46.0887 24.0973 46.2669C24.0806 46.3392 24.0723 46.4199 24.0584 46.4923L23.9665 46.9237C23.9331 47.0795 23.9192 47.2354 23.8775 47.3912C23.8634 47.501 23.818 47.6044 23.7467 47.689ZM23.0537 45.9718C22.7559 46.0164 22.1937 46.1639 22.1046 46.5062C22.1046 46.5479 22.0851 46.5897 22.0796 46.6342C22.0795 46.6937 22.0949 46.7522 22.1241 46.804C22.1751 46.8872 22.2427 46.9591 22.3227 47.0151C22.4026 47.0711 22.4932 47.1101 22.5889 47.1296C22.6724 47.1491 22.9062 47.2103 22.9396 47.0851C22.973 46.9598 23.0064 46.8068 23.037 46.6509L23.1622 46.0943C23.1665 46.0819 23.1683 46.0687 23.1674 46.0556C23.1665 46.0425 23.1629 46.0297 23.1569 46.018C23.1509 46.0063 23.1427 45.9959 23.1326 45.9875C23.1225 45.9791 23.1108 45.9728 23.0982 45.9691C23.0833 45.9672 23.0682 45.9681 23.0537 45.9718Z" fill="#4F5332"/>
<path d="M18.2751 45.2782C18.4198 45.3506 18.5534 45.4285 18.6981 45.4981C18.7134 45.5081 18.7307 45.5146 18.7489 45.5172C18.767 45.5198 18.7854 45.5184 18.8029 45.5131C18.8204 45.5078 18.8366 45.4987 18.8502 45.4865C18.8638 45.4743 18.8746 45.4592 18.8818 45.4424C18.9458 45.3367 18.9959 45.2225 19.0543 45.114C19.1128 45.0055 19.1991 44.8607 19.2603 44.7327C19.2826 44.6882 19.2853 44.6381 19.2353 44.613C19.1852 44.588 18.84 44.6353 18.6257 44.5296C18.4114 44.4238 18.2445 44.2206 18.3474 44.0035C18.5005 43.6863 19.2853 43.8672 19.5664 43.9145C19.5974 43.9182 19.6288 43.9119 19.6559 43.8963C19.683 43.8808 19.7043 43.8569 19.7167 43.8282C19.8689 43.5054 20.0036 43.1747 20.1203 42.8374C20.1453 42.7734 20.201 42.7122 20.1203 42.6676C20.0396 42.6231 19.8559 42.5814 19.7334 42.5229C19.5442 42.4311 19.3104 42.214 19.4245 41.9802C19.5887 41.6407 20.1843 41.9162 20.4181 42.0303C20.6519 42.1444 21.125 42.3726 21.1779 42.6454C21.1747 42.803 21.1366 42.9579 21.0665 43.099C20.9189 43.5353 20.7441 43.9619 20.5433 44.3765C20.265 44.9554 19.9533 45.512 19.6666 46.0881C19.533 46.3664 19.4106 46.5751 19.11 46.4471C18.7566 46.2968 18.6703 46.2467 18.2083 46.0241C18.0468 45.9605 17.8993 45.866 17.7741 45.7458C17.7226 45.6986 17.6863 45.6371 17.6699 45.5692C17.6535 45.5012 17.6578 45.43 17.6823 45.3645C17.7852 45.153 18.0997 45.1947 18.2751 45.2782Z" fill="#4F5332"/>
<path d="M14.7908 42.1312C15.1582 41.441 15.5784 40.773 15.9041 40.0633C15.9611 39.8856 16.0376 39.7148 16.1323 39.554C16.2937 39.3425 16.5859 39.426 16.7696 39.554C17.4097 40.0466 16.4412 40.6478 16.7696 40.8927L17.265 41.2879C17.5155 41.4799 18.0137 40.7786 18.4951 41.1487C18.6621 41.2768 18.8347 41.5495 18.6788 41.7499C18.523 41.9503 18.1473 41.9864 17.9914 42.1896C17.9163 42.287 17.9079 42.3288 17.7715 42.3622C17.5668 42.4327 17.3778 42.5423 17.2149 42.685C16.7418 43.0162 15.3307 44.0432 14.7741 43.8651C14.697 43.8414 14.6245 43.8047 14.5598 43.7565C14.1006 43.3947 14.5793 42.5292 14.7908 42.1312ZM16.3828 42.0699C16.4818 42.0102 16.575 41.9413 16.6611 41.864C16.6699 41.8527 16.6764 41.8397 16.6799 41.8258C16.6835 41.8119 16.6841 41.7975 16.6818 41.7833C16.6794 41.7692 16.6741 41.7557 16.6662 41.7437C16.6584 41.7317 16.6481 41.7215 16.636 41.7137L16.4217 41.5467C16.4095 41.5374 16.3955 41.5305 16.3806 41.5266C16.3658 41.5226 16.3502 41.5217 16.335 41.5237C16.3197 41.5258 16.305 41.5309 16.2917 41.5386C16.2784 41.5464 16.2668 41.5567 16.2575 41.569C16.0849 41.8529 15.927 42.1455 15.7844 42.4457C15.9935 42.3365 16.1936 42.2109 16.3828 42.0699Z" fill="#4F5332"/>
<path d="M14.4825 37.9703C15.1727 38.8053 14.7135 39.9185 13.9648 40.5475C13.2161 41.1765 12.1363 41.3045 11.46 40.4752C11.2707 40.2442 10.9034 39.6124 11.1817 39.3619C11.2472 39.2896 11.3387 39.2461 11.4362 39.2409C11.5336 39.2357 11.6292 39.2692 11.7021 39.3341C11.8635 39.5289 11.8246 39.8016 11.9804 39.9965C12.3144 40.4028 13.0519 39.9631 13.3553 39.7181C13.6587 39.4732 14.0483 39.0029 13.9815 38.5548C13.9727 38.4871 13.9447 38.4233 13.9008 38.3711C13.7115 38.1429 13.3052 38.1179 13.1132 37.8841C12.9712 37.7115 13.1132 37.4805 13.3135 37.3274C13.6169 37.0825 14.3016 37.7366 14.4825 37.9703Z" fill="#4F5332"/>
<path d="M12.5922 35.585C12.6979 35.5909 12.8001 35.6249 12.8882 35.6837C12.9763 35.7424 13.0471 35.8236 13.0931 35.919C13.1293 35.9708 13.1536 36.0301 13.1642 36.0925C13.1748 36.1548 13.1715 36.2188 13.1545 36.2797C13.1374 36.3406 13.1071 36.397 13.0657 36.4448C13.0243 36.4927 12.9729 36.5307 12.915 36.5563C12.8343 36.5981 12.7452 36.6287 12.6562 36.6732L11.0225 37.5081C10.8082 37.6167 10.5967 37.7447 10.3824 37.8532C10.271 37.9089 10.1569 37.959 10.0484 38.0007C9.94518 38.0264 9.83608 38.0119 9.74312 37.9602C9.65015 37.9086 9.58023 37.8236 9.54744 37.7224C9.50564 37.6684 9.4772 37.6052 9.4644 37.5381C9.45161 37.471 9.45484 37.4018 9.47383 37.3362C9.49281 37.2706 9.52701 37.2104 9.57366 37.1604C9.6203 37.1105 9.67806 37.0723 9.74225 37.0489C9.83966 36.9988 9.93985 36.9626 10.0345 36.9153L10.9112 36.47C10.9283 36.4628 10.9437 36.4519 10.9562 36.4382C10.9687 36.4244 10.978 36.4081 10.9836 36.3903C10.9892 36.3726 10.9908 36.3539 10.9884 36.3354C10.986 36.317 10.9796 36.2993 10.9696 36.2836C10.8633 36.0663 10.7415 35.8571 10.605 35.6574C10.5857 35.6288 10.5563 35.6087 10.5228 35.601C10.4892 35.5932 10.454 35.5984 10.4241 35.6156C10.1028 35.783 9.79152 35.9688 9.49177 36.1722C9.38601 36.239 9.30252 36.3309 9.1912 36.3865C8.9602 36.5034 8.75146 36.2947 8.65405 36.1082C8.6068 36.03 8.58322 35.9397 8.58619 35.8483C8.58915 35.7569 8.61852 35.6684 8.67075 35.5934C8.86161 35.4109 9.07938 35.2588 9.31644 35.1425C9.553 34.995 9.79235 34.8642 10.0373 34.7361C10.5939 34.4384 11.1505 34.1517 11.7071 33.8706C12.0272 33.7064 12.2443 33.7287 12.4196 34.071C12.4597 34.127 12.486 34.1917 12.4961 34.2598C12.5063 34.3279 12.5001 34.3975 12.4781 34.4627C12.4561 34.528 12.4188 34.5871 12.3695 34.6351C12.3201 34.6831 12.26 34.7187 12.1942 34.7389C12.0856 34.7946 11.9604 34.8363 11.8435 34.8948L11.2869 35.1731C11.2717 35.182 11.2584 35.1938 11.2477 35.2079C11.2371 35.222 11.2294 35.238 11.225 35.2551C11.2206 35.2722 11.2196 35.2899 11.2221 35.3074C11.2246 35.3249 11.2305 35.3416 11.2396 35.3568C11.2702 35.4124 11.3119 35.4709 11.3453 35.5238C11.426 35.6518 11.5012 35.7854 11.568 35.919L11.6153 36.0136C11.632 36.0442 11.6821 36.1027 11.7266 36.0804L12.0996 35.8911C12.1997 35.841 12.2443 35.7353 12.3918 35.6601C12.4495 35.6155 12.5193 35.5893 12.5922 35.585Z" fill="#4F5332"/>
<path d="M7.02052 31.2854C6.97321 31.0933 7.00661 30.7983 7.23482 30.7287C7.46304 30.6592 7.64951 30.9124 7.81093 31.007C8.22005 31.2186 8.66256 31.3828 9.08281 31.5637C9.17465 31.6026 9.29711 31.714 9.40565 31.6861C9.8426 31.5804 10.2796 31.4969 10.7193 31.3883C10.8056 31.3701 10.8903 31.345 10.9725 31.3132C11.0821 31.2742 11.1948 31.2444 11.3093 31.2241C11.5347 31.1685 11.6795 31.4134 11.724 31.5915C11.8409 32.073 11.4457 32.2233 11.0505 32.3179C10.5996 32.4292 10.1404 32.5238 9.68953 32.6352C9.6029 32.6615 9.52437 32.7094 9.46132 32.7743C9.14961 33.1055 8.24509 34.0295 7.82484 34.1325C7.57158 34.1937 7.41851 33.9544 7.36841 33.7484C7.32647 33.6117 7.33536 33.4644 7.39346 33.3337C7.45191 33.2196 7.57715 33.1751 7.67177 33.1111C7.7664 33.0471 8.56515 32.471 8.53454 32.3513C8.49836 32.1676 7.19586 32.0062 7.02052 31.2854Z" fill="#4F5332"/>
</svg>
