<svg width="55" height="55" viewBox="0 0 55 55" fill="none" xmlns="http://www.w3.org/2000/svg">
<path d="M27.5 55C42.6878 55 55 42.6878 55 27.5C55 12.3122 42.6878 0 27.5 0C12.3122 0 0 12.3122 0 27.5C0 42.6878 12.3122 55 27.5 55Z" fill="#EB3E33"/>
<path d="M27.4998 54.5329C42.4298 54.5329 54.5329 42.4298 54.5329 27.4998C54.5329 12.5699 42.4298 0.466797 27.4998 0.466797C12.5699 0.466797 0.466797 12.5699 0.466797 27.4998C0.466797 42.4298 12.5699 54.5329 27.4998 54.5329Z" fill="#EC84B6"/>
<path d="M27.4996 40.5869C26.0987 40.5869 25.7285 32.0277 25.7285 27.5032C25.7285 22.9787 26.0987 14.4053 27.4996 14.4053C28.9005 14.4053 29.2735 22.9645 29.2735 27.5032C29.2735 32.0419 28.9033 40.5869 27.4996 40.5869ZM27.4996 14.8267C27.0127 14.9206 26.1385 19.2373 26.1385 27.5032C26.1385 35.7692 27.0127 40.083 27.5024 40.1769C27.9893 40.083 28.8635 35.7663 28.8635 27.5032C28.8635 19.2401 27.9893 14.9206 27.4996 14.8267Z" fill="#EB3E33"/>
<path d="M36.4466 36.868C34.8208 36.868 29.2171 31.7086 26.2644 28.753C23.0639 25.5526 17.2581 19.2399 18.249 18.249C19.2399 17.2581 25.5525 23.0639 28.7587 26.2502C31.9648 29.4364 37.7507 35.7633 36.7598 36.7541C36.6747 36.8321 36.562 36.8731 36.4466 36.868ZM18.6249 18.5081C18.5939 18.5071 18.5632 18.515 18.5366 18.5309C18.2519 18.9409 20.6949 22.6112 26.5377 28.4569C32.3806 34.3026 36.0594 36.7314 36.4666 36.4552C36.7513 36.0451 34.3082 32.3749 28.4654 26.5292C22.9187 20.9939 19.331 18.5081 18.6249 18.5081Z" fill="#EB3E33"/>
<path d="M27.5007 29.2736C22.9762 29.2736 14.417 28.9034 14.417 27.5025C14.417 26.1016 22.9762 25.7314 27.5007 25.7314C32.0252 25.7314 40.5987 26.0988 40.5987 27.5025C40.5987 28.9063 32.028 29.2736 27.5007 29.2736ZM27.5007 26.1415C19.2433 26.1415 14.921 27.0156 14.827 27.5054C14.921 27.9923 19.2376 28.8664 27.5007 28.8664C35.7638 28.8664 40.0833 27.9923 40.1772 27.5025C40.0833 27.0128 35.7667 26.1386 27.5007 26.1386V26.1415Z" fill="#EB3E33"/>
<path d="M18.5708 36.8677C18.5122 36.8714 18.4536 36.8632 18.3983 36.8436C18.343 36.824 18.2922 36.7935 18.249 36.7538C17.2581 35.7629 23.0639 29.4503 26.2502 26.2498C29.4364 23.0494 35.7633 17.2607 36.7541 18.2487C37.745 19.2367 31.9535 25.5522 28.7587 28.7584C25.8003 31.7083 20.1966 36.8677 18.5708 36.8677ZM36.3754 18.5078C35.675 18.5078 32.0844 20.9822 26.5377 26.5289C20.6949 32.3745 18.2604 36.0448 18.5395 36.4577C18.9495 36.7424 22.6198 34.2994 28.4654 28.4566C34.3111 22.6137 36.7314 18.9491 36.4637 18.5363C36.4378 18.5181 36.4071 18.5082 36.3754 18.5078Z" fill="#EB3E33"/>
<path d="M6.85604 28.272L6.60547 28.6251L5.87369 28.0556L5.64306 28.944L5.22164 28.813L5.52916 27.9588L4.6123 28.01V27.5744L5.52916 27.5972L5.19886 26.743L5.61458 26.6006L5.87085 27.4833L6.58839 26.9138L6.83326 27.2498L6.07301 27.7709L6.85604 28.272Z" fill="#EB4038"/>
<path d="M9.88928 23.064C9.84452 23.3048 9.74393 23.5317 9.59558 23.7265C9.44722 23.9214 9.25524 24.0787 9.03506 24.1859C8.48374 24.403 7.87458 24.4241 7.30955 24.2457C6.71822 24.139 6.17924 23.8385 5.77766 23.3915C5.62428 23.1975 5.51967 22.9696 5.4726 22.7268C5.42553 22.484 5.43738 22.2335 5.50716 21.9963C5.56865 21.6875 5.72432 21.4053 5.95275 21.1886C6.18119 20.9719 6.47116 20.8313 6.78278 20.7861L6.9337 21.2588C6.70683 21.2849 6.4923 21.3758 6.31581 21.5208C6.13295 21.6777 6.0077 21.8911 5.95989 22.1272C5.91565 22.2947 5.91077 22.4701 5.94565 22.6398C5.98012 22.7952 6.05031 22.9405 6.15067 23.064C6.26056 23.2031 6.39583 23.32 6.5493 23.4086C6.72641 23.5124 6.9185 23.5883 7.11878 23.6335L7.75374 23.7873C8.11622 23.8975 8.50574 23.8784 8.85568 23.7332C9.00298 23.6577 9.13095 23.5494 9.2297 23.4166C9.32844 23.2838 9.39532 23.13 9.42515 22.9672C9.49713 22.7259 9.48711 22.4676 9.39668 22.2326C9.29712 22.0154 9.1382 21.8309 8.93825 21.7001L9.29133 21.3556C9.54815 21.5463 9.74562 21.806 9.8608 22.1045C9.96579 22.4143 9.9757 22.7485 9.88928 23.064Z" fill="#EB4038"/>
<path d="M9.80393 17.6965L8.84151 19.6897L10.6154 20.5439L10.3848 21.0137L6.4668 19.1088L6.69744 18.6362L8.42579 19.4904L9.38821 17.4972L7.65985 16.6544L7.88764 16.1846L11.8056 18.0866L11.5778 18.5593L9.80393 17.6965Z" fill="#EB4038"/>
<path d="M12.3351 17.3091L8.89258 14.6411L10.5355 12.5283L10.9 12.8131L9.5788 14.5215L10.7348 15.4042L11.9592 13.8153L12.3237 14.1001L11.105 15.6861L12.298 16.6115L13.605 14.9258L13.9695 15.2106L12.3351 17.3091Z" fill="#EB4038"/>
<path d="M14.7433 9.63848L14.7177 9.65841L14.8971 10.4585L15.2928 12.5855L13.2854 11.7797L12.528 11.4466L12.5053 11.4665L14.8316 14.3139L14.4358 14.6385L11.6738 11.2615L12.2234 10.8201L14.675 11.8452L14.6977 11.8253L14.1824 9.21422L14.7034 8.78711L17.4654 12.1556L17.0839 12.4773L14.7433 9.63848Z" fill="#EB4038"/>
<path d="M18.1498 11.8221L17.9391 11.4377L18.4801 11.153L16.84 8.07783L16.3019 8.36256L16.1025 7.97247L17.6544 7.15527L17.8594 7.54252L17.3212 7.82726L18.9585 10.8996L19.4995 10.6148L19.7045 10.9992L18.1498 11.8221Z" fill="#EB4038"/>
<path d="M21.8679 10.2508C21.6403 10.3406 21.3949 10.376 21.1512 10.3543C20.9075 10.3325 20.6722 10.2542 20.4641 10.1255C19.988 9.77631 19.647 9.2734 19.4989 8.7018C19.2708 8.14665 19.2357 7.53099 19.3992 6.95351C19.4814 6.72009 19.6185 6.50982 19.7988 6.34037C19.9792 6.17092 20.1976 6.04723 20.4357 5.97971C20.7291 5.86502 21.0508 5.84396 21.3567 5.91941C21.6626 5.99487 21.9377 6.16313 22.1441 6.40112L21.8223 6.77982C21.6789 6.60259 21.4885 6.46936 21.2728 6.39542C21.0415 6.32357 20.7928 6.33159 20.5666 6.4182C20.4014 6.46913 20.2503 6.55784 20.1253 6.67731C20.0091 6.79155 19.9204 6.93081 19.8662 7.08449C19.8109 7.2524 19.7868 7.42899 19.795 7.60556C19.812 7.8085 19.858 8.00796 19.9317 8.19782L20.1338 8.82709C20.2317 9.19299 20.4556 9.51263 20.766 9.72971C20.9081 9.8168 21.0685 9.8696 21.2346 9.88394C21.4006 9.89827 21.5678 9.87374 21.7227 9.81228C21.9635 9.74091 22.1731 9.59043 22.3178 9.38517C22.45 9.18569 22.5221 8.95246 22.5256 8.71319L23.004 8.82993C22.9751 9.13888 22.8607 9.43367 22.6737 9.6813C22.4698 9.94921 22.1885 10.148 21.8679 10.2508Z" fill="#EB4038"/>
<path d="M26.5946 9.2457L26.0052 8.02418L24.2597 8.23773L23.975 9.56746L23.4482 9.6301L24.4363 5.12554L25.0997 5.04297L27.1413 9.18306L26.5946 9.2457ZM24.8321 5.56404H24.8007L24.3281 7.76222L25.8201 7.57714L24.8321 5.56404Z" fill="#EB4038"/>
<path d="M27.6738 9.24248L27.9586 4.89453L28.4825 4.9287L28.2262 8.82676L30.077 8.94066L30.0485 9.40193L27.6738 9.24248Z" fill="#EB4038"/>
<path d="M34.5646 6.52888L33.363 10.2305L32.8647 10.0682L34.0663 6.36658L32.7451 5.93947L32.8875 5.50098L36.0196 6.51749L35.8772 6.95884L34.5646 6.52888Z" fill="#EB4038"/>
<path d="M38.4911 10.5152L36.5805 9.419L35.5982 11.1274L35.1426 10.8655L37.3009 7.08984L37.7565 7.3518L36.7998 9.01752L38.7246 10.1138L39.6813 8.4452L40.1369 8.70716L37.97 12.4856L37.5173 12.2265L38.4911 10.5152Z" fill="#EB4038"/>
<path d="M38.5508 12.9756L38.8355 12.6396L39.2939 13.0325L41.532 10.3645L41.0679 9.96587L41.3526 9.62988L42.6909 10.7546L42.4061 11.0877L41.9392 10.6948L39.7011 13.3827L40.1709 13.7757L39.8862 14.1088L38.5508 12.9756Z" fill="#EB4038"/>
<path d="M43.1982 13.702L43.6053 12.6798V12.6656L40.8206 14.989L40.4932 14.5932L43.8388 11.8057L44.2289 12.2726L43.2039 15.1969L42.7825 16.2305V16.2476L45.5672 13.9241L45.8946 14.3171L42.5604 17.0847L42.1731 16.6177L43.1982 13.702Z" fill="#EB4038"/>
<path d="M44.9004 20.1029V20.0858C44.6823 20.1274 44.4566 20.0825 44.2711 19.9605C44.0312 19.805 43.8414 19.5835 43.7244 19.3227C43.6077 19.0994 43.5398 18.8539 43.5251 18.6023C43.5108 18.361 43.5548 18.1198 43.6532 17.899C43.7629 17.6544 43.9196 17.4338 44.1145 17.2498C44.3526 17.024 44.6245 16.8367 44.9203 16.6946C45.2097 16.5417 45.5208 16.4341 45.8428 16.3757C46.1079 16.3267 46.3802 16.3325 46.643 16.3928C46.8813 16.4516 47.1032 16.5635 47.2922 16.7202C47.4925 16.8887 47.6555 17.0972 47.7705 17.3324C47.9372 17.6355 48.0096 17.9816 47.9784 18.3261C47.9447 18.6368 47.8266 18.9322 47.6367 19.1803L47.2096 18.9127C47.3715 18.7276 47.4725 18.4971 47.499 18.2526C47.5255 18.0082 47.4761 17.7614 47.3577 17.5459C47.2784 17.3838 47.167 17.2395 47.0302 17.1217C46.8997 17.0143 46.7485 16.9348 46.586 16.8882C46.4154 16.8423 46.2373 16.8306 46.0621 16.854C45.8635 16.883 45.6711 16.9446 45.4926 17.0363L44.8605 17.3552C44.6793 17.443 44.5145 17.5615 44.3736 17.7054C44.2494 17.8314 44.1524 17.9816 44.0889 18.1467C44.0277 18.3083 44.0034 18.4814 44.0177 18.6536C44.036 18.8451 44.0901 19.0315 44.1771 19.2031C44.2424 19.3321 44.3258 19.451 44.4249 19.5562C44.5157 19.6546 44.6238 19.7357 44.7438 19.7954C44.8607 19.849 44.9881 19.8762 45.1168 19.8751C45.2631 19.8694 45.4063 19.8304 45.5353 19.7612L45.9226 19.5676L45.4898 18.7134L45.8998 18.5027L46.5632 19.8182L44.5701 20.829L44.3508 20.3933L44.9004 20.1029Z" fill="#EB4038"/>
<path d="M45.0397 22.8074C44.9505 22.5058 44.9378 22.1868 45.0027 21.8791C45.0717 21.6024 45.2 21.344 45.3786 21.1217L45.7914 21.4065C45.6449 21.5865 45.5373 21.7949 45.4754 22.0186C45.4215 22.2431 45.4274 22.4777 45.4925 22.6992C45.542 22.9529 45.6841 23.1793 45.8911 23.3341C45.9859 23.3938 46.0926 23.4321 46.2038 23.4463C46.3149 23.4606 46.4278 23.4505 46.5346 23.4167C46.6218 23.399 46.7042 23.3626 46.7759 23.31C46.8477 23.2574 46.9072 23.1899 46.9503 23.112C47.0383 22.9016 47.0725 22.6727 47.05 22.4458V22.0813C47.0228 21.7434 47.0796 21.404 47.2151 21.0932C47.2835 20.9638 47.3798 20.8513 47.497 20.7636C47.6142 20.676 47.7494 20.6154 47.8928 20.5864C48.0621 20.5378 48.2403 20.5281 48.4139 20.5579C48.573 20.5862 48.7232 20.6515 48.8524 20.7487C48.9877 20.8533 49.1018 20.9828 49.1884 21.1303C49.2898 21.2994 49.3657 21.4827 49.4133 21.6741C49.4958 21.9513 49.5104 22.2443 49.456 22.5283C49.3968 22.7915 49.2736 23.036 49.0973 23.2402L48.7186 22.9355C48.8441 22.782 48.9354 22.6033 48.9862 22.4116C49.0338 22.1956 49.025 21.9711 48.9606 21.7595C48.9145 21.5309 48.7944 21.3237 48.6189 21.1701C48.539 21.1088 48.4454 21.0679 48.3462 21.0511C48.2469 21.0342 48.145 21.0418 48.0494 21.0733C47.962 21.0907 47.8799 21.1283 47.8096 21.1832C47.7394 21.2381 47.683 21.3087 47.6451 21.3894C47.5692 21.6008 47.5401 21.8262 47.5597 22.05V22.4144C47.595 22.7618 47.5319 23.1121 47.3774 23.4252C47.3035 23.5493 47.205 23.657 47.0879 23.7417C46.9709 23.8264 46.8379 23.8863 46.6969 23.9178C46.5172 23.9672 46.3295 23.9807 46.1445 23.9577C45.9751 23.934 45.8134 23.8716 45.6719 23.7755C45.5219 23.6728 45.3941 23.5412 45.296 23.3882C45.1804 23.2094 45.0938 23.0133 45.0397 22.8074Z" fill="#EB4038"/>
<path d="M48.1406 26.6089L48.3912 26.2558L49.1258 26.8082L49.3508 25.917L49.7722 26.0451L49.4704 26.8993L50.3872 26.8452V27.2809L49.4675 27.261L49.8035 28.1152L49.3878 28.2632L49.1287 27.3805L48.414 27.95L48.1606 27.6197L48.918 27.093L48.1406 26.6089Z" fill="#EB4038"/>
<path d="M45.1363 31.8365C45.1799 31.5931 45.2798 31.3634 45.4282 31.1656C45.5765 30.9678 45.7691 30.8075 45.9905 30.6976C46.5408 30.4772 47.1501 30.4531 47.7161 30.6292C48.3071 30.7305 48.8478 31.0249 49.2536 31.4663C49.4088 31.6589 49.5156 31.8857 49.5651 32.1279C49.6147 32.3702 49.6055 32.6208 49.5384 32.8587C49.4837 33.1722 49.332 33.4607 49.1046 33.6834C48.8773 33.9061 48.5858 34.0519 48.2713 34.1002L48.1204 33.6275C48.3473 33.5998 48.5617 33.508 48.7383 33.3627C48.9191 33.2038 49.0422 32.9896 49.0885 32.7534C49.1281 32.5848 49.1281 32.4094 49.0885 32.2408C49.0535 32.0816 48.9824 31.9326 48.8806 31.8052C48.7676 31.6701 48.6305 31.5571 48.4763 31.472C48.2979 31.3721 48.1061 31.2983 47.9068 31.2528L47.2719 31.1019C46.9086 30.9944 46.5194 31.0155 46.1699 31.1617C46.0219 31.2369 45.8934 31.3455 45.7945 31.4789C45.6957 31.6124 45.6293 31.7669 45.6004 31.9305C45.5332 32.1728 45.5503 32.4308 45.6489 32.6622C45.7485 32.8802 45.9086 33.065 46.1101 33.1947L45.7599 33.5392C45.5027 33.3513 45.305 33.0933 45.1904 32.7961C45.0756 32.4891 45.0567 32.1545 45.1363 31.8365Z" fill="#EB4038"/>
<path d="M45.2564 37.2038L46.2075 35.2107L44.4278 34.3565L44.6528 33.8838L48.5822 35.7659L48.3572 36.2386L46.6232 35.41L45.6721 37.4032L47.4062 38.2346L47.1784 38.7073L43.249 36.8251L43.4768 36.3525L45.2564 37.2038Z" fill="#EB4038"/>
<path d="M42.7247 37.6084L46.1815 40.2565L44.5641 42.3664L44.1968 42.0816L45.4952 40.3903L44.3364 39.5019L43.1148 41.0964L42.7475 40.8117L43.969 39.2172L42.7703 38.2975L41.4747 39.9917L41.1074 39.7069L42.7247 37.6084Z" fill="#EB4038"/>
<path d="M40.3613 45.2903L40.3841 45.2704L40.2019 44.4731L39.7919 42.3489L41.805 43.1434L42.5567 43.4708L42.5794 43.4509L40.236 40.6263L40.6318 40.2988L43.4109 43.6502L42.8727 44.0972L40.4154 43.0893L40.3898 43.1092L40.9251 45.7145L40.404 46.1445L37.625 42.7931L38.0179 42.4657L40.3613 45.2903Z" fill="#EB4038"/>
<path d="M36.9422 43.126L37.1501 43.5104L36.6119 43.7951L38.2691 46.8589L38.8072 46.5742L39.0151 46.9585L37.4775 47.7871L37.2697 47.4027L37.8078 47.118L36.162 44.0514L35.6239 44.3361L35.416 43.9517L36.9422 43.126Z" fill="#EB4038"/>
<path d="M33.2291 44.7322C33.4561 44.6412 33.7011 44.6043 33.9448 44.6245C34.1885 44.6448 34.4241 44.7217 34.6329 44.849C35.1116 45.1979 35.4563 45.7004 35.6095 46.2727C35.8398 46.827 35.8779 47.4425 35.7177 48.021C35.636 48.254 35.4999 48.4642 35.3206 48.6341C35.1413 48.804 34.9241 48.9286 34.687 48.9976C34.3833 49.1127 34.0521 49.1345 33.736 49.0603C33.4375 48.9795 33.1686 48.8144 32.9615 48.5847L33.2804 48.2032C33.4242 48.3806 33.6159 48.5131 33.8328 48.5847C34.0634 48.6555 34.3112 48.6464 34.5361 48.5591C34.7012 48.5065 34.8521 48.4169 34.9774 48.2972C35.0931 48.1819 35.1808 48.0416 35.2337 47.8871C35.2891 47.7203 35.3123 47.5444 35.302 47.3689C35.2932 47.1618 35.2528 46.9573 35.1824 46.7624L34.9717 46.1474C34.8707 45.7822 34.645 45.4639 34.3339 45.2476C34.1913 45.1614 34.0307 45.1096 33.8646 45.0963C33.6986 45.0829 33.5317 45.1084 33.3772 45.1707C33.137 45.2432 32.9283 45.3947 32.7849 45.6007C32.6532 45.8002 32.582 46.0336 32.5799 46.2727L32.1016 46.1616C32.1243 45.8444 32.2369 45.5402 32.4262 45.2846C32.6313 45.023 32.9114 44.8303 33.2291 44.7322Z" fill="#EB4038"/>
<path d="M28.511 45.7521L29.1061 46.9707L30.8515 46.7486L31.1363 45.4161L31.663 45.3506L30.7063 49.8637L30.0429 49.9491L27.9785 45.8204L28.511 45.7521ZM30.2963 49.4223H30.3248L30.786 47.2242L29.294 47.4149L30.2963 49.4223Z" fill="#EB4038"/>
<path d="M27.4257 45.7599L27.178 50.1135L26.6541 50.0851L26.8762 46.1984L25.0254 46.0902L25.0539 45.6289L27.4257 45.7599Z" fill="#EB4038"/>
<path d="M20.5585 48.5141L21.7373 44.8125L22.2385 44.972L21.0568 48.6735L22.378 49.095L22.2356 49.5363L19.1035 48.5369L19.243 48.0955L20.5585 48.5141Z" fill="#EB4038"/>
<path d="M16.6091 44.5496L18.5254 45.6344L19.4963 43.926L19.9519 44.1851L17.8078 47.975L17.3523 47.7187L18.2976 46.0444L16.3813 44.9596L15.436 46.6339L14.9775 46.3747L17.1245 42.582L17.58 42.8411L16.6091 44.5496Z" fill="#EB4038"/>
<path d="M16.529 42.0839L16.2443 42.4199L15.7745 42.0298L13.5563 44.7035L14.0262 45.0965L13.7414 45.4325L12.3975 44.3163L12.6822 43.9803L13.152 44.3704L15.3758 41.6967L14.906 41.3038L15.1907 40.9678L16.529 42.0839Z" fill="#EB4038"/>
<path d="M11.8789 41.3842L11.4774 42.4064L14.2508 40.0716L14.5811 40.4617L11.261 43.2806L10.8709 42.8165L11.8789 39.8865L12.2804 38.8643V38.8501L9.50705 41.1849L9.17676 40.7948L12.5082 37.9873L12.8983 38.4514L11.8789 41.3842Z" fill="#EB4038"/>
<path d="M10.1427 34.9911V35.0082C10.3604 34.9658 10.5861 35.0097 10.772 35.1307C11.0122 35.2861 11.2037 35.5062 11.3244 35.7656C11.4407 35.9893 11.5095 36.2345 11.5266 36.486C11.54 36.7267 11.4982 36.9673 11.4041 37.1893C11.2946 37.4348 11.1379 37.6564 10.9429 37.8414C10.7065 38.0719 10.4356 38.264 10.1399 38.4108C9.85484 38.5609 9.54854 38.6665 9.23158 38.7241C8.96762 38.7781 8.69543 38.7781 8.43147 38.7241C8.1927 38.6656 7.96995 38.5548 7.77942 38.3995C7.57839 38.2316 7.41533 38.0229 7.30106 37.7873C7.13567 37.5029 7.05897 37.1757 7.08078 36.8474C7.1026 36.5192 7.22193 36.205 7.4235 35.945L7.85345 36.2098C7.69696 36.3925 7.59791 36.6174 7.56871 36.8562C7.5429 37.1064 7.59353 37.3586 7.71393 37.5794C7.7943 37.74 7.90671 37.8825 8.04423 37.998C8.17336 38.1068 8.32508 38.1856 8.48842 38.2286C8.65904 38.275 8.8374 38.2857 9.01233 38.2599C9.21166 38.2326 9.4045 38.1699 9.58181 38.0749L10.2111 37.7531C10.392 37.6648 10.5558 37.5453 10.6951 37.4C10.82 37.2745 10.917 37.1241 10.9799 36.9587C11.04 36.7969 11.0634 36.6238 11.0482 36.4518C11.0295 36.2597 10.9734 36.073 10.8831 35.9023C10.8171 35.7738 10.7337 35.655 10.6353 35.5492C10.545 35.4516 10.4368 35.3723 10.3164 35.3157C10.1988 35.261 10.0703 35.2337 9.94058 35.236C9.79513 35.2418 9.65293 35.2807 9.52486 35.3499L9.13762 35.5464L9.57612 36.4006L9.16609 36.6113L8.49411 35.2987L10.4873 34.2793L10.7094 34.7121L10.1427 34.9911Z" fill="#EB4038"/>
<path d="M9.98819 32.2923C10.0805 32.5932 10.0952 32.9125 10.0309 33.2206C9.96418 33.4984 9.8368 33.758 9.65789 33.9808L9.24218 33.6961C9.38869 33.5139 9.49627 33.3036 9.55823 33.0782C9.61105 32.8545 9.60417 32.6208 9.5383 32.4005C9.48773 32.1465 9.34338 31.9208 9.13398 31.7684C9.03892 31.7092 8.93213 31.6714 8.821 31.6577C8.70988 31.6439 8.59709 31.6545 8.49047 31.6887C8.4037 31.7066 8.32185 31.7431 8.25057 31.7957C8.17929 31.8483 8.12027 31.9157 8.0776 31.9934C7.98961 32.2038 7.95348 32.4323 7.97224 32.6596L7.98933 33.0241C8.01844 33.3628 7.96266 33.7033 7.82703 34.015C7.75957 34.1443 7.66433 34.257 7.54815 34.3451C7.43197 34.4333 7.29772 34.4946 7.15505 34.5247C6.98566 34.5726 6.80789 34.5833 6.63398 34.556C6.47472 34.5299 6.32422 34.4654 6.19548 34.3681C6.05827 34.2639 5.94229 34.1344 5.85379 33.9865C5.75262 33.8179 5.67592 33.6357 5.626 33.4455C5.54325 33.1684 5.52764 32.8756 5.58044 32.5913C5.63794 32.3281 5.76028 32.0834 5.93637 31.8795L6.32076 32.1756C6.19598 32.3303 6.1057 32.5099 6.05596 32.7024C6.00939 32.9186 6.0192 33.1431 6.08443 33.3544C6.13342 33.5818 6.2542 33.7874 6.42896 33.941C6.50896 34.002 6.60271 34.0425 6.702 34.0589C6.80128 34.0753 6.90307 34.0671 6.99844 34.0349C7.08672 34.0167 7.1694 33.9777 7.23969 33.9213C7.30998 33.8649 7.36587 33.7926 7.40277 33.7103C7.47613 33.4983 7.50426 33.2733 7.48534 33.0497V32.6853C7.44695 32.3384 7.50819 31.9878 7.66188 31.6745C7.73656 31.5527 7.83509 31.4473 7.95155 31.3646C8.06801 31.2819 8.19999 31.2236 8.33956 31.1932C8.51869 31.1407 8.70663 31.1252 8.89195 31.1477C9.06095 31.1713 9.22249 31.2326 9.36461 31.3271C9.51479 31.4303 9.64342 31.5619 9.74332 31.7143C9.85663 31.892 9.9394 32.0873 9.98819 32.2923Z" fill="#EB4038"/>
</svg>
