<svg width="40" height="55" viewBox="0 0 40 55" fill="none" xmlns="http://www.w3.org/2000/svg">
<path d="M19.7048 54.9998L38.6859 4.91602H0.723633L19.7048 54.9998Z" fill="#FFC02E"/>
<path d="M2.36727 8.10887C1.21235 8.10887 0.200486 6.97837 0.0260265 5.38381C-0.165879 3.63922 0.723863 2.01675 2.02184 1.75855C7.7412 0.612978 13.5581 0.0240457 19.391 4.29207e-06H19.698C25.6378 -0.00182727 31.5632 0.582535 37.3882 1.7446C38.6827 2.0028 39.5724 3.62527 39.384 5.36986C39.1956 7.11445 37.9883 8.31822 36.6939 8.06002C25.4799 5.8076 13.9301 5.8076 2.71619 8.06002C2.60154 8.08652 2.48478 8.10286 2.36727 8.10887Z" fill="#EE5A1E"/>
<path d="M13.2076 19.6301C15.285 19.6301 16.969 17.9461 16.969 15.8688C16.969 13.7914 15.285 12.1074 13.2076 12.1074C11.1303 12.1074 9.44629 13.7914 9.44629 15.8688C9.44629 17.9461 11.1303 19.6301 13.2076 19.6301Z" fill="#EE5A1E"/>
<path d="M26.5475 25.3694C28.6248 25.3694 30.3088 23.6853 30.3088 21.608C30.3088 19.5307 28.6248 17.8467 26.5475 17.8467C24.4701 17.8467 22.7861 19.5307 22.7861 21.608C22.7861 23.6853 24.4701 25.3694 26.5475 25.3694Z" fill="#EE5A1E"/>
<path d="M19.0211 36.5979C21.0984 36.5979 22.7824 34.9139 22.7824 32.8365C22.7824 30.7592 21.0984 29.0752 19.0211 29.0752C16.9438 29.0752 15.2598 30.7592 15.2598 32.8365C15.2598 34.9139 16.9438 36.5979 19.0211 36.5979Z" fill="#EE5A1E"/>
</svg>
