<svg width="55" height="43" viewBox="0 0 55 43" fill="none" xmlns="http://www.w3.org/2000/svg">
<path d="M31.0032 42.1524C30.0769 42.1625 29.1523 42.0741 28.2448 41.8886L10.6197 37.9324C8.58885 37.4708 7.00195 35.4619 7.00195 33.3607V8.78804C7.02819 7.7427 7.39709 6.73491 8.05191 5.91966C8.70674 5.1044 9.61123 4.52682 10.6263 4.27573L28.2536 0.400807C30.0693 0.0604082 31.9326 0.0604082 33.7484 0.400807L51.3756 4.27573C52.3903 4.52749 53.2944 5.10526 53.9491 5.92037C54.6038 6.73548 54.973 7.7429 55 8.78804V33.3497C55 35.4509 53.4109 37.4598 51.3866 37.9214L33.7549 41.8776C32.85 42.0667 31.9276 42.1588 31.0032 42.1524ZM31.0032 3.22293C30.3043 3.21408 29.6063 3.2752 28.9195 3.40535L11.2879 7.28247C10.958 7.38216 10.666 7.57931 10.4503 7.84802C10.2345 8.11673 10.1051 8.44442 10.079 8.78804V33.3497C10.079 34.0091 10.6725 34.7784 11.2989 34.9212L28.9217 38.8775C30.2956 39.1302 31.7041 39.1302 33.078 38.8775L50.7074 34.9212C51.3317 34.7806 51.9251 34.0157 51.9251 33.3519V8.78804C51.8987 8.44395 51.7689 8.11586 51.5528 7.8468C51.3367 7.57774 51.0443 7.38027 50.714 7.28027L33.089 3.40535C32.4008 3.27539 31.7013 3.21428 31.001 3.22293H31.0032Z" fill="#4070D9"/>
<path d="M51.0455 5.77862L33.4182 1.9037C31.8199 1.60892 30.1811 1.60892 28.5828 1.9037L10.9577 5.77862C10.2846 5.95318 9.68575 6.34028 9.25018 6.88237C8.8146 7.42446 8.56555 8.09262 8.54004 8.78756V33.3492C8.54004 34.7383 9.639 36.1186 10.9577 36.4263L28.585 40.3935C30.1827 40.6949 31.8227 40.6949 33.4204 40.3935L51.0455 36.4109C52.3642 36.1098 53.4632 34.7295 53.4632 33.3339V8.78756C53.4377 8.09262 53.1886 7.42446 52.753 6.88237C52.3175 6.34028 51.7186 5.95318 51.0455 5.77862Z" fill="#F9F2E8"/>
<path d="M26.7881 25.5605C26.7573 25.0199 26.5683 24.6462 26.2079 24.4176C25.4166 23.9165 23.8143 24.077 21.9241 24.844C21.4937 25.0138 21.0533 25.1569 20.6054 25.2726C20.6741 25.25 20.7465 25.2413 20.8186 25.2469C20.8907 25.2525 20.9609 25.2723 21.0253 25.3052C21.0897 25.3381 21.1469 25.3835 21.1937 25.4386C21.2404 25.4937 21.2758 25.5576 21.2977 25.6265C21.6714 26.7694 21.7131 27.5672 21.6296 28.1167C21.9065 28.0969 22.1725 28.0816 22.4165 28.0772C24.2078 28.042 25.6738 27.5936 26.3375 26.8749C26.501 26.6999 26.6257 26.4924 26.7033 26.2659C26.781 26.0394 26.8099 25.799 26.7881 25.5605ZM26.0122 26.576C25.4386 27.198 24.0561 27.6046 22.4077 27.6376C22.3132 27.6376 22.2121 27.6376 22.1022 27.6376C22.09 26.9027 21.9594 26.1746 21.7153 25.4814L21.6824 25.3935C21.8274 25.343 21.9637 25.2924 22.089 25.2397C22.997 24.8371 23.9717 24.6061 24.9638 24.5583C25.3138 24.5391 25.6624 24.6151 25.9727 24.7781C26.1331 24.8792 26.32 25.0616 26.3485 25.5737C26.3685 25.7552 26.3487 25.9388 26.2906 26.1119C26.2326 26.2849 26.1376 26.4433 26.0122 26.576ZM12.0885 29.1585C12.2946 29.3581 12.4788 29.5791 12.638 29.8179C12.8189 30.0878 12.9741 30.3741 13.1017 30.6729V30.6861C13.1545 30.7564 13.3786 31.0355 14.0248 31.2575C14.1487 31.2991 14.2537 31.3835 14.321 31.4954C14.3883 31.6074 14.4134 31.7397 14.392 31.8686C14.3706 31.9975 14.3039 32.1145 14.204 32.1987C14.1041 32.2829 13.9774 32.3287 13.8468 32.3279C13.7862 32.3273 13.7261 32.3169 13.6688 32.2971C13.5743 32.2642 13.4841 32.229 13.3984 32.1938C13.3915 32.3169 13.3731 32.4391 13.3435 32.5587C13.2706 32.8427 13.1195 33.1006 12.9074 33.3031C12.6952 33.5055 12.4306 33.6443 12.1434 33.7038C11.8305 33.7806 11.5095 33.8189 11.1873 33.8181C10.9435 33.8172 10.7001 33.7959 10.4598 33.7544C10.3761 34.1962 10.4541 34.6533 10.6796 35.0423C11.0796 35.7017 11.9566 36.0578 13.216 36.0732H13.2951C16.2733 36.0732 17.4096 33.9807 17.5217 33.7588C17.6074 33.4928 18.2492 31.2312 15.8469 29.974C15.6271 29.9322 14.8271 29.8135 14.3875 30.3718C14.3351 30.4377 14.2681 30.4907 14.1919 30.5265C14.1156 30.5624 14.0321 30.5801 13.9479 30.5784C13.8329 30.5797 13.7205 30.5442 13.627 30.4773C13.5128 30.3869 13.4392 30.2549 13.4223 30.1102C13.4054 29.9655 13.4466 29.8201 13.5369 29.7058C14.3501 28.6772 15.6381 28.8266 16.0601 28.9124C16.3436 28.8574 17.1261 28.7124 18.0976 28.5585C18.1049 28.3573 18.0953 28.1559 18.069 27.9563C18.0589 27.8841 18.0631 27.8107 18.0814 27.7401C18.0997 27.6696 18.1317 27.6034 18.1755 27.5452C18.2194 27.487 18.2743 27.4381 18.3371 27.4011C18.3999 27.3642 18.4694 27.34 18.5415 27.3299C18.6137 27.3198 18.6871 27.324 18.7577 27.3423C18.8282 27.3605 18.8944 27.3925 18.9526 27.4364C19.0108 27.4803 19.0597 27.5352 19.0967 27.598C19.1336 27.6608 19.1578 27.7303 19.1679 27.8024C19.1943 27.9977 19.2082 28.1944 19.2097 28.3915C19.6273 28.3321 20.0559 28.2772 20.4757 28.2288C20.5746 27.9936 20.7109 27.3496 20.2559 25.9694C20.2108 25.8309 20.2226 25.6802 20.2885 25.5504C20.3544 25.4206 20.4692 25.3223 20.6076 25.277C17.6514 26.0595 12.8292 26.521 10.4972 26.5958C10.9302 27.4727 11.583 28.6684 12.0885 29.1585ZM14.737 30.6575C14.8249 30.5612 14.934 30.4867 15.0557 30.4398C15.1774 30.3928 15.3083 30.3748 15.4381 30.3872C15.5278 30.3878 15.6174 30.3944 15.7062 30.4069C17.6294 31.4531 17.2448 33.1829 17.1173 33.6049C16.9503 33.9214 15.9106 35.6468 13.2995 35.6468H13.227C12.4599 35.6468 11.4687 35.4885 11.0598 34.8291C10.9583 34.6553 10.8974 34.4606 10.8818 34.2599C10.9895 34.2599 11.1016 34.2599 11.1961 34.2599C11.5539 34.2614 11.9105 34.2186 12.2577 34.1324C12.6056 34.0565 12.9271 33.8898 13.1897 33.6493C13.4522 33.4088 13.6463 33.103 13.7523 32.7631C13.7867 32.7653 13.8212 32.7653 13.8556 32.7631C14.0718 32.7636 14.2822 32.6933 14.4546 32.5628C14.627 32.4324 14.7519 32.2491 14.8102 32.0409C14.8686 31.8328 14.8571 31.6112 14.7776 31.4102C14.6981 31.2092 14.5549 31.0398 14.3699 30.9278C14.5143 30.8679 14.643 30.7754 14.7457 30.6575H14.737ZM19.8251 26.1012C20.1218 27.0134 20.1372 27.5475 20.1065 27.8244L19.6053 27.8859L19.5856 27.7343C19.5509 27.4997 19.4335 27.2852 19.2545 27.1296C19.0756 26.974 18.8468 26.8875 18.6097 26.8859C18.5629 26.8825 18.5158 26.8825 18.469 26.8859C18.34 26.9034 18.2157 26.9463 18.1034 27.0122C17.9911 27.078 17.8929 27.1655 17.8146 27.2696C17.7363 27.3736 17.6795 27.4922 17.6473 27.6183C17.6151 27.7445 17.6083 27.8758 17.6272 28.0046C17.6272 28.0596 17.6404 28.1145 17.6448 28.1695C16.8601 28.2991 16.2689 28.409 16.0513 28.4508C15.8459 28.4148 15.6378 28.3972 15.4293 28.3981C15.0015 28.3845 14.5764 28.4703 14.1874 28.6488C13.7984 28.8272 13.4561 29.0935 13.1874 29.4267C13.1327 29.4937 13.0869 29.5676 13.0512 29.6465L13.0028 29.5761C12.8265 29.3072 12.6216 29.0581 12.3918 28.8332C12.0885 28.5453 11.6621 27.8903 11.1917 27.0002C13.4995 26.8749 17.1151 26.4991 19.7834 25.9122C19.7943 25.9767 19.8112 26.0399 19.8339 26.1012H19.8251ZM14.5501 39.858C14.1576 39.8598 13.7676 39.7959 13.3962 39.6689C12.9866 39.5281 12.589 39.3547 12.2072 39.1502C12.1309 39.4166 12.1241 39.6981 12.1874 39.9679C13.3435 40.2404 15.7854 40.6404 16.9722 40.0756C17.6975 39.7327 18.1481 39.3085 18.2119 38.9129C18.2299 38.7885 18.2108 38.6616 18.1569 38.548C17.4492 39.0316 16.0271 39.858 14.5479 39.858H14.5501ZM13.3149 37.1853H13.2182C12.6457 37.1861 12.0761 37.1024 11.528 36.9369C11.8093 37.6491 12.4072 38.1568 13.7611 38.6315C15.3722 39.1964 17.4074 37.7524 17.8382 37.4249C18.0031 37.093 18.5196 35.9237 18.08 34.9522C17.4052 35.8336 15.9436 37.1853 13.3127 37.1853H13.3149ZM17.4909 37.137C17.0777 37.4381 15.7568 38.3216 14.5633 38.3216C14.3391 38.3241 14.1162 38.2884 13.9039 38.2161C13.4439 38.068 13.0062 37.858 12.6028 37.5919C12.8006 37.611 13.005 37.622 13.216 37.6249H13.3127C15.5106 37.6249 16.9525 36.7303 17.8096 35.9083C17.7787 36.3343 17.6692 36.7509 17.4865 37.137H17.4909ZM10.4049 37.0205H10.0884C9.51795 37.0277 8.94798 36.9851 8.38499 36.893C8.24188 36.8638 8.11622 36.779 8.03563 36.6572C7.95505 36.5354 7.92615 36.3866 7.9553 36.2435C7.98444 36.1004 8.06925 35.9747 8.19105 35.8941C8.31285 35.8136 8.46167 35.7847 8.60478 35.8138C9.05821 35.8873 9.51693 35.9233 9.97628 35.9215C9.89673 35.8274 9.82332 35.7283 9.75649 35.6248C9.37127 34.968 9.251 34.189 9.42021 33.4467C8.31914 32.9443 7.41724 32.0888 6.85744 31.0158C6.78603 30.8884 6.76815 30.7379 6.80772 30.5973C6.84729 30.4568 6.94107 30.3377 7.06844 30.2663C7.19581 30.1949 7.34633 30.177 7.48688 30.2166C7.62744 30.2561 7.74652 30.3499 7.81793 30.4773C8.88831 32.4114 10.6378 32.9587 11.8951 32.6444C11.9918 32.6357 12.0835 32.5971 12.1575 32.5342C12.2315 32.4712 12.2841 32.3869 12.3083 32.2928C12.3662 31.9106 12.3072 31.5198 12.139 31.1718L12.1126 31.1169C11.9341 30.6836 11.6737 30.2888 11.3456 29.9542C10.5389 29.1849 9.65099 27.3826 9.29273 26.6155C8.13443 26.6617 6.20026 27.0705 4.91009 28.3893C3.98916 29.33 3.56057 30.5872 3.63091 32.1411C3.63527 32.1783 3.63527 32.216 3.63091 32.2532C3.63091 32.3103 3.51881 33.7763 6.41126 35.6402C6.51095 35.7046 6.58712 35.7995 6.62836 35.9108C6.6696 36.0221 6.6737 36.1437 6.64006 36.2575C6.60641 36.3713 6.53682 36.4712 6.44169 36.5422C6.34657 36.6131 6.23103 36.6514 6.11235 36.6512C6.00697 36.6516 5.9038 36.621 5.81563 36.5633C3.75179 35.2445 2.96933 34.0115 2.6836 33.1719C1.98467 33.8313 1.10111 35.0555 1.81982 36.6578C3.06165 39.425 4.73646 40.9679 5.22439 41.1459C5.66397 41.3042 6.54314 41.4383 7.02009 41.1174C7.12265 41.0452 7.20931 40.9528 7.27471 40.8458C7.34011 40.7388 7.38287 40.6195 7.40032 40.4954C7.06404 40.2008 6.52116 39.5986 5.65958 38.3612C5.60869 38.3033 5.57055 38.2354 5.54762 38.1618C5.5247 38.0883 5.5175 38.0107 5.5265 37.9342C5.5355 37.8576 5.5605 37.7838 5.59988 37.7176C5.63925 37.6514 5.69211 37.5941 5.75504 37.5497C5.81796 37.5052 5.88954 37.4744 5.96512 37.4594C6.04071 37.4444 6.1186 37.4454 6.19375 37.4625C6.2689 37.4795 6.33963 37.5122 6.40134 37.5583C6.46304 37.6045 6.51435 37.6631 6.55193 37.7304C7.51242 39.1239 8.00475 39.581 8.1652 39.7085C8.26264 39.7454 8.34578 39.8124 8.40257 39.8997C8.40257 39.8997 9.06195 40.5591 11.084 40.0382C10.9851 39.5167 11.0568 38.9772 11.2884 38.4997C10.8638 38.0963 10.5568 37.5849 10.4005 37.0205H10.4049ZM5.54309 37.2403C5.32777 37.388 5.17981 37.6151 5.13161 37.8718C5.08341 38.1284 5.1389 38.3937 5.28593 38.6096C5.75948 39.3242 6.29332 39.997 6.88162 40.6206C6.85399 40.6722 6.81395 40.716 6.76513 40.7481C6.5899 40.8396 6.39324 40.8821 6.19587 40.8712C5.91241 40.8698 5.63106 40.8223 5.36286 40.7305C5.05955 40.6206 3.43969 39.2184 2.20886 36.4754C2.01778 36.0687 1.94768 35.6156 2.00691 35.1702C2.06615 34.7248 2.25221 34.3058 2.54294 33.9632C2.98252 34.783 3.86169 35.8314 5.56067 36.9282C5.67444 37.0002 5.80148 37.0488 5.93432 37.071C5.79186 37.096 5.65672 37.1523 5.53869 37.2359L5.54309 37.2403ZM10.6071 39.7085C10.3021 39.7734 9.99138 39.8081 9.67956 39.8118C9.34633 39.8324 9.01428 39.756 8.72347 39.592C8.6366 39.4824 8.52617 39.3938 8.40038 39.3327C8.23773 39.192 7.78056 38.7392 6.91459 37.4798C6.7634 37.2648 6.53363 37.1179 6.27499 37.071C6.40557 37.0477 6.53012 36.9984 6.64118 36.9258C6.75225 36.8533 6.84756 36.7592 6.92142 36.649C6.99528 36.5388 7.04617 36.4149 7.07105 36.2846C7.09594 36.1543 7.0943 36.0204 7.06624 35.8907C7.03892 35.7624 6.98589 35.6409 6.91034 35.5336C6.83479 35.4264 6.73829 35.3355 6.62666 35.2665C4.12104 33.6511 4.04851 32.4092 4.04851 32.2906C4.05289 32.2357 4.05289 32.1806 4.04851 32.1257V32.1147C4.00015 30.6971 4.39578 29.5454 5.2178 28.697C6.24422 27.6464 7.80254 27.1804 9.01139 27.0727C9.48614 28.0574 10.2774 29.5542 11.0313 30.2729C11.2349 30.4777 11.4067 30.7118 11.5412 30.9674L11.7214 31.3498C11.8471 31.6115 11.8981 31.9028 11.8687 32.1916C11.8419 32.2068 11.813 32.2179 11.783 32.2246C11.5909 32.2718 11.3939 32.2954 11.1961 32.295C10.0202 32.295 8.8971 31.5389 8.19597 30.2729C8.06333 30.0549 7.85156 29.8966 7.60493 29.8311C7.3583 29.7656 7.0959 29.7979 6.87256 29.9214C6.64923 30.0448 6.48225 30.2498 6.40652 30.4935C6.33079 30.7372 6.35218 31.0007 6.46621 31.229C7.0218 32.2787 7.87718 33.1395 8.92348 33.7016C8.84897 34.2988 8.93233 34.905 9.16525 35.4599C8.97623 35.4424 8.80919 35.4226 8.67072 35.3962C8.60931 35.3831 8.54669 35.3765 8.4839 35.3764C8.25427 35.3763 8.03175 35.456 7.8545 35.602C7.67724 35.748 7.5563 35.9511 7.51242 36.1765C7.48666 36.304 7.48661 36.4354 7.51228 36.563C7.53794 36.6905 7.5888 36.8117 7.66188 36.9194C7.80963 37.1379 8.03809 37.2889 8.29707 37.3392C8.88628 37.435 9.48266 37.4799 10.0796 37.4732C10.2353 37.8898 10.4662 38.2743 10.7609 38.6074C10.638 38.9608 10.5858 39.3349 10.6071 39.7085Z" fill="#4070D9"/>
<path d="M28.3238 25.4746C28.2491 24.1559 27.5787 23.4657 27.0292 23.1185C26.4047 22.7499 25.688 22.5669 24.9632 22.591C23.6444 22.591 22.2729 23.0306 21.3454 23.4196C18.8486 24.4328 12.0505 25.0746 9.84815 25.0746H9.53165C7.8986 25.0746 5.41935 25.6615 3.80169 27.3165C2.69174 28.4506 2.11369 29.91 2.08072 31.653C0.594933 32.7849 -0.677658 34.8729 0.403715 37.2906C1.7906 40.3787 3.73575 42.2513 4.68525 42.5942C5.16921 42.7637 5.67804 42.8513 6.19082 42.8535C6.7759 42.8739 7.35396 42.721 7.85244 42.4139C8.14608 42.2213 8.3919 41.9642 8.57116 41.6623C8.93046 41.7523 9.2997 41.7967 9.67011 41.7941C10.3855 41.7809 11.0953 41.6655 11.7779 41.4513C12.9141 41.722 14.0762 41.8694 15.244 41.8908C15.691 41.8938 16.1374 41.8577 16.5782 41.7831C16.9406 41.7238 17.2938 41.6174 17.6288 41.4666C19.1805 40.7303 19.6267 39.8006 19.73 39.1522C19.8089 38.6278 19.6982 38.0924 19.4179 37.6423C19.7453 36.7851 20.1629 35.1081 19.1365 33.7234C19.2604 33.0927 19.2524 32.4432 19.1132 31.8157C18.9741 31.1882 18.7066 30.5962 18.3277 30.0771C19.6895 29.8416 21.0642 29.6875 22.4444 29.6155C23.7631 29.5891 26.1523 29.3364 27.4644 27.9209C27.77 27.5954 28.0042 27.2097 28.1522 26.7884C28.3002 26.3672 28.3586 25.9197 28.3238 25.4746ZM12.1845 39.9677C12.1213 39.6979 12.1281 39.4164 12.2043 39.15C12.5861 39.3545 12.9838 39.5279 13.3934 39.6688C13.7648 39.7957 14.1548 39.8596 14.5473 39.8578C16.0265 39.8578 17.4485 39.0314 18.1541 38.539C18.2079 38.6526 18.2271 38.7795 18.209 38.9039C18.1453 39.2995 17.6947 39.7237 16.9694 40.0666C15.7825 40.6402 13.3406 40.2402 12.1845 39.9677ZM17.8354 37.4247C17.3958 37.75 15.3693 39.1962 13.7582 38.6313C12.4087 38.1566 11.8065 37.6489 11.5252 36.9367C12.0733 37.1022 12.6428 37.1859 13.2153 37.1851H13.3121C15.9496 37.1851 17.4046 35.8334 18.0771 34.952C18.5167 35.9235 18.0002 37.0928 17.8354 37.4247ZM8.40192 39.9083C8.34513 39.821 8.26198 39.754 8.16455 39.7171C8.0041 39.5896 7.50517 39.1325 6.55128 37.739C6.51029 37.6795 6.45799 37.6287 6.39737 37.5895C6.33675 37.5502 6.269 37.5233 6.19797 37.5102C6.12695 37.4972 6.05405 37.4982 5.98343 37.5133C5.91281 37.5285 5.84586 37.5573 5.7864 37.5983C5.72694 37.6393 5.67614 37.6916 5.63689 37.7522C5.59764 37.8128 5.57072 37.8806 5.55766 37.9516C5.5446 38.0226 5.54565 38.0955 5.56076 38.1662C5.57588 38.2368 5.60475 38.3037 5.64574 38.3632C6.50072 39.6006 7.0502 40.2028 7.38648 40.4974C7.36903 40.6215 7.32627 40.7408 7.26087 40.8478C7.19547 40.9548 7.1088 41.0472 7.00624 41.1194C6.52051 41.4403 5.64574 41.3062 5.21055 41.1479C4.72261 40.9699 3.0478 39.427 1.80598 36.6598C1.09826 35.0575 1.97742 33.8333 2.66976 33.1739C2.95549 34.0135 3.73795 35.2356 5.80179 36.5653C5.88996 36.623 5.99313 36.6536 6.09851 36.6532C6.21719 36.6534 6.33273 36.6151 6.42785 36.5442C6.52298 36.4732 6.59257 36.3733 6.62621 36.2595C6.65986 36.1457 6.65576 36.0241 6.61452 35.9128C6.57328 35.8015 6.49711 35.7066 6.39742 35.6422C3.51596 33.774 3.61267 32.3123 3.61706 32.2552C3.62143 32.218 3.62143 32.1803 3.61706 32.1431C3.54673 30.6046 3.97532 29.332 4.89625 28.3913C6.18642 27.0725 8.12059 26.6637 9.27889 26.6175C9.63715 27.3846 10.5251 29.1869 11.3317 29.9562C11.6599 30.2908 11.9203 30.6856 12.0988 31.1189L12.1252 31.1738C12.2933 31.5219 12.3523 31.9126 12.2944 32.2948C12.2721 32.3885 12.2216 32.4731 12.1497 32.5372C12.0777 32.6012 11.9879 32.6417 11.8922 32.653C10.635 32.9673 8.88546 32.42 7.81508 30.4859C7.74118 30.3651 7.62349 30.2774 7.48656 30.2413C7.34963 30.2052 7.20403 30.2233 7.08014 30.2919C6.95625 30.3605 6.86363 30.4743 6.82161 30.6095C6.77958 30.7448 6.7914 30.891 6.85459 31.0178C7.41344 32.0912 8.31456 32.9475 9.41516 33.4509C9.24595 34.1932 9.36622 34.9722 9.75144 35.629C9.81827 35.7325 9.89168 35.8316 9.97123 35.9257C9.51188 35.9275 9.05316 35.8915 8.59973 35.818C8.52887 35.8036 8.45586 35.8032 8.38487 35.817C8.31389 35.8308 8.24631 35.8584 8.186 35.8983C8.0642 35.9789 7.97939 36.1046 7.95025 36.2477C7.93582 36.3186 7.93548 36.3916 7.94927 36.4626C7.96305 36.5335 7.99068 36.6011 8.03058 36.6614C8.07048 36.7217 8.12187 36.7736 8.18181 36.8141C8.24176 36.8545 8.30908 36.8828 8.37994 36.8972C8.94293 36.9893 9.5129 37.0319 10.0833 37.0247H10.3954C10.5489 37.589 10.8528 38.101 11.2746 38.5061C11.0429 38.9836 10.9713 39.5231 11.0702 40.0446C9.06789 40.5875 8.40412 39.9083 8.40192 39.9083ZM21.6268 28.1165C21.7103 27.567 21.6685 26.7692 21.2949 25.6263C21.2756 25.5543 21.2418 25.487 21.1956 25.4285C21.1495 25.3699 21.0919 25.3214 21.0264 25.2858C20.9609 25.2503 20.8889 25.2284 20.8147 25.2215C20.7404 25.2147 20.6656 25.223 20.5947 25.246C20.5238 25.269 20.4583 25.3062 20.4022 25.3553C20.3462 25.4043 20.3007 25.4643 20.2685 25.5316C20.2363 25.5988 20.2182 25.6719 20.2151 25.7464C20.2121 25.8208 20.2243 25.8951 20.2509 25.9648C20.6904 27.3495 20.5652 27.989 20.4707 28.2242C20.0509 28.2726 19.6223 28.3275 19.2047 28.3869C19.2032 28.1898 19.1892 27.9931 19.1629 27.7978C19.1425 27.6521 19.065 27.5204 18.9476 27.4318C18.8301 27.3432 18.6822 27.3049 18.5365 27.3253C18.3908 27.3457 18.2591 27.4231 18.1705 27.5406C18.0819 27.6581 18.0435 27.8059 18.0639 27.9517C18.0902 28.1513 18.0998 28.3527 18.0925 28.5539C17.121 28.7078 16.3342 28.8528 16.0551 28.9078C15.6331 28.8243 14.3451 28.6726 13.5318 29.7012C13.4867 29.7582 13.4533 29.8236 13.4336 29.8936C13.4139 29.9635 13.4083 30.0367 13.4171 30.1089C13.4259 30.1811 13.4489 30.2508 13.4848 30.314C13.5207 30.3772 13.5689 30.4326 13.6264 30.4771C13.723 30.5545 13.8432 30.5964 13.967 30.5958C14.0513 30.5975 14.1348 30.5797 14.211 30.5439C14.2872 30.5081 14.3542 30.4551 14.4066 30.3892C14.8462 29.8309 15.6528 29.9496 15.866 29.9913C18.2683 31.2485 17.6244 33.508 17.5408 33.7761C17.4287 33.9959 16.2924 36.0905 13.3143 36.0905H13.2351C11.9757 36.0752 11.0988 35.7191 10.6987 35.0597C10.4732 34.6707 10.3952 34.2135 10.4789 33.7718C10.7192 33.8133 10.9626 33.8346 11.2065 33.8355C11.5286 33.8363 11.8497 33.798 12.1625 33.7212C12.4497 33.6617 12.7144 33.5229 12.9265 33.3204C13.1386 33.118 13.2897 32.8601 13.3626 32.5761C13.3923 32.4564 13.4106 32.3343 13.4176 32.2112C13.5033 32.2464 13.5934 32.2816 13.6879 32.3145C13.7452 32.3343 13.8053 32.3447 13.8659 32.3453C13.9966 32.3461 14.1232 32.3002 14.2231 32.2161C14.323 32.1319 14.3897 32.0149 14.4111 31.886C14.4326 31.7571 14.4074 31.6248 14.3401 31.5128C14.2728 31.4008 14.1678 31.3165 14.044 31.2749C13.3978 31.0551 13.1648 30.7738 13.1208 30.7035V30.6903C12.9907 30.385 12.8318 30.0928 12.6461 29.8177C12.487 29.5789 12.3028 29.3579 12.0966 29.1583C11.5823 28.6682 10.9295 27.4725 10.4987 26.5978C12.8241 26.5164 17.6463 26.0549 20.6091 25.279C21.0571 25.1633 21.4975 25.0202 21.9279 24.8504C23.8181 24.0834 25.4204 23.9229 26.2116 24.424C26.5721 24.6438 26.7611 25.0263 26.7919 25.5669C26.814 25.8063 26.785 26.0476 26.707 26.2749C26.6289 26.5022 26.5035 26.7104 26.3391 26.8857C25.6797 27.6044 24.2093 28.0528 22.418 28.088C22.1696 28.0814 21.9037 28.0967 21.6268 28.1165Z" fill="#4070D9"/>
<path d="M26.3347 26.8749C25.6753 27.5936 24.2049 28.042 22.4136 28.0772C22.1697 28.0772 21.9037 28.0969 21.6268 28.1167C21.7103 27.5672 21.6685 26.7694 21.2949 25.6265C21.2729 25.5576 21.2376 25.4937 21.1908 25.4386C21.1441 25.3835 21.0869 25.3381 21.0225 25.3052C20.9581 25.2723 20.8878 25.2525 20.8158 25.2469C20.7437 25.2413 20.6712 25.25 20.6025 25.2726C21.0505 25.1569 21.4909 25.0138 21.9213 24.844C23.8115 24.077 25.4138 23.9165 26.205 24.4176C26.5655 24.6374 26.7545 25.0199 26.7853 25.5605C26.807 25.799 26.7781 26.0394 26.7005 26.2659C26.6228 26.4924 26.4982 26.6999 26.3347 26.8749Z" fill="#F9F2E8"/>
<path d="M18.209 38.9127C18.1452 39.3083 17.6947 39.7325 16.9693 40.0754C15.7825 40.6403 13.3406 40.2402 12.1845 39.9677C12.1212 39.6979 12.128 39.4165 12.2043 39.1501C12.5861 39.3545 12.9837 39.528 13.3933 39.6688C13.7647 39.7958 14.1548 39.8596 14.5472 39.8578C16.0264 39.8578 17.4485 39.0314 18.154 38.5391C18.2097 38.6552 18.2288 38.7855 18.209 38.9127Z" fill="#F9F2E8"/>
<path d="M17.8356 37.4248C17.396 37.7501 15.3695 39.1963 13.7585 38.6315C12.409 38.1567 11.8067 37.649 11.5254 36.9369C12.0735 37.1023 12.643 37.186 13.2156 37.1852H13.3123C15.9498 37.1852 17.4048 35.8335 18.0774 34.9521C18.517 35.9236 18.0004 37.0929 17.8356 37.4248Z" fill="#F9F2E8"/>
<path d="M20.251 25.965C20.6906 27.3497 20.5653 27.9893 20.4708 28.2245C20.051 28.2729 19.6224 28.3278 19.2048 28.3871C19.2033 28.1901 19.1893 27.9934 19.163 27.7981C19.1426 27.6524 19.0652 27.5207 18.9477 27.4321C18.8302 27.3435 18.6823 27.3052 18.5366 27.3256C18.3909 27.346 18.2592 27.4234 18.1706 27.5409C18.082 27.6584 18.0437 27.8062 18.0641 27.952C18.0904 28.1516 18.0999 28.353 18.0926 28.5542C17.1212 28.708 16.3343 28.8531 16.0552 28.9081C15.6332 28.8245 14.3452 28.6729 13.532 29.7015C13.4868 29.7585 13.4534 29.8239 13.4337 29.8938C13.414 29.9638 13.4084 30.037 13.4172 30.1092C13.426 30.1813 13.449 30.251 13.4849 30.3142C13.5209 30.3774 13.569 30.4329 13.6265 30.4774C13.7231 30.5548 13.8433 30.5967 13.9671 30.596C14.0514 30.5978 14.1349 30.58 14.2111 30.5442C14.2874 30.5083 14.3543 30.4554 14.4067 30.3894C14.8463 29.8312 15.6529 29.9499 15.8661 29.9916C18.2685 31.2488 17.6245 33.5083 17.541 33.7764C17.4289 33.9962 16.2925 36.0908 13.3144 36.0908H13.2352C11.9758 36.0754 11.0989 35.7194 10.6989 35.06C10.4733 34.671 10.3953 34.2138 10.4791 33.772C10.7194 33.8136 10.9627 33.8349 11.2066 33.8358C11.5287 33.8366 11.8498 33.7982 12.1627 33.7215C12.4498 33.662 12.7145 33.5231 12.9266 33.3207C13.1388 33.1183 13.2899 32.8604 13.3627 32.5764C13.3924 32.4567 13.4108 32.3346 13.4177 32.2115C13.5034 32.2467 13.5935 32.2818 13.688 32.3148C13.7453 32.3346 13.8054 32.345 13.866 32.3456C13.9967 32.3463 14.1233 32.3005 14.2232 32.2163C14.3232 32.1322 14.3898 32.0151 14.4113 31.8863C14.4327 31.7574 14.4075 31.6251 14.3402 31.5131C14.2729 31.4011 14.1679 31.3168 14.0441 31.2752C13.3979 31.0554 13.1649 30.7741 13.121 30.7037V30.6906C12.9909 30.3852 12.8319 30.0931 12.6462 29.818C12.4871 29.5792 12.3029 29.3582 12.0967 29.1586C11.5824 28.6685 10.9296 27.4728 10.4988 26.598C12.8242 26.5167 17.6465 26.0552 20.6092 25.2793C20.4712 25.3233 20.3561 25.42 20.289 25.5484C20.2219 25.6769 20.2082 25.8266 20.251 25.965Z" fill="#F9F2E8"/>
<path d="M12.3079 32.2922C12.2856 32.3859 12.2351 32.4705 12.1632 32.5346C12.0913 32.5987 12.0014 32.6391 11.9057 32.6505C10.6485 32.9648 8.89897 32.4175 7.82859 30.4833C7.75469 30.3625 7.637 30.2749 7.50007 30.2388C7.36314 30.2026 7.21754 30.2207 7.09365 30.2893C6.96976 30.358 6.87714 30.4717 6.83512 30.607C6.7931 30.7422 6.80491 30.8885 6.8681 31.0152C7.42695 32.0887 8.32808 32.945 9.42867 33.4483C9.25947 34.1907 9.37973 34.9696 9.76495 35.6264C9.83178 35.7299 9.90519 35.8291 9.98474 35.9231C9.52539 35.925 9.06668 35.8889 8.61324 35.8154C8.54238 35.801 8.46937 35.8007 8.39839 35.8145C8.3274 35.8283 8.25982 35.8559 8.19951 35.8958C8.1392 35.9357 8.08734 35.9871 8.04689 36.047C8.00644 36.107 7.97819 36.1743 7.96376 36.2451C7.94933 36.316 7.94899 36.389 7.96278 36.46C7.97656 36.531 8.00419 36.5986 8.04409 36.6589C8.08399 36.7192 8.13538 36.771 8.19532 36.8115C8.25527 36.8519 8.32259 36.8802 8.39345 36.8946C8.95644 36.9867 9.52641 37.0294 10.0968 37.0221H10.4089C10.5624 37.5864 10.8663 38.0984 11.2881 38.5035C11.0565 38.9811 10.9848 39.5205 11.0837 40.042C9.06821 40.5717 8.40444 39.9036 8.40224 39.9036C8.34545 39.8162 8.26231 39.7492 8.16487 39.7124C8.00442 39.5849 7.50549 39.1277 6.5516 37.7342C6.46882 37.6141 6.34174 37.5319 6.1983 37.5055C6.05485 37.4791 5.90681 37.5108 5.78673 37.5936C5.66664 37.6763 5.58436 37.8034 5.55798 37.9469C5.5316 38.0903 5.56328 38.2384 5.64606 38.3584C6.50105 39.5959 7.05053 40.1981 7.38681 40.4926C7.36935 40.6168 7.3266 40.7361 7.26119 40.843C7.19579 40.95 7.10913 41.0425 7.00657 41.1146C6.52083 41.4355 5.64606 41.3014 5.21087 41.1432C4.72294 40.9652 3.04813 39.4222 1.80631 36.6551C1.09858 35.0572 1.97774 33.8329 2.67009 33.1736C2.95581 34.0132 3.73827 35.2352 5.80211 36.5649C5.89028 36.6226 5.99345 36.6532 6.09883 36.6529C6.21751 36.653 6.33305 36.6148 6.42818 36.5438C6.5233 36.4728 6.59289 36.373 6.62654 36.2592C6.66019 36.1454 6.65608 36.0237 6.61484 35.9124C6.5736 35.8011 6.49744 35.7062 6.39775 35.6418C3.51628 33.7736 3.61299 32.312 3.61739 32.2548C3.62175 32.2176 3.62175 32.18 3.61739 32.1427C3.54705 30.6042 3.97565 29.3316 4.89657 28.3909C6.18675 27.0722 8.12091 26.6633 9.27921 26.6172C9.63747 27.3843 10.5254 29.1865 11.3321 29.9558C11.6602 30.2904 11.9206 30.6852 12.0991 31.1185L12.1255 31.1735C12.2977 31.5194 12.3613 31.9094 12.3079 32.2922Z" fill="#F9F2E8"/>
<path d="M13.1055 20.2568V18.8875H13.5231V15.1291H13.1055V13.7598H16.2793V15.1291H15.8617V18.8875H16.2793V20.2568H13.1055Z" fill="#4070D9"/>
<path d="M26.2555 13.7598H28.9282V15.1291H28.5941L27.3501 20.2568H24.8533L24.0928 16.6478H24.0093L23.2092 20.2568H20.7124L19.3937 15.1291H19.0508V13.7598H22.1279V15.1291H21.8223L22.1476 17.2588H22.2312L23.0246 13.7598H25.4291L26.1544 17.2588H26.238L26.5654 15.1291H26.2467L26.2555 13.7598Z" fill="#4070D9"/>
<path d="M34.3221 18.8875H34.6562V20.2568H31.3835V18.8875H31.8847L31.7506 18.2281H30.6143L30.4802 18.8875H30.9901V20.2568H28.1328V18.8875H28.4669L29.878 13.7598H32.9177L34.3221 18.8875ZM30.8055 17.3336H31.5725L31.2297 15.6719H31.1462L30.8055 17.3336Z" fill="#4070D9"/>
<path d="M39.7309 13.7598H42.4695V15.1291H42.0541V20.2568H39.7067L37.2605 16.4896V18.8875H37.6605V20.2568H34.9219V18.8875H35.3395V15.1291H34.9219V13.7598H37.9374L40.1353 17.1072V15.1291H39.7331L39.7309 13.7598Z" fill="#4070D9"/>
<path d="M49.0128 15.7796H47.5754V15.1203H47.0413V18.8787H47.6259V20.2568H44.1093V18.8875H44.6917V15.1291H44.1774V15.7884H42.7422V13.7598H49.0128V15.7796Z" fill="#4070D9"/>
<path d="M32.7792 23.0723H35.3419V24.4416H35.0079L33.4078 27.3318V28.211H33.8254V29.5803H30.6406V28.211H31.0582V27.3318L29.3966 24.4416H29.0625V23.0723H32.2934V24.4416H32.0033L32.4956 25.7361H32.5792L33.0715 24.4416H32.7792V23.0723Z" fill="#4070D9"/>
<path d="M36.1394 28.8838C35.5855 28.349 35.3086 27.4947 35.3086 26.3211C35.3086 25.1474 35.5855 24.2931 36.1394 23.7583C36.6933 23.2235 37.4794 22.9561 38.4978 22.9561C39.5161 22.9561 40.3023 23.2235 40.8561 23.7583C41.41 24.2917 41.6869 25.1459 41.6869 26.3211C41.6869 27.4962 41.41 28.3505 40.8561 28.8838C40.3023 29.4187 39.5161 29.6861 38.4978 29.6861C37.4794 29.6861 36.6933 29.4187 36.1394 28.8838ZM38.9242 28.0596C39.0288 27.9279 39.0791 27.7612 39.0648 27.5936V25.0595C39.0791 24.8919 39.0288 24.7252 38.9242 24.5935C38.8037 24.4953 38.6531 24.4417 38.4978 24.4417C38.3424 24.4417 38.1918 24.4953 38.0714 24.5935C37.9668 24.7252 37.9165 24.8919 37.9307 25.0595V27.5827C37.9153 27.7517 37.9657 27.9202 38.0714 28.053C38.1285 28.1055 38.1959 28.1457 38.2692 28.1711C38.3426 28.1964 38.4204 28.2063 38.4978 28.2003C38.5747 28.2076 38.6523 28.1989 38.7257 28.1747C38.7991 28.1505 38.8667 28.1113 38.9242 28.0596Z" fill="#4070D9"/>
<path d="M43.0782 29.1099C42.6013 28.7253 42.3639 28.1033 42.3639 27.2395V24.4416H41.9463V23.0723H45.0366V24.4416H44.7025V27.6659C44.6899 27.8112 44.7331 27.9558 44.8234 28.0703C44.9256 28.1543 45.0537 28.2001 45.186 28.2001C45.3183 28.2001 45.4464 28.1543 45.5487 28.0703C45.6389 27.9558 45.6821 27.8112 45.6696 27.6659V24.4416H45.3355V23.0723H48.1928V24.4416H47.7752V27.2395C47.7752 28.1033 47.5444 28.7253 47.0828 29.1099C46.6212 29.4946 45.9597 29.6858 45.1047 29.6858C44.2497 29.6858 43.5442 29.4946 43.0782 29.1099Z" fill="#4070D9"/>
</svg>
