<svg width="55" height="56" viewBox="0 0 55 56" fill="none" xmlns="http://www.w3.org/2000/svg">
<path d="M26.5597 13.709L33.1754 0L34.2791 15.225L47.1471 7.32318L39.9645 20.7343L55 21.1506L41.8119 28.4907L54.2397 37.0897L39.2343 36.0271L45.1064 50.0812L33.0487 40.9577L30.5044 56L25.2225 41.709L15.0688 52.9679L18.2366 38.0474L3.69468 41.9459L14.3119 31.1337L0 26.4366L14.692 23.1641L5.15521 11.3604L19.257 16.6667L17.523 1.50592L26.5597 13.709Z" fill="#4FBE94"/>
<path d="M24.5914 38.1656C26.8953 38.1656 28.763 33.6142 28.763 27.9998C28.763 22.3854 26.8953 17.834 24.5914 17.834C22.2876 17.834 20.4199 22.3854 20.4199 27.9998C20.4199 33.6142 22.2876 38.1656 24.5914 38.1656Z" fill="#F5F5F5"/>
<path d="M25.1553 24.2003C24.6285 27.8652 23.0079 30.6605 21.494 30.4575C21.2868 30.4127 21.0911 30.3249 20.9189 30.1997C20.7468 30.0745 20.602 29.9145 20.4936 29.7299C20.4503 29.1749 20.4336 28.603 20.4336 28.0175C20.4336 22.5725 22.1909 18.1292 24.3984 17.8652C25.2087 19.0057 25.5488 21.4591 25.1553 24.2003Z" fill="black"/>
<path d="M24.5388 22.4705C24.8052 20.7978 24.3959 19.3393 23.6247 19.2128C22.8535 19.0863 22.0124 20.3397 21.746 22.0124C21.4796 23.6851 21.8889 25.1436 22.6601 25.2701C23.4313 25.3965 24.2724 24.1431 24.5388 22.4705Z" fill="#F5F5F5"/>
<path d="M28.763 28.0001C28.763 31.171 28.1695 34.0035 27.2324 35.8715C26.5269 34.0846 26.1135 32.1928 26.0087 30.2708C25.9653 29.7124 25.9453 29.1405 25.9453 28.5585C25.9453 25.3842 26.5455 22.5517 27.4792 20.6904C28.2762 22.5381 28.763 25.1304 28.763 28.0001Z" fill="#E5E5E5"/>
<path d="M34.5799 28.0006C34.5799 33.6148 32.7125 38.1529 30.405 38.1529C28.3443 38.1529 26.627 34.498 26.2969 29.6926C26.4049 29.8776 26.5496 30.0377 26.7218 30.163C26.894 30.2882 27.09 30.3758 27.2972 30.4202C28.7944 30.6402 30.4317 27.8449 30.9652 24.1799C31.3587 21.4388 31.0186 18.9854 30.195 17.828C30.2627 17.823 30.3307 17.823 30.3984 17.828C32.7125 17.8348 34.5799 22.3864 34.5799 28.0006Z" fill="#F5F5F5"/>
<path d="M30.9717 24.2003C30.4449 27.8652 28.8076 30.6605 27.3104 30.4575C27.1031 30.413 26.9072 30.3254 26.735 30.2002C26.5628 30.075 26.4181 29.9148 26.31 29.7299C26.2667 29.1749 26.25 28.603 26.25 28.0175C26.25 22.5725 28.0073 18.1292 30.2148 17.8652C31.0117 19.0057 31.3652 21.4591 30.9717 24.2003Z" fill="black"/>
<path d="M30.3123 22.5654C30.5802 20.8978 30.1741 19.4429 29.4052 19.3157C28.6364 19.1884 27.7959 20.4371 27.528 22.1047C27.2601 23.7722 27.6662 25.2272 28.4351 25.3544C29.204 25.4816 30.0444 24.2329 30.3123 22.5654Z" fill="#F5F5F5"/>
</svg>
