<svg width="55" height="55" viewBox="0 0 55 55" fill="none" xmlns="http://www.w3.org/2000/svg">
<path d="M27.5017 55.0034C42.6904 55.0034 55.0034 42.6904 55.0034 27.5017C55.0034 12.3129 42.6904 0 27.5017 0C12.3129 0 0 12.3129 0 27.5017C0 42.6904 12.3129 55.0034 27.5017 55.0034Z" fill="#FDC5F5"/>
<path d="M27.5018 51.241C22.8057 51.2417 18.2148 49.8497 14.3099 47.2411C10.4049 44.6324 7.36125 40.9244 5.56381 36.5859C3.76637 32.2474 3.29591 27.4732 4.21191 22.8673C5.12792 18.2614 7.38925 14.0306 10.7099 10.7099C14.0306 7.38925 18.2614 5.12792 22.8673 4.21191C27.4732 3.29591 32.2474 3.76637 36.5859 5.56381C40.9244 7.36125 44.6324 10.4049 47.2411 14.3099C49.8497 18.2148 51.2417 22.8057 51.241 27.5018C51.2338 33.7956 48.7305 39.8296 44.2801 44.2801C39.8296 48.7305 33.7956 51.2338 27.5018 51.241ZM27.5018 7.08644C23.4659 7.08778 19.5211 8.28569 16.1659 10.5287C12.8108 12.7718 10.196 15.9592 8.65216 19.6881C7.10832 23.417 6.70473 27.52 7.49242 31.4782C8.2801 35.4365 10.2237 39.0723 13.0775 41.9261C15.9313 44.7799 19.5671 46.7235 23.5254 47.5112C27.4836 48.2989 31.5866 47.8953 35.3155 46.3514C39.0444 44.8076 42.2318 42.1928 44.4749 38.8377C46.7179 35.4825 47.9158 31.5377 47.9172 27.5018C47.9127 22.0887 45.7604 16.8986 41.9327 13.0709C38.1051 9.24324 32.9149 7.09091 27.5018 7.08644Z" fill="#6D47A8"/>
<path d="M18.4956 24.421C20.9612 24.421 22.96 22.4222 22.96 19.9566C22.96 17.491 20.9612 15.4922 18.4956 15.4922C16.03 15.4922 14.0312 17.491 14.0312 19.9566C14.0312 22.4222 16.03 24.421 18.4956 24.421Z" fill="#6D47A8"/>
<path d="M36.5054 24.421C38.971 24.421 40.9698 22.4222 40.9698 19.9566C40.9698 17.491 38.971 15.4922 36.5054 15.4922C34.0398 15.4922 32.041 17.491 32.041 19.9566C32.041 22.4222 34.0398 24.421 36.5054 24.421Z" fill="#6D47A8"/>
<path d="M27.501 43.7355C23.8632 43.7334 20.3277 42.5317 17.4421 40.3165C14.5565 38.1014 12.482 34.9965 11.5399 31.4829L11.1113 29.8733L14.3305 29.0195L14.7625 30.6291C15.5135 33.4337 17.169 35.912 19.4722 37.6796C21.7755 39.4472 24.5976 40.4054 27.501 40.4054C30.4043 40.4054 33.2265 39.4472 35.5297 37.6796C37.833 35.912 39.4885 33.4337 40.2395 30.6291L40.668 29.0195L43.8873 29.8766L43.4587 31.4862C42.5161 34.9987 40.4418 38.1025 37.557 40.3169C34.6722 42.5313 31.1377 43.7328 27.501 43.7355Z" fill="#6D47A8"/>
</svg>
